<svg width="1255" height="1367" viewBox="0 0 1255 1367" fill="none" xmlns="http://www.w3.org/2000/svg">
<rect width="1367" height="1255" transform="matrix(0 1 1 0 0 0)" fill="white"/>
<path d="M709 22V323.239L641 393V92.3949L709 22Z" fill="#00272D"/>
<path d="M562 23V323.427L630 393V93.2051L562 23Z" fill="#00272D"/>
<circle cx="640" cy="217" r="35" transform="rotate(90 640 217)" fill="white"/>
<circle cx="640.5" cy="216.5" r="27.5" transform="rotate(90 640.5 216.5)" fill="#00272D"/>
<circle cx="640.5" cy="216.5" r="22.5" transform="rotate(90 640.5 216.5)" fill="white"/>
<path d="M51.84 233V228.88L59.92 220.44C61.52 218.76 62.7467 217.427 63.6 216.44C64.48 215.427 65.0933 214.56 65.44 213.84C65.7867 213.12 65.96 212.387 65.96 211.64C65.96 210.387 65.56 209.4 64.76 208.68C63.9867 207.96 62.9867 207.6 61.76 207.6C60.48 207.6 59.3733 207.973 58.44 208.72C57.5067 209.44 56.8267 210.507 56.4 211.92L51.64 210.44C51.96 208.867 52.6133 207.507 53.6 206.36C54.5867 205.187 55.7867 204.293 57.2 203.68C58.64 203.04 60.16 202.72 61.76 202.72C63.68 202.72 65.36 203.067 66.8 203.76C68.2667 204.453 69.4 205.427 70.2 206.68C71.0267 207.933 71.44 209.4 71.44 211.08C71.44 212.147 71.24 213.2 70.84 214.24C70.44 215.28 69.84 216.347 69.04 217.44C68.24 218.507 67.2 219.707 65.92 221.04L58.92 228.4H71.84V233H51.84ZM89.7472 233.48C88.1739 233.48 86.6672 233.187 85.2272 232.6C83.8139 232.013 82.5872 231.187 81.5472 230.12C80.5339 229.027 79.8405 227.733 79.4672 226.24L84.1872 224.56C84.6405 225.92 85.3739 226.933 86.3872 227.6C87.4005 228.24 88.5205 228.56 89.7472 228.56C90.7605 228.56 91.6539 228.347 92.4272 227.92C93.2272 227.467 93.8405 226.853 94.2672 226.08C94.6939 225.28 94.9072 224.36 94.9072 223.32C94.9072 222.28 94.6805 221.373 94.2272 220.6C93.8005 219.827 93.2005 219.227 92.4272 218.8C91.6539 218.347 90.7605 218.12 89.7472 218.12C88.7072 218.12 87.7605 218.347 86.9072 218.8C86.0805 219.253 85.4805 219.907 85.1072 220.76L80.6672 219.76L83.0272 203.2H99.2672V207.8H85.1872L87.2272 205.44L85.5472 217.92L83.9872 216.64C84.7339 215.547 85.6405 214.747 86.7072 214.24C87.8005 213.733 89.1205 213.48 90.6672 213.48C92.6405 213.48 94.3472 213.907 95.7872 214.76C97.2539 215.613 98.3872 216.773 99.1872 218.24C99.9872 219.707 100.387 221.4 100.387 223.32C100.387 225.24 99.9205 226.973 98.9872 228.52C98.0539 230.067 96.7872 231.28 95.1872 232.16C93.5872 233.04 91.7739 233.48 89.7472 233.48ZM120.466 233V203.2H125.666L136.826 218.36H134.346L145.266 203.2H150.466V233H144.986V209.4L147.106 209.92L135.786 225H135.146L124.106 209.92L125.906 209.4V233H120.466ZM166.329 233.48C164.809 233.48 163.489 233.227 162.369 232.72C161.249 232.213 160.382 231.493 159.769 230.56C159.156 229.6 158.849 228.493 158.849 227.24C158.849 226.04 159.116 224.973 159.649 224.04C160.182 223.08 161.009 222.28 162.129 221.64C163.249 221 164.662 220.547 166.369 220.28L173.489 219.12V223.12L167.369 224.16C166.329 224.347 165.556 224.68 165.049 225.16C164.542 225.64 164.289 226.267 164.289 227.04C164.289 227.787 164.569 228.387 165.129 228.84C165.716 229.267 166.436 229.48 167.289 229.48C168.382 229.48 169.342 229.253 170.169 228.8C171.022 228.32 171.676 227.667 172.129 226.84C172.609 226.013 172.849 225.107 172.849 224.12V218.52C172.849 217.587 172.476 216.813 171.729 216.2C171.009 215.56 170.049 215.24 168.849 215.24C167.729 215.24 166.729 215.547 165.849 216.16C164.996 216.747 164.369 217.533 163.969 218.52L159.689 216.44C160.116 215.293 160.782 214.307 161.689 213.48C162.622 212.627 163.716 211.96 164.969 211.48C166.222 211 167.582 210.76 169.049 210.76C170.836 210.76 172.409 211.093 173.769 211.76C175.129 212.4 176.182 213.307 176.929 214.48C177.702 215.627 178.089 216.973 178.089 218.52V233H173.129V229.28L174.249 229.2C173.689 230.133 173.022 230.92 172.249 231.56C171.476 232.173 170.596 232.653 169.609 233C168.622 233.32 167.529 233.48 166.329 233.48ZM186.932 233V211.24H191.852V216.08L191.452 215.36C191.959 213.733 192.746 212.6 193.812 211.96C194.906 211.32 196.212 211 197.732 211H199.012V215.64H197.132C195.639 215.64 194.439 216.107 193.532 217.04C192.626 217.947 192.172 219.227 192.172 220.88V233H186.932ZM216.373 233.48C214.213 233.48 212.266 232.987 210.533 232C208.826 230.987 207.48 229.627 206.493 227.92C205.506 226.187 205.013 224.24 205.013 222.08C205.013 219.92 205.506 217.987 206.493 216.28C207.48 214.573 208.826 213.227 210.533 212.24C212.266 211.253 214.213 210.76 216.373 210.76C217.92 210.76 219.36 211.04 220.693 211.6C222.026 212.133 223.173 212.88 224.133 213.84C225.12 214.773 225.826 215.893 226.253 217.2L221.653 219.2C221.253 218.107 220.573 217.227 219.613 216.56C218.68 215.893 217.6 215.56 216.373 215.56C215.226 215.56 214.2 215.84 213.293 216.4C212.413 216.96 211.72 217.733 211.213 218.72C210.706 219.707 210.453 220.84 210.453 222.12C210.453 223.4 210.706 224.533 211.213 225.52C211.72 226.507 212.413 227.28 213.293 227.84C214.2 228.4 215.226 228.68 216.373 228.68C217.626 228.68 218.72 228.347 219.653 227.68C220.586 227.013 221.253 226.12 221.653 225L226.253 227.08C225.826 228.307 225.133 229.413 224.173 230.4C223.213 231.36 222.066 232.12 220.733 232.68C219.4 233.213 217.946 233.48 216.373 233.48ZM234.229 233V202.72H239.469V215.52L238.749 214.76C239.256 213.453 240.082 212.467 241.229 211.8C242.402 211.107 243.762 210.76 245.309 210.76C246.909 210.76 248.322 211.107 249.549 211.8C250.802 212.493 251.776 213.467 252.469 214.72C253.162 215.947 253.509 217.373 253.509 219V233H248.269V220.24C248.269 219.28 248.082 218.453 247.709 217.76C247.336 217.067 246.816 216.533 246.149 216.16C245.509 215.76 244.749 215.56 243.869 215.56C243.016 215.56 242.256 215.76 241.589 216.16C240.922 216.533 240.402 217.067 240.029 217.76C239.656 218.453 239.469 219.28 239.469 220.24V233H234.229ZM272.449 233V228.88L280.529 220.44C282.129 218.76 283.356 217.427 284.209 216.44C285.089 215.427 285.703 214.56 286.049 213.84C286.396 213.12 286.569 212.387 286.569 211.64C286.569 210.387 286.169 209.4 285.369 208.68C284.596 207.96 283.596 207.6 282.369 207.6C281.089 207.6 279.983 207.973 279.049 208.72C278.116 209.44 277.436 210.507 277.009 211.92L272.249 210.44C272.569 208.867 273.223 207.507 274.209 206.36C275.196 205.187 276.396 204.293 277.809 203.68C279.249 203.04 280.769 202.72 282.369 202.72C284.289 202.72 285.969 203.067 287.409 203.76C288.876 204.453 290.009 205.427 290.809 206.68C291.636 207.933 292.049 209.4 292.049 211.08C292.049 212.147 291.849 213.2 291.449 214.24C291.049 215.28 290.449 216.347 289.649 217.44C288.849 218.507 287.809 219.707 286.529 221.04L279.529 228.4H292.449V233H272.449ZM312.637 233.48C310.263 233.48 308.183 232.84 306.397 231.56C304.61 230.28 303.21 228.48 302.197 226.16C301.21 223.84 300.717 221.147 300.717 218.08C300.717 214.987 301.21 212.293 302.197 210C303.183 207.707 304.57 205.92 306.357 204.64C308.143 203.36 310.223 202.72 312.597 202.72C315.023 202.72 317.117 203.36 318.877 204.64C320.663 205.92 322.063 207.72 323.077 210.04C324.09 212.333 324.597 215.013 324.597 218.08C324.597 221.147 324.09 223.84 323.077 226.16C322.09 228.453 320.703 230.253 318.917 231.56C317.13 232.84 315.037 233.48 312.637 233.48ZM312.677 228.52C314.037 228.52 315.197 228.107 316.157 227.28C317.117 226.427 317.85 225.227 318.357 223.68C318.89 222.107 319.157 220.24 319.157 218.08C319.157 215.92 318.89 214.067 318.357 212.52C317.85 210.947 317.103 209.747 316.117 208.92C315.157 208.093 313.983 207.68 312.597 207.68C311.263 207.68 310.117 208.093 309.157 208.92C308.197 209.747 307.45 210.947 306.917 212.52C306.41 214.067 306.157 215.92 306.157 218.08C306.157 220.213 306.41 222.067 306.917 223.64C307.45 225.187 308.197 226.387 309.157 227.24C310.143 228.093 311.317 228.52 312.677 228.52ZM332.637 233V228.88L340.717 220.44C342.317 218.76 343.544 217.427 344.397 216.44C345.277 215.427 345.89 214.56 346.237 213.84C346.584 213.12 346.757 212.387 346.757 211.64C346.757 210.387 346.357 209.4 345.557 208.68C344.784 207.96 343.784 207.6 342.557 207.6C341.277 207.6 340.17 207.973 339.237 208.72C338.304 209.44 337.624 210.507 337.197 211.92L332.437 210.44C332.757 208.867 333.41 207.507 334.397 206.36C335.384 205.187 336.584 204.293 337.997 203.68C339.437 203.04 340.957 202.72 342.557 202.72C344.477 202.72 346.157 203.067 347.597 203.76C349.064 204.453 350.197 205.427 350.997 206.68C351.824 207.933 352.237 209.4 352.237 211.08C352.237 212.147 352.037 213.2 351.637 214.24C351.237 215.28 350.637 216.347 349.837 217.44C349.037 218.507 347.997 219.707 346.717 221.04L339.717 228.4H352.637V233H332.637ZM373.393 233V226.44H359.713V221.88L373.073 203.2H378.753V221.88H383.113V226.44H378.753V233H373.393ZM363.713 223.84L362.753 221.88H373.393V207.48L374.793 207.92L363.713 223.84Z" fill="#00272D"/>
<path d="M12.9135 275L12.9135 252.65H16.4535L16.4535 271.85H26.1135V275H12.9135ZM35.1154 275.36C34.0154 275.36 33.0454 275.17 32.2054 274.79C31.3854 274.39 30.7454 273.85 30.2854 273.17C29.8254 272.47 29.5954 271.65 29.5954 270.71C29.5954 269.83 29.7854 269.04 30.1654 268.34C30.5654 267.64 31.1754 267.05 31.9954 266.57C32.8154 266.09 33.8454 265.75 35.0854 265.55L40.7254 264.62V267.29L35.7454 268.16C34.8454 268.32 34.1854 268.61 33.7654 269.03C33.3454 269.43 33.1354 269.95 33.1354 270.59C33.1354 271.21 33.3654 271.72 33.8254 272.12C34.3054 272.5 34.9154 272.69 35.6554 272.69C36.5754 272.69 37.3754 272.49 38.0554 272.09C38.7554 271.69 39.2954 271.16 39.6754 270.5C40.0554 269.82 40.2454 269.07 40.2454 268.25V264.08C40.2454 263.28 39.9454 262.63 39.3454 262.13C38.7654 261.61 37.9854 261.35 37.0054 261.35C36.1054 261.35 35.3154 261.59 34.6354 262.07C33.9754 262.53 33.4854 263.13 33.1654 263.87L30.3454 262.46C30.6454 261.66 31.1354 260.96 31.8154 260.36C32.4954 259.74 33.2854 259.26 34.1854 258.92C35.1054 258.58 36.0754 258.41 37.0954 258.41C38.3754 258.41 39.5054 258.65 40.4854 259.13C41.4854 259.61 42.2554 260.28 42.7954 261.14C43.3554 261.98 43.6354 262.96 43.6354 264.08V275H40.3954V272.06L41.0854 272.15C40.7054 272.81 40.2154 273.38 39.6154 273.86C39.0354 274.34 38.3654 274.71 37.6054 274.97C36.8654 275.23 36.0354 275.36 35.1154 275.36ZM55.0991 275.36C53.4391 275.36 51.9791 274.95 50.7191 274.13C49.4791 273.31 48.6091 272.21 48.1091 270.83L50.7191 269.6C51.1591 270.52 51.7591 271.25 52.5191 271.79C53.2991 272.33 54.1591 272.6 55.0991 272.6C55.8991 272.6 56.5491 272.42 57.0491 272.06C57.5491 271.7 57.7991 271.21 57.7991 270.59C57.7991 270.19 57.6891 269.87 57.4691 269.63C57.2491 269.37 56.9691 269.16 56.6291 269C56.3091 268.84 55.9791 268.72 55.6391 268.64L53.0891 267.92C51.6891 267.52 50.6391 266.92 49.9391 266.12C49.2591 265.3 48.9191 264.35 48.9191 263.27C48.9191 262.29 49.1691 261.44 49.6691 260.72C50.1691 259.98 50.8591 259.41 51.7391 259.01C52.6191 258.61 53.6091 258.41 54.7091 258.41C56.1891 258.41 57.5091 258.78 58.6691 259.52C59.8291 260.24 60.6491 261.25 61.1291 262.55L58.5191 263.78C58.1991 263 57.6891 262.38 56.9891 261.92C56.3091 261.46 55.5391 261.23 54.6791 261.23C53.9391 261.23 53.3491 261.41 52.9091 261.77C52.4691 262.11 52.2491 262.56 52.2491 263.12C52.2491 263.5 52.3491 263.82 52.5491 264.08C52.7491 264.32 53.0091 264.52 53.3291 264.68C53.6491 264.82 53.9791 264.94 54.3191 265.04L56.9591 265.82C58.2991 266.2 59.3291 266.8 60.0491 267.62C60.7691 268.42 61.1291 269.38 61.1291 270.5C61.1291 271.46 60.8691 272.31 60.3491 273.05C59.8491 273.77 59.1491 274.34 58.2491 274.76C57.3491 275.16 56.2991 275.36 55.0991 275.36ZM72.9707 275.18C71.2707 275.18 69.9507 274.7 69.0107 273.74C68.0707 272.78 67.6007 271.43 67.6007 269.69V261.83H64.7507V258.77H65.2007C65.9607 258.77 66.5507 258.55 66.9707 258.11C67.3907 257.67 67.6007 257.07 67.6007 256.31V255.05H70.9907V258.77H74.6807V261.83H70.9907V269.54C70.9907 270.1 71.0807 270.58 71.2607 270.98C71.4407 271.36 71.7307 271.66 72.1307 271.88C72.5307 272.08 73.0507 272.18 73.6907 272.18C73.8507 272.18 74.0307 272.17 74.2307 272.15C74.4307 272.13 74.6207 272.11 74.8007 272.09V275C74.5207 275.04 74.2107 275.08 73.8707 275.12C73.5307 275.16 73.2307 275.18 72.9707 275.18ZM93.853 275.36C92.293 275.36 90.893 274.99 89.653 274.25C88.433 273.49 87.463 272.47 86.743 271.19C86.043 269.91 85.693 268.47 85.693 266.87C85.693 265.27 86.053 263.83 86.773 262.55C87.493 261.27 88.463 260.26 89.683 259.52C90.903 258.78 92.283 258.41 93.823 258.41C95.123 258.41 96.273 258.67 97.273 259.19C98.273 259.71 99.063 260.43 99.643 261.35L99.133 262.13V252.29H102.493V275H99.283V271.7L99.673 272.33C99.113 273.31 98.313 274.06 97.273 274.58C96.233 275.1 95.093 275.36 93.853 275.36ZM94.183 272.21C95.123 272.21 95.963 271.98 96.703 271.52C97.463 271.06 98.053 270.43 98.473 269.63C98.913 268.81 99.133 267.89 99.133 266.87C99.133 265.85 98.913 264.94 98.473 264.14C98.053 263.34 97.463 262.71 96.703 262.25C95.963 261.79 95.123 261.56 94.183 261.56C93.243 261.56 92.393 261.79 91.633 262.25C90.873 262.71 90.283 263.34 89.863 264.14C89.443 264.94 89.233 265.85 89.233 266.87C89.233 267.89 89.443 268.81 89.863 269.63C90.283 270.43 90.863 271.06 91.603 271.52C92.363 271.98 93.223 272.21 94.183 272.21ZM112.811 275.36C111.711 275.36 110.741 275.17 109.901 274.79C109.081 274.39 108.441 273.85 107.981 273.17C107.521 272.47 107.291 271.65 107.291 270.71C107.291 269.83 107.481 269.04 107.861 268.34C108.261 267.64 108.871 267.05 109.691 266.57C110.511 266.09 111.541 265.75 112.781 265.55L118.421 264.62V267.29L113.441 268.16C112.541 268.32 111.881 268.61 111.461 269.03C111.041 269.43 110.831 269.95 110.831 270.59C110.831 271.21 111.061 271.72 111.521 272.12C112.001 272.5 112.611 272.69 113.351 272.69C114.271 272.69 115.071 272.49 115.751 272.09C116.451 271.69 116.991 271.16 117.371 270.5C117.751 269.82 117.941 269.07 117.941 268.25V264.08C117.941 263.28 117.641 262.63 117.041 262.13C116.461 261.61 115.681 261.35 114.701 261.35C113.801 261.35 113.011 261.59 112.331 262.07C111.671 262.53 111.181 263.13 110.861 263.87L108.041 262.46C108.341 261.66 108.831 260.96 109.511 260.36C110.191 259.74 110.981 259.26 111.881 258.92C112.801 258.58 113.771 258.41 114.791 258.41C116.071 258.41 117.201 258.65 118.181 259.13C119.181 259.61 119.951 260.28 120.491 261.14C121.051 261.98 121.331 262.96 121.331 264.08V275H118.091V272.06L118.781 272.15C118.401 272.81 117.911 273.38 117.311 273.86C116.731 274.34 116.061 274.71 115.301 274.97C114.561 275.23 113.731 275.36 112.811 275.36ZM133.521 275.18C131.821 275.18 130.501 274.7 129.561 273.74C128.621 272.78 128.151 271.43 128.151 269.69V261.83H125.301V258.77H125.751C126.511 258.77 127.101 258.55 127.521 258.11C127.941 257.67 128.151 257.07 128.151 256.31V255.05H131.541V258.77H135.231V261.83H131.541V269.54C131.541 270.1 131.631 270.58 131.811 270.98C131.991 271.36 132.281 271.66 132.681 271.88C133.081 272.08 133.601 272.18 134.241 272.18C134.401 272.18 134.581 272.17 134.781 272.15C134.981 272.13 135.171 272.11 135.351 272.09V275C135.071 275.04 134.761 275.08 134.421 275.12C134.081 275.16 133.781 275.18 133.521 275.18ZM147.487 275.36C145.867 275.36 144.427 274.99 143.167 274.25C141.927 273.49 140.957 272.47 140.257 271.19C139.557 269.89 139.207 268.44 139.207 266.84C139.207 265.2 139.557 263.75 140.257 262.49C140.977 261.23 141.937 260.24 143.137 259.52C144.337 258.78 145.697 258.41 147.217 258.41C148.437 258.41 149.527 258.62 150.487 259.04C151.447 259.46 152.257 260.04 152.917 260.78C153.577 261.5 154.077 262.33 154.417 263.27C154.777 264.21 154.957 265.21 154.957 266.27C154.957 266.53 154.947 266.8 154.927 267.08C154.907 267.36 154.867 267.62 154.807 267.86H141.877V265.16H152.887L151.267 266.39C151.467 265.41 151.397 264.54 151.057 263.78C150.737 263 150.237 262.39 149.557 261.95C148.897 261.49 148.117 261.26 147.217 261.26C146.317 261.26 145.517 261.49 144.817 261.95C144.117 262.39 143.577 263.03 143.197 263.87C142.817 264.69 142.667 265.69 142.747 266.87C142.647 267.97 142.797 268.93 143.197 269.75C143.617 270.57 144.197 271.21 144.937 271.67C145.697 272.13 146.557 272.36 147.517 272.36C148.497 272.36 149.327 272.14 150.007 271.7C150.707 271.26 151.257 270.69 151.657 269.99L154.417 271.34C154.097 272.1 153.597 272.79 152.917 273.41C152.257 274.01 151.457 274.49 150.517 274.85C149.597 275.19 148.587 275.36 147.487 275.36ZM173.529 275.18C171.829 275.18 170.509 274.7 169.569 273.74C168.629 272.78 168.159 271.43 168.159 269.69V261.83H165.309V258.77H165.759C166.519 258.77 167.109 258.55 167.529 258.11C167.949 257.67 168.159 257.07 168.159 256.31V255.05H171.549V258.77H175.239V261.83H171.549V269.54C171.549 270.1 171.639 270.58 171.819 270.98C171.999 271.36 172.289 271.66 172.689 271.88C173.089 272.08 173.609 272.18 174.249 272.18C174.409 272.18 174.589 272.17 174.789 272.15C174.989 272.13 175.179 272.11 175.359 272.09V275C175.079 275.04 174.769 275.08 174.429 275.12C174.089 275.16 173.789 275.18 173.529 275.18ZM187.705 275.36C186.145 275.36 184.715 274.99 183.415 274.25C182.135 273.51 181.115 272.5 180.355 271.22C179.595 269.94 179.215 268.49 179.215 266.87C179.215 265.23 179.595 263.78 180.355 262.52C181.115 261.24 182.135 260.24 183.415 259.52C184.695 258.78 186.125 258.41 187.705 258.41C189.305 258.41 190.735 258.78 191.995 259.52C193.275 260.24 194.285 261.24 195.025 262.52C195.785 263.78 196.165 265.23 196.165 266.87C196.165 268.51 195.785 269.97 195.025 271.25C194.265 272.53 193.245 273.54 191.965 274.28C190.685 275 189.265 275.36 187.705 275.36ZM187.705 272.21C188.665 272.21 189.515 271.98 190.255 271.52C190.995 271.06 191.575 270.43 191.995 269.63C192.435 268.81 192.655 267.89 192.655 266.87C192.655 265.85 192.435 264.94 191.995 264.14C191.575 263.34 190.995 262.71 190.255 262.25C189.515 261.79 188.665 261.56 187.705 261.56C186.765 261.56 185.915 261.79 185.155 262.25C184.415 262.71 183.825 263.34 183.385 264.14C182.965 264.94 182.755 265.85 182.755 266.87C182.755 267.89 182.965 268.81 183.385 269.63C183.825 270.43 184.415 271.06 185.155 271.52C185.915 271.98 186.765 272.21 187.705 272.21ZM213.718 275.36C212.058 275.36 210.598 274.95 209.338 274.13C208.098 273.31 207.228 272.21 206.728 270.83L209.338 269.6C209.778 270.52 210.378 271.25 211.138 271.79C211.918 272.33 212.778 272.6 213.718 272.6C214.518 272.6 215.168 272.42 215.668 272.06C216.168 271.7 216.418 271.21 216.418 270.59C216.418 270.19 216.308 269.87 216.088 269.63C215.868 269.37 215.588 269.16 215.248 269C214.928 268.84 214.598 268.72 214.258 268.64L211.708 267.92C210.308 267.52 209.258 266.92 208.558 266.12C207.878 265.3 207.538 264.35 207.538 263.27C207.538 262.29 207.788 261.44 208.288 260.72C208.788 259.98 209.478 259.41 210.358 259.01C211.238 258.61 212.228 258.41 213.328 258.41C214.808 258.41 216.128 258.78 217.288 259.52C218.448 260.24 219.268 261.25 219.748 262.55L217.138 263.78C216.818 263 216.308 262.38 215.608 261.92C214.928 261.46 214.158 261.23 213.298 261.23C212.558 261.23 211.968 261.41 211.528 261.77C211.088 262.11 210.868 262.56 210.868 263.12C210.868 263.5 210.968 263.82 211.168 264.08C211.368 264.32 211.628 264.52 211.948 264.68C212.268 264.82 212.598 264.94 212.938 265.04L215.578 265.82C216.918 266.2 217.948 266.8 218.668 267.62C219.388 268.42 219.748 269.38 219.748 270.5C219.748 271.46 219.488 272.31 218.968 273.05C218.468 273.77 217.768 274.34 216.868 274.76C215.968 275.16 214.918 275.36 213.718 275.36ZM230.36 275.36C229.14 275.36 228.07 275.09 227.15 274.55C226.23 273.99 225.51 273.22 224.99 272.24C224.49 271.24 224.24 270.09 224.24 268.79V258.77H227.63V268.49C227.63 269.23 227.78 269.88 228.08 270.44C228.38 271 228.8 271.44 229.34 271.76C229.88 272.06 230.5 272.21 231.2 272.21C231.92 272.21 232.55 272.05 233.09 271.73C233.63 271.41 234.05 270.96 234.35 270.38C234.67 269.8 234.83 269.12 234.83 268.34V258.77H238.19V275H234.98V271.82L235.34 272.24C234.96 273.24 234.33 274.01 233.45 274.55C232.57 275.09 231.54 275.36 230.36 275.36ZM252.318 275.36C251.058 275.36 249.908 275.1 248.868 274.58C247.848 274.06 247.058 273.31 246.498 272.33L246.888 271.7V275H243.648V252.29H247.038V262.13L246.498 261.35C247.098 260.43 247.898 259.71 248.898 259.19C249.898 258.67 251.038 258.41 252.318 258.41C253.858 258.41 255.238 258.78 256.458 259.52C257.698 260.26 258.668 261.27 259.368 262.55C260.088 263.83 260.448 265.27 260.448 266.87C260.448 268.47 260.088 269.91 259.368 271.19C258.668 272.47 257.708 273.49 256.488 274.25C255.268 274.99 253.878 275.36 252.318 275.36ZM251.988 272.21C252.948 272.21 253.798 271.98 254.538 271.52C255.278 271.06 255.858 270.43 256.278 269.63C256.718 268.81 256.938 267.89 256.938 266.87C256.938 265.85 256.718 264.94 256.278 264.14C255.858 263.34 255.278 262.71 254.538 262.25C253.798 261.79 252.948 261.56 251.988 261.56C251.048 261.56 250.198 261.79 249.438 262.25C248.698 262.71 248.108 263.34 247.668 264.14C247.248 264.94 247.038 265.85 247.038 266.87C247.038 267.89 247.248 268.81 247.668 269.63C248.108 270.43 248.698 271.06 249.438 271.52C250.198 271.98 251.048 272.21 251.988 272.21ZM265.246 275V258.77H268.486V262.28L268.066 261.74C268.406 260.64 269.026 259.81 269.926 259.25C270.826 258.69 271.856 258.41 273.016 258.41C274.316 258.41 275.466 258.76 276.466 259.46C277.486 260.14 278.166 261.05 278.506 262.19L277.546 262.28C278.026 260.98 278.756 260.01 279.736 259.37C280.736 258.73 281.876 258.41 283.156 258.41C284.276 258.41 285.286 258.67 286.186 259.19C287.106 259.71 287.836 260.43 288.376 261.35C288.916 262.27 289.186 263.32 289.186 264.5V275H285.796V265.43C285.796 264.61 285.646 263.92 285.346 263.36C285.066 262.78 284.666 262.34 284.146 262.04C283.646 261.72 283.056 261.56 282.376 261.56C281.696 261.56 281.096 261.72 280.576 262.04C280.056 262.34 279.646 262.78 279.346 263.36C279.046 263.94 278.896 264.63 278.896 265.43V275H275.536V265.43C275.536 264.61 275.386 263.92 275.086 263.36C274.806 262.78 274.406 262.34 273.886 262.04C273.386 261.72 272.786 261.56 272.086 261.56C271.406 261.56 270.806 261.72 270.286 262.04C269.766 262.34 269.356 262.78 269.056 263.36C268.776 263.94 268.636 264.63 268.636 265.43V275H265.246ZM294.314 275V258.77H297.704V275H294.314ZM294.314 256.55V252.65H297.704V256.55H294.314ZM310.188 275.18C308.488 275.18 307.168 274.7 306.228 273.74C305.288 272.78 304.818 271.43 304.818 269.69V261.83H301.968V258.77H302.418C303.178 258.77 303.768 258.55 304.188 258.11C304.608 257.67 304.818 257.07 304.818 256.31V255.05H308.208V258.77H311.898V261.83H308.208V269.54C308.208 270.1 308.298 270.58 308.478 270.98C308.658 271.36 308.948 271.66 309.348 271.88C309.748 272.08 310.268 272.18 310.908 272.18C311.068 272.18 311.248 272.17 311.448 272.15C311.648 272.13 311.838 272.11 312.018 272.09V275C311.738 275.04 311.428 275.08 311.088 275.12C310.748 275.16 310.448 275.18 310.188 275.18ZM323.57 281V258.77H326.81V262.13L326.42 261.35C327.02 260.43 327.82 259.71 328.82 259.19C329.82 258.67 330.96 258.41 332.24 258.41C333.78 258.41 335.16 258.78 336.38 259.52C337.62 260.26 338.59 261.27 339.29 262.55C340.01 263.83 340.37 265.27 340.37 266.87C340.37 268.47 340.01 269.91 339.29 271.19C338.59 272.47 337.63 273.49 336.41 274.25C335.19 274.99 333.8 275.36 332.24 275.36C330.98 275.36 329.83 275.1 328.79 274.58C327.77 274.06 326.98 273.31 326.42 272.33L326.96 271.7V281H323.57ZM331.91 272.21C332.87 272.21 333.72 271.98 334.46 271.52C335.2 271.06 335.78 270.43 336.2 269.63C336.64 268.81 336.86 267.89 336.86 266.87C336.86 265.85 336.64 264.94 336.2 264.14C335.78 263.34 335.2 262.71 334.46 262.25C333.72 261.79 332.87 261.56 331.91 261.56C330.97 261.56 330.12 261.79 329.36 262.25C328.62 262.71 328.03 263.34 327.59 264.14C327.17 264.94 326.96 265.85 326.96 266.87C326.96 267.89 327.17 268.81 327.59 269.63C328.03 270.43 328.62 271.06 329.36 271.52C330.12 271.98 330.97 272.21 331.91 272.21ZM350.028 275.36C348.928 275.36 347.958 275.17 347.118 274.79C346.298 274.39 345.658 273.85 345.198 273.17C344.738 272.47 344.508 271.65 344.508 270.71C344.508 269.83 344.698 269.04 345.078 268.34C345.478 267.64 346.088 267.05 346.908 266.57C347.728 266.09 348.758 265.75 349.998 265.55L355.638 264.62V267.29L350.658 268.16C349.758 268.32 349.098 268.61 348.678 269.03C348.258 269.43 348.048 269.95 348.048 270.59C348.048 271.21 348.278 271.72 348.738 272.12C349.218 272.5 349.828 272.69 350.568 272.69C351.488 272.69 352.288 272.49 352.968 272.09C353.668 271.69 354.208 271.16 354.588 270.5C354.968 269.82 355.158 269.07 355.158 268.25V264.08C355.158 263.28 354.858 262.63 354.258 262.13C353.678 261.61 352.898 261.35 351.918 261.35C351.018 261.35 350.228 261.59 349.548 262.07C348.888 262.53 348.398 263.13 348.078 263.87L345.258 262.46C345.558 261.66 346.048 260.96 346.728 260.36C347.408 259.74 348.198 259.26 349.098 258.92C350.018 258.58 350.988 258.41 352.007 258.41C353.288 258.41 354.418 258.65 355.398 259.13C356.398 259.61 357.168 260.28 357.708 261.14C358.268 261.98 358.548 262.96 358.548 264.08V275H355.308V272.06L355.998 272.15C355.618 272.81 355.128 273.38 354.528 273.86C353.948 274.34 353.278 274.71 352.518 274.97C351.778 275.23 350.948 275.36 350.028 275.36ZM364.011 281V258.77H367.251V262.13L366.861 261.35C367.461 260.43 368.261 259.71 369.261 259.19C370.261 258.67 371.401 258.41 372.681 258.41C374.221 258.41 375.601 258.78 376.821 259.52C378.061 260.26 379.031 261.27 379.731 262.55C380.451 263.83 380.811 265.27 380.811 266.87C380.811 268.47 380.451 269.91 379.731 271.19C379.031 272.47 378.071 273.49 376.851 274.25C375.631 274.99 374.241 275.36 372.681 275.36C371.421 275.36 370.271 275.1 369.231 274.58C368.211 274.06 367.421 273.31 366.861 272.33L367.401 271.7V281H364.011ZM372.351 272.21C373.311 272.21 374.161 271.98 374.901 271.52C375.641 271.06 376.221 270.43 376.641 269.63C377.081 268.81 377.301 267.89 377.301 266.87C377.301 265.85 377.081 264.94 376.641 264.14C376.221 263.34 375.641 262.71 374.901 262.25C374.161 261.79 373.311 261.56 372.351 261.56C371.411 261.56 370.561 261.79 369.801 262.25C369.061 262.71 368.471 263.34 368.031 264.14C367.611 264.94 367.401 265.85 367.401 266.87C367.401 267.89 367.611 268.81 368.031 269.63C368.471 270.43 369.061 271.06 369.801 271.52C370.561 271.98 371.411 272.21 372.351 272.21ZM393.229 275.36C391.609 275.36 390.169 274.99 388.909 274.25C387.669 273.49 386.699 272.47 385.999 271.19C385.299 269.89 384.949 268.44 384.949 266.84C384.949 265.2 385.299 263.75 385.999 262.49C386.719 261.23 387.679 260.24 388.879 259.52C390.079 258.78 391.439 258.41 392.959 258.41C394.179 258.41 395.269 258.62 396.229 259.04C397.189 259.46 397.999 260.04 398.659 260.78C399.319 261.5 399.819 262.33 400.159 263.27C400.519 264.21 400.699 265.21 400.699 266.27C400.699 266.53 400.689 266.8 400.669 267.08C400.649 267.36 400.609 267.62 400.549 267.86H387.619V265.16H398.629L397.009 266.39C397.209 265.41 397.139 264.54 396.799 263.78C396.479 263 395.979 262.39 395.299 261.95C394.639 261.49 393.859 261.26 392.959 261.26C392.059 261.26 391.259 261.49 390.559 261.95C389.859 262.39 389.319 263.03 388.939 263.87C388.559 264.69 388.409 265.69 388.489 266.87C388.389 267.97 388.539 268.93 388.939 269.75C389.359 270.57 389.939 271.21 390.679 271.67C391.439 272.13 392.299 272.36 393.259 272.36C394.239 272.36 395.069 272.14 395.749 271.7C396.449 271.26 396.999 270.69 397.399 269.99L400.159 271.34C399.839 272.1 399.339 272.79 398.659 273.41C397.999 274.01 397.199 274.49 396.259 274.85C395.339 275.19 394.329 275.36 393.229 275.36ZM405.507 275V258.77H408.747V262.04L408.447 261.56C408.807 260.5 409.387 259.74 410.187 259.28C410.987 258.8 411.947 258.56 413.067 258.56H414.057V261.65H412.647C411.527 261.65 410.617 262 409.917 262.7C409.237 263.38 408.897 264.36 408.897 265.64V275H405.507Z" fill="#00272D"/>
<line x1="596" y1="219" x2="419" y2="219" stroke="#00272D" stroke-width="4"/>
<path d="M411 219L420.75 223.763V214.237L411 219Z" fill="#00272D"/>
<path d="M709 672V973.239L641 1043V742.395L709 672Z" fill="#00272D"/>
<path d="M562 673V973.427L630 1043V743.205L562 673Z" fill="#00272D"/>
<circle cx="640" cy="867" r="35" transform="rotate(90 640 867)" fill="white"/>
<circle cx="640.5" cy="866.5" r="27.5" transform="rotate(90 640.5 866.5)" fill="#00272D"/>
<circle cx="640.5" cy="866.5" r="22.5" transform="rotate(90 640.5 866.5)" fill="white"/>
<path d="M98.16 885.48C95.7867 885.48 93.7067 884.84 91.92 883.56C90.1333 882.28 88.7333 880.48 87.72 878.16C86.7333 875.84 86.24 873.147 86.24 870.08C86.24 866.987 86.7333 864.293 87.72 862C88.7067 859.707 90.0933 857.92 91.88 856.64C93.6667 855.36 95.7467 854.72 98.12 854.72C100.547 854.72 102.64 855.36 104.4 856.64C106.187 857.92 107.587 859.72 108.6 862.04C109.613 864.333 110.12 867.013 110.12 870.08C110.12 873.147 109.613 875.84 108.6 878.16C107.613 880.453 106.227 882.253 104.44 883.56C102.653 884.84 100.56 885.48 98.16 885.48ZM98.2 880.52C99.56 880.52 100.72 880.107 101.68 879.28C102.64 878.427 103.373 877.227 103.88 875.68C104.413 874.107 104.68 872.24 104.68 870.08C104.68 867.92 104.413 866.067 103.88 864.52C103.373 862.947 102.627 861.747 101.64 860.92C100.68 860.093 99.5067 859.68 98.12 859.68C96.7867 859.68 95.64 860.093 94.68 860.92C93.72 861.747 92.9733 862.947 92.44 864.52C91.9333 866.067 91.68 867.92 91.68 870.08C91.68 872.213 91.9333 874.067 92.44 875.64C92.9733 877.187 93.72 878.387 94.68 879.24C95.6667 880.093 96.84 880.52 98.2 880.52ZM128.2 885.48C126.627 885.48 125.12 885.187 123.68 884.6C122.267 884.013 121.04 883.187 120 882.12C118.987 881.027 118.294 879.733 117.92 878.24L122.64 876.56C123.094 877.92 123.827 878.933 124.84 879.6C125.854 880.24 126.974 880.56 128.2 880.56C129.214 880.56 130.107 880.347 130.88 879.92C131.68 879.467 132.294 878.853 132.72 878.08C133.147 877.28 133.36 876.36 133.36 875.32C133.36 874.28 133.134 873.373 132.68 872.6C132.254 871.827 131.654 871.227 130.88 870.8C130.107 870.347 129.214 870.12 128.2 870.12C127.16 870.12 126.214 870.347 125.36 870.8C124.534 871.253 123.934 871.907 123.56 872.76L119.12 871.76L121.48 855.2H137.72V859.8H123.64L125.68 857.44L124 869.92L122.44 868.64C123.187 867.547 124.094 866.747 125.16 866.24C126.254 865.733 127.574 865.48 129.12 865.48C131.094 865.48 132.8 865.907 134.24 866.76C135.707 867.613 136.84 868.773 137.64 870.24C138.44 871.707 138.84 873.4 138.84 875.32C138.84 877.24 138.374 878.973 137.44 880.52C136.507 882.067 135.24 883.28 133.64 884.16C132.04 885.04 130.227 885.48 128.2 885.48ZM156.479 885L166.759 855.2H173.799L184.079 885H178.159L176.039 878.6H164.519L162.359 885H156.479ZM166.079 873.8H174.479L169.519 858.96H171.039L166.079 873.8ZM190.956 893V863.24H195.876V867.56L195.396 866.48C196.142 865.307 197.156 864.4 198.436 863.76C199.716 863.093 201.196 862.76 202.876 862.76C204.929 862.76 206.782 863.267 208.436 864.28C210.089 865.293 211.396 866.653 212.356 868.36C213.342 870.067 213.836 871.987 213.836 874.12C213.836 876.227 213.356 878.147 212.396 879.88C211.436 881.613 210.129 882.987 208.476 884C206.822 884.987 204.942 885.48 202.836 885.48C201.262 885.48 199.809 885.173 198.476 884.56C197.169 883.92 196.129 883.013 195.356 881.84L196.196 880.8V893H190.956ZM202.236 880.68C203.436 880.68 204.502 880.4 205.436 879.84C206.369 879.28 207.089 878.507 207.596 877.52C208.129 876.533 208.396 875.4 208.396 874.12C208.396 872.84 208.129 871.72 207.596 870.76C207.089 869.773 206.369 869 205.436 868.44C204.502 867.853 203.436 867.56 202.236 867.56C201.089 867.56 200.049 867.84 199.116 868.4C198.209 868.96 197.489 869.747 196.956 870.76C196.449 871.747 196.196 872.867 196.196 874.12C196.196 875.4 196.449 876.533 196.956 877.52C197.489 878.507 198.209 879.28 199.116 879.84C200.049 880.4 201.089 880.68 202.236 880.68ZM221.831 885V863.24H226.751V868.08L226.351 867.36C226.857 865.733 227.644 864.6 228.711 863.96C229.804 863.32 231.111 863 232.631 863H233.911V867.64H232.031C230.537 867.64 229.337 868.107 228.431 869.04C227.524 869.947 227.071 871.227 227.071 872.88V885H221.831ZM240.792 885V863.24H246.032V885H240.792ZM240.792 860.8V855.2H246.032V860.8H240.792ZM254.87 885V854.72H260.11V885H254.87ZM279.457 885V880.88L287.537 872.44C289.137 870.76 290.364 869.427 291.217 868.44C292.097 867.427 292.711 866.56 293.057 865.84C293.404 865.12 293.577 864.387 293.577 863.64C293.577 862.387 293.177 861.4 292.377 860.68C291.604 859.96 290.604 859.6 289.377 859.6C288.097 859.6 286.991 859.973 286.057 860.72C285.124 861.44 284.444 862.507 284.017 863.92L279.257 862.44C279.577 860.867 280.231 859.507 281.217 858.36C282.204 857.187 283.404 856.293 284.817 855.68C286.257 855.04 287.777 854.72 289.377 854.72C291.297 854.72 292.977 855.067 294.417 855.76C295.884 856.453 297.017 857.427 297.817 858.68C298.644 859.933 299.057 861.4 299.057 863.08C299.057 864.147 298.857 865.2 298.457 866.24C298.057 867.28 297.457 868.347 296.657 869.44C295.857 870.507 294.817 871.707 293.537 873.04L286.537 880.4H299.457V885H279.457ZM319.644 885.48C317.271 885.48 315.191 884.84 313.404 883.56C311.618 882.28 310.218 880.48 309.204 878.16C308.218 875.84 307.724 873.147 307.724 870.08C307.724 866.987 308.218 864.293 309.204 862C310.191 859.707 311.578 857.92 313.364 856.64C315.151 855.36 317.231 854.72 319.604 854.72C322.031 854.72 324.124 855.36 325.884 856.64C327.671 857.92 329.071 859.72 330.084 862.04C331.098 864.333 331.604 867.013 331.604 870.08C331.604 873.147 331.098 875.84 330.084 878.16C329.098 880.453 327.711 882.253 325.924 883.56C324.138 884.84 322.044 885.48 319.644 885.48ZM319.684 880.52C321.044 880.52 322.204 880.107 323.164 879.28C324.124 878.427 324.858 877.227 325.364 875.68C325.898 874.107 326.164 872.24 326.164 870.08C326.164 867.92 325.898 866.067 325.364 864.52C324.858 862.947 324.111 861.747 323.124 860.92C322.164 860.093 320.991 859.68 319.604 859.68C318.271 859.68 317.124 860.093 316.164 860.92C315.204 861.747 314.458 862.947 313.924 864.52C313.418 866.067 313.164 867.92 313.164 870.08C313.164 872.213 313.418 874.067 313.924 875.64C314.458 877.187 315.204 878.387 316.164 879.24C317.151 880.093 318.324 880.52 319.684 880.52ZM339.645 885V880.88L347.725 872.44C349.325 870.76 350.551 869.427 351.405 868.44C352.285 867.427 352.898 866.56 353.245 865.84C353.591 865.12 353.765 864.387 353.765 863.64C353.765 862.387 353.365 861.4 352.565 860.68C351.791 859.96 350.791 859.6 349.565 859.6C348.285 859.6 347.178 859.973 346.245 860.72C345.311 861.44 344.631 862.507 344.205 863.92L339.445 862.44C339.765 860.867 340.418 859.507 341.405 858.36C342.391 857.187 343.591 856.293 345.005 855.68C346.445 855.04 347.965 854.72 349.565 854.72C351.485 854.72 353.165 855.067 354.605 855.76C356.071 856.453 357.205 857.427 358.005 858.68C358.831 859.933 359.245 861.4 359.245 863.08C359.245 864.147 359.045 865.2 358.645 866.24C358.245 867.28 357.645 868.347 356.845 869.44C356.045 870.507 355.005 871.707 353.725 873.04L346.725 880.4H359.645V885H339.645ZM380.401 885V878.44H366.721V873.88L380.081 855.2H385.761V873.88H390.121V878.44H385.761V885H380.401ZM370.721 875.84L369.761 873.88H380.401V859.48L381.801 859.92L370.721 875.84Z" fill="#00272D"/>
<path d="M93.2259 933.36C91.6459 933.36 90.1759 933.07 88.8159 932.49C87.4759 931.91 86.3059 931.11 85.3059 930.09C84.3259 929.05 83.5559 927.83 82.9959 926.43C82.4359 925.03 82.1559 923.49 82.1559 921.81C82.1559 920.15 82.4259 918.62 82.9659 917.22C83.5259 915.8 84.3059 914.58 85.3059 913.56C86.3059 912.52 87.4759 911.72 88.8159 911.16C90.1559 910.58 91.6259 910.29 93.2259 910.29C94.8059 910.29 96.2159 910.56 97.4559 911.1C98.7159 911.64 99.7759 912.35 100.636 913.23C101.496 914.09 102.116 915.03 102.496 916.05L99.3159 917.55C98.8359 916.35 98.0659 915.38 97.0059 914.64C95.9659 913.88 94.7059 913.5 93.2259 913.5C91.7459 913.5 90.4359 913.85 89.2959 914.55C88.1559 915.25 87.2659 916.22 86.6259 917.46C86.0059 918.7 85.6959 920.15 85.6959 921.81C85.6959 923.47 86.0059 924.93 86.6259 926.19C87.2659 927.43 88.1559 928.4 89.2959 929.1C90.4359 929.78 91.7459 930.12 93.2259 930.12C94.7059 930.12 95.9659 929.75 97.0059 929.01C98.0659 928.27 98.8359 927.3 99.3159 926.1L102.496 927.6C102.116 928.6 101.496 929.54 100.636 930.42C99.7759 931.3 98.7159 932.01 97.4559 932.55C96.2159 933.09 94.8059 933.36 93.2259 933.36ZM111.873 933.36C110.773 933.36 109.803 933.17 108.963 932.79C108.143 932.39 107.503 931.85 107.043 931.17C106.583 930.47 106.353 929.65 106.353 928.71C106.353 927.83 106.543 927.04 106.923 926.34C107.323 925.64 107.933 925.05 108.753 924.57C109.573 924.09 110.603 923.75 111.843 923.55L117.483 922.62V925.29L112.503 926.16C111.603 926.32 110.943 926.61 110.523 927.03C110.103 927.43 109.893 927.95 109.893 928.59C109.893 929.21 110.123 929.72 110.583 930.12C111.063 930.5 111.673 930.69 112.413 930.69C113.333 930.69 114.133 930.49 114.813 930.09C115.513 929.69 116.053 929.16 116.433 928.5C116.813 927.82 117.003 927.07 117.003 926.25V922.08C117.003 921.28 116.703 920.63 116.103 920.13C115.523 919.61 114.743 919.35 113.763 919.35C112.863 919.35 112.073 919.59 111.393 920.07C110.733 920.53 110.243 921.13 109.923 921.87L107.103 920.46C107.403 919.66 107.893 918.96 108.573 918.36C109.253 917.74 110.043 917.26 110.943 916.92C111.863 916.58 112.833 916.41 113.853 916.41C115.133 916.41 116.263 916.65 117.243 917.13C118.243 917.61 119.013 918.28 119.553 919.14C120.113 919.98 120.393 920.96 120.393 922.08V933H117.153V930.06L117.843 930.15C117.463 930.81 116.973 931.38 116.373 931.86C115.793 932.34 115.123 932.71 114.363 932.97C113.623 933.23 112.793 933.36 111.873 933.36ZM125.857 933V916.77H129.097V920.28L128.677 919.74C129.017 918.64 129.637 917.81 130.537 917.25C131.437 916.69 132.467 916.41 133.627 916.41C134.927 916.41 136.077 916.76 137.077 917.46C138.097 918.14 138.777 919.05 139.117 920.19L138.157 920.28C138.637 918.98 139.367 918.01 140.347 917.37C141.347 916.73 142.487 916.41 143.767 916.41C144.887 916.41 145.897 916.67 146.797 917.19C147.717 917.71 148.447 918.43 148.987 919.35C149.527 920.27 149.797 921.32 149.797 922.5V933H146.407V923.43C146.407 922.61 146.257 921.92 145.957 921.36C145.677 920.78 145.277 920.34 144.757 920.04C144.257 919.72 143.667 919.56 142.987 919.56C142.307 919.56 141.707 919.72 141.187 920.04C140.667 920.34 140.257 920.78 139.957 921.36C139.657 921.94 139.507 922.63 139.507 923.43V933H136.147V923.43C136.147 922.61 135.997 921.92 135.697 921.36C135.417 920.78 135.017 920.34 134.497 920.04C133.997 919.72 133.397 919.56 132.697 919.56C132.017 919.56 131.417 919.72 130.897 920.04C130.377 920.34 129.967 920.78 129.667 921.36C129.387 921.94 129.247 922.63 129.247 923.43V933H125.857ZM162.545 933.36C160.925 933.36 159.485 932.99 158.225 932.25C156.985 931.49 156.015 930.47 155.315 929.19C154.615 927.89 154.265 926.44 154.265 924.84C154.265 923.2 154.615 921.75 155.315 920.49C156.035 919.23 156.995 918.24 158.195 917.52C159.395 916.78 160.755 916.41 162.275 916.41C163.495 916.41 164.585 916.62 165.545 917.04C166.505 917.46 167.315 918.04 167.975 918.78C168.635 919.5 169.135 920.33 169.475 921.27C169.835 922.21 170.015 923.21 170.015 924.27C170.015 924.53 170.005 924.8 169.985 925.08C169.965 925.36 169.925 925.62 169.865 925.86H156.935V923.16H167.945L166.325 924.39C166.525 923.41 166.455 922.54 166.115 921.78C165.795 921 165.295 920.39 164.615 919.95C163.955 919.49 163.175 919.26 162.275 919.26C161.375 919.26 160.575 919.49 159.875 919.95C159.175 920.39 158.635 921.03 158.255 921.87C157.875 922.69 157.725 923.69 157.805 924.87C157.705 925.97 157.855 926.93 158.255 927.75C158.675 928.57 159.255 929.21 159.995 929.67C160.755 930.13 161.615 930.36 162.575 930.36C163.555 930.36 164.385 930.14 165.065 929.7C165.765 929.26 166.315 928.69 166.715 927.99L169.475 929.34C169.155 930.1 168.655 930.79 167.975 931.41C167.315 932.01 166.515 932.49 165.575 932.85C164.655 933.19 163.645 933.36 162.545 933.36ZM174.824 933V916.77H178.064V920.04L177.764 919.56C178.124 918.5 178.704 917.74 179.504 917.28C180.304 916.8 181.264 916.56 182.384 916.56H183.374V919.65H181.964C180.844 919.65 179.934 920 179.234 920.7C178.554 921.38 178.214 922.36 178.214 923.64V933H174.824ZM192.053 933.36C190.953 933.36 189.983 933.17 189.143 932.79C188.323 932.39 187.683 931.85 187.223 931.17C186.763 930.47 186.533 929.65 186.533 928.71C186.533 927.83 186.723 927.04 187.103 926.34C187.503 925.64 188.113 925.05 188.933 924.57C189.753 924.09 190.783 923.75 192.023 923.55L197.663 922.62V925.29L192.683 926.16C191.783 926.32 191.123 926.61 190.703 927.03C190.283 927.43 190.073 927.95 190.073 928.59C190.073 929.21 190.303 929.72 190.763 930.12C191.243 930.5 191.853 930.69 192.593 930.69C193.513 930.69 194.313 930.49 194.993 930.09C195.693 929.69 196.233 929.16 196.613 928.5C196.993 927.82 197.183 927.07 197.183 926.25V922.08C197.183 921.28 196.883 920.63 196.283 920.13C195.703 919.61 194.923 919.35 193.943 919.35C193.043 919.35 192.253 919.59 191.573 920.07C190.913 920.53 190.423 921.13 190.103 921.87L187.283 920.46C187.583 919.66 188.073 918.96 188.753 918.36C189.433 917.74 190.223 917.26 191.123 916.92C192.043 916.58 193.013 916.41 194.033 916.41C195.313 916.41 196.443 916.65 197.423 917.13C198.423 917.61 199.193 918.28 199.733 919.14C200.293 919.98 200.573 920.96 200.573 922.08V933H197.333V930.06L198.023 930.15C197.643 930.81 197.153 931.38 196.553 931.86C195.973 932.34 195.303 932.71 194.543 932.97C193.803 933.23 192.973 933.36 192.053 933.36ZM212.781 933V916.77H216.021V920.04L215.721 919.56C216.081 918.5 216.661 917.74 217.461 917.28C218.261 916.8 219.221 916.56 220.341 916.56H221.331V919.65H219.921C218.801 919.65 217.891 920 217.191 920.7C216.511 921.38 216.171 922.36 216.171 923.64V933H212.781ZM232.77 933.36C231.15 933.36 229.71 932.99 228.45 932.25C227.21 931.49 226.24 930.47 225.54 929.19C224.84 927.89 224.49 926.44 224.49 924.84C224.49 923.2 224.84 921.75 225.54 920.49C226.26 919.23 227.22 918.24 228.42 917.52C229.62 916.78 230.98 916.41 232.5 916.41C233.72 916.41 234.81 916.62 235.77 917.04C236.73 917.46 237.54 918.04 238.2 918.78C238.86 919.5 239.36 920.33 239.7 921.27C240.06 922.21 240.24 923.21 240.24 924.27C240.24 924.53 240.23 924.8 240.21 925.08C240.19 925.36 240.15 925.62 240.09 925.86H227.16V923.16H238.17L236.55 924.39C236.75 923.41 236.68 922.54 236.34 921.78C236.02 921 235.52 920.39 234.84 919.95C234.18 919.49 233.4 919.26 232.5 919.26C231.6 919.26 230.8 919.49 230.1 919.95C229.4 920.39 228.86 921.03 228.48 921.87C228.1 922.69 227.95 923.69 228.03 924.87C227.93 925.97 228.08 926.93 228.48 927.75C228.9 928.57 229.48 929.21 230.22 929.67C230.98 930.13 231.84 930.36 232.8 930.36C233.78 930.36 234.61 930.14 235.29 929.7C235.99 929.26 236.54 928.69 236.94 927.99L239.7 929.34C239.38 930.1 238.88 930.79 238.2 931.41C237.54 932.01 236.74 932.49 235.8 932.85C234.88 933.19 233.87 933.36 232.77 933.36ZM249.762 933.36C248.662 933.36 247.692 933.17 246.852 932.79C246.032 932.39 245.392 931.85 244.932 931.17C244.472 930.47 244.242 929.65 244.242 928.71C244.242 927.83 244.432 927.04 244.812 926.34C245.212 925.64 245.822 925.05 246.642 924.57C247.462 924.09 248.492 923.75 249.732 923.55L255.372 922.62V925.29L250.392 926.16C249.492 926.32 248.832 926.61 248.412 927.03C247.992 927.43 247.782 927.95 247.782 928.59C247.782 929.21 248.012 929.72 248.472 930.12C248.952 930.5 249.562 930.69 250.302 930.69C251.222 930.69 252.022 930.49 252.702 930.09C253.402 929.69 253.942 929.16 254.322 928.5C254.702 927.82 254.892 927.07 254.892 926.25V922.08C254.892 921.28 254.592 920.63 253.992 920.13C253.412 919.61 252.632 919.35 251.652 919.35C250.752 919.35 249.962 919.59 249.282 920.07C248.622 920.53 248.132 921.13 247.812 921.87L244.992 920.46C245.292 919.66 245.782 918.96 246.462 918.36C247.142 917.74 247.932 917.26 248.832 916.92C249.752 916.58 250.722 916.41 251.742 916.41C253.022 916.41 254.152 916.65 255.132 917.13C256.132 917.61 256.902 918.28 257.442 919.14C258.002 919.98 258.282 920.96 258.282 922.08V933H255.042V930.06L255.732 930.15C255.352 930.81 254.862 931.38 254.262 931.86C253.682 932.34 253.012 932.71 252.252 932.97C251.512 933.23 250.682 933.36 249.762 933.36ZM271.246 933.36C269.686 933.36 268.286 932.99 267.046 932.25C265.826 931.49 264.856 930.47 264.136 929.19C263.436 927.91 263.086 926.47 263.086 924.87C263.086 923.27 263.446 921.83 264.166 920.55C264.886 919.27 265.856 918.26 267.076 917.52C268.296 916.78 269.676 916.41 271.216 916.41C272.516 916.41 273.666 916.67 274.666 917.19C275.666 917.71 276.456 918.43 277.036 919.35L276.526 920.13V910.29H279.886V933H276.676V929.7L277.066 930.33C276.506 931.31 275.706 932.06 274.666 932.58C273.626 933.1 272.486 933.36 271.246 933.36ZM271.576 930.21C272.516 930.21 273.356 929.98 274.096 929.52C274.856 929.06 275.446 928.43 275.866 927.63C276.306 926.81 276.526 925.89 276.526 924.87C276.526 923.85 276.306 922.94 275.866 922.14C275.446 921.34 274.856 920.71 274.096 920.25C273.356 919.79 272.516 919.56 271.576 919.56C270.636 919.56 269.786 919.79 269.026 920.25C268.266 920.71 267.676 921.34 267.256 922.14C266.836 922.94 266.626 923.85 266.626 924.87C266.626 925.89 266.836 926.81 267.256 927.63C267.676 928.43 268.256 929.06 268.996 929.52C269.756 929.98 270.616 930.21 271.576 930.21ZM286.783 939.63C286.383 939.63 285.983 939.59 285.583 939.51C285.203 939.45 284.853 939.35 284.533 939.21V936.3C284.773 936.36 285.063 936.41 285.403 936.45C285.743 936.51 286.073 936.54 286.393 936.54C287.333 936.54 288.023 936.33 288.463 935.91C288.923 935.51 289.333 934.88 289.693 934.02L290.773 931.56L290.713 934.41L283.693 916.77H287.323L292.513 930.3H291.283L296.443 916.77H300.103L292.933 934.77C292.553 935.73 292.073 936.57 291.493 937.29C290.933 938.03 290.263 938.6 289.483 939C288.723 939.42 287.823 939.63 286.783 939.63ZM310.667 939V916.77H313.908V920.13L313.518 919.35C314.118 918.43 314.918 917.71 315.918 917.19C316.918 916.67 318.058 916.41 319.338 916.41C320.878 916.41 322.258 916.78 323.478 917.52C324.718 918.26 325.688 919.27 326.388 920.55C327.108 921.83 327.468 923.27 327.468 924.87C327.468 926.47 327.108 927.91 326.388 929.19C325.688 930.47 324.728 931.49 323.508 932.25C322.288 932.99 320.898 933.36 319.338 933.36C318.078 933.36 316.928 933.1 315.888 932.58C314.868 932.06 314.078 931.31 313.518 930.33L314.058 929.7V939H310.667ZM319.008 930.21C319.968 930.21 320.818 929.98 321.558 929.52C322.298 929.06 322.878 928.43 323.298 927.63C323.738 926.81 323.958 925.89 323.958 924.87C323.958 923.85 323.738 922.94 323.298 922.14C322.878 921.34 322.298 920.71 321.558 920.25C320.818 919.79 319.968 919.56 319.008 919.56C318.068 919.56 317.218 919.79 316.458 920.25C315.718 920.71 315.128 921.34 314.688 922.14C314.268 922.94 314.058 923.85 314.058 924.87C314.058 925.89 314.268 926.81 314.688 927.63C315.128 928.43 315.718 929.06 316.458 929.52C317.218 929.98 318.068 930.21 319.008 930.21ZM337.125 933.36C336.025 933.36 335.055 933.17 334.215 932.79C333.395 932.39 332.755 931.85 332.295 931.17C331.835 930.47 331.605 929.65 331.605 928.71C331.605 927.83 331.795 927.04 332.175 926.34C332.575 925.64 333.185 925.05 334.005 924.57C334.825 924.09 335.855 923.75 337.095 923.55L342.735 922.62V925.29L337.755 926.16C336.855 926.32 336.195 926.61 335.775 927.03C335.355 927.43 335.145 927.95 335.145 928.59C335.145 929.21 335.375 929.72 335.835 930.12C336.315 930.5 336.925 930.69 337.665 930.69C338.585 930.69 339.385 930.49 340.065 930.09C340.765 929.69 341.305 929.16 341.685 928.5C342.065 927.82 342.255 927.07 342.255 926.25V922.08C342.255 921.28 341.955 920.63 341.355 920.13C340.775 919.61 339.995 919.35 339.015 919.35C338.115 919.35 337.325 919.59 336.645 920.07C335.985 920.53 335.495 921.13 335.175 921.87L332.355 920.46C332.655 919.66 333.145 918.96 333.825 918.36C334.505 917.74 335.295 917.26 336.195 916.92C337.115 916.58 338.085 916.41 339.105 916.41C340.385 916.41 341.515 916.65 342.495 917.13C343.495 917.61 344.265 918.28 344.805 919.14C345.365 919.98 345.645 920.96 345.645 922.08V933H342.405V930.06L343.095 930.15C342.715 930.81 342.225 931.38 341.625 931.86C341.045 932.34 340.375 932.71 339.615 932.97C338.875 933.23 338.045 933.36 337.125 933.36ZM351.109 939V916.77H354.349V920.13L353.959 919.35C354.559 918.43 355.359 917.71 356.359 917.19C357.359 916.67 358.499 916.41 359.779 916.41C361.319 916.41 362.699 916.78 363.919 917.52C365.159 918.26 366.129 919.27 366.829 920.55C367.549 921.83 367.909 923.27 367.909 924.87C367.909 926.47 367.549 927.91 366.829 929.19C366.129 930.47 365.169 931.49 363.949 932.25C362.729 932.99 361.339 933.36 359.779 933.36C358.519 933.36 357.369 933.1 356.329 932.58C355.309 932.06 354.519 931.31 353.959 930.33L354.499 929.7V939H351.109ZM359.449 930.21C360.409 930.21 361.259 929.98 361.999 929.52C362.739 929.06 363.319 928.43 363.739 927.63C364.179 926.81 364.399 925.89 364.399 924.87C364.399 923.85 364.179 922.94 363.739 922.14C363.319 921.34 362.739 920.71 361.999 920.25C361.259 919.79 360.409 919.56 359.449 919.56C358.509 919.56 357.659 919.79 356.899 920.25C356.159 920.71 355.569 921.34 355.129 922.14C354.709 922.94 354.499 923.85 354.499 924.87C354.499 925.89 354.709 926.81 355.129 927.63C355.569 928.43 356.159 929.06 356.899 929.52C357.659 929.98 358.509 930.21 359.449 930.21ZM380.327 933.36C378.707 933.36 377.267 932.99 376.007 932.25C374.767 931.49 373.797 930.47 373.097 929.19C372.397 927.89 372.047 926.44 372.047 924.84C372.047 923.2 372.397 921.75 373.097 920.49C373.817 919.23 374.777 918.24 375.977 917.52C377.177 916.78 378.537 916.41 380.057 916.41C381.277 916.41 382.367 916.62 383.327 917.04C384.287 917.46 385.097 918.04 385.757 918.78C386.417 919.5 386.917 920.33 387.257 921.27C387.617 922.21 387.797 923.21 387.797 924.27C387.797 924.53 387.787 924.8 387.767 925.08C387.747 925.36 387.707 925.62 387.647 925.86H374.717V923.16H385.727L384.107 924.39C384.307 923.41 384.237 922.54 383.897 921.78C383.577 921 383.077 920.39 382.397 919.95C381.737 919.49 380.957 919.26 380.057 919.26C379.157 919.26 378.357 919.49 377.657 919.95C376.957 920.39 376.417 921.03 376.037 921.87C375.657 922.69 375.507 923.69 375.587 924.87C375.487 925.97 375.637 926.93 376.037 927.75C376.457 928.57 377.037 929.21 377.777 929.67C378.537 930.13 379.397 930.36 380.357 930.36C381.337 930.36 382.167 930.14 382.847 929.7C383.547 929.26 384.097 928.69 384.497 927.99L387.257 929.34C386.937 930.1 386.437 930.79 385.757 931.41C385.097 932.01 384.297 932.49 383.357 932.85C382.437 933.19 381.427 933.36 380.327 933.36ZM392.605 933V916.77H395.845V920.04L395.545 919.56C395.905 918.5 396.485 917.74 397.285 917.28C398.085 916.8 399.045 916.56 400.165 916.56H401.155V919.65H399.745C398.625 919.65 397.715 920 397.015 920.7C396.335 921.38 395.995 922.36 395.995 923.64V933H392.605Z" fill="#00272D"/>
<line x1="596" y1="869" x2="419" y2="869" stroke="#00272D" stroke-width="4"/>
<path d="M411 869L420.75 873.763V864.237L411 869Z" fill="#00272D"/>
<path d="M562 348V649.239L630 719V418.395L562 348Z" fill="#05B570"/>
<path d="M709 349V649.427L641 719V419.205L709 349Z" fill="#05B570"/>
<circle cx="35" cy="35" r="35" transform="matrix(0 1 1 0 596 508)" fill="white"/>
<circle cx="27.5" cy="27.5" r="27.5" transform="matrix(0 1 1 0 603 515)" fill="#05B570"/>
<circle cx="22.5" cy="22.5" r="22.5" transform="matrix(0 1 1 0 608 520)" fill="white"/>
<path d="M877.84 554V549.88L885.92 541.44C887.52 539.76 888.747 538.427 889.6 537.44C890.48 536.427 891.093 535.56 891.44 534.84C891.787 534.12 891.96 533.387 891.96 532.64C891.96 531.387 891.56 530.4 890.76 529.68C889.987 528.96 888.987 528.6 887.76 528.6C886.48 528.6 885.373 528.973 884.44 529.72C883.507 530.44 882.827 531.507 882.4 532.92L877.64 531.44C877.96 529.867 878.613 528.507 879.6 527.36C880.587 526.187 881.787 525.293 883.2 524.68C884.64 524.04 886.16 523.72 887.76 523.72C889.68 523.72 891.36 524.067 892.8 524.76C894.267 525.453 895.4 526.427 896.2 527.68C897.027 528.933 897.44 530.4 897.44 532.08C897.44 533.147 897.24 534.2 896.84 535.24C896.44 536.28 895.84 537.347 895.04 538.44C894.24 539.507 893.2 540.707 891.92 542.04L884.92 549.4H897.84V554H877.84ZM906.747 554L919.147 528.8H905.107V524.2H924.867V528.8L912.747 554H906.747ZM944.2 554V524.2H949.4L960.56 539.36H958.08L969 524.2H974.2V554H968.72V530.4L970.84 530.92L959.52 546H958.88L947.84 530.92L949.64 530.4V554H944.2ZM990.063 554.48C988.543 554.48 987.223 554.227 986.103 553.72C984.983 553.213 984.117 552.493 983.503 551.56C982.89 550.6 982.583 549.493 982.583 548.24C982.583 547.04 982.85 545.973 983.383 545.04C983.917 544.08 984.743 543.28 985.863 542.64C986.983 542 988.397 541.547 990.103 541.28L997.223 540.12V544.12L991.103 545.16C990.063 545.347 989.29 545.68 988.783 546.16C988.277 546.64 988.023 547.267 988.023 548.04C988.023 548.787 988.303 549.387 988.863 549.84C989.45 550.267 990.17 550.48 991.023 550.48C992.117 550.48 993.077 550.253 993.903 549.8C994.757 549.32 995.41 548.667 995.863 547.84C996.343 547.013 996.583 546.107 996.583 545.12V539.52C996.583 538.587 996.21 537.813 995.463 537.2C994.743 536.56 993.783 536.24 992.583 536.24C991.463 536.24 990.463 536.547 989.583 537.16C988.73 537.747 988.103 538.533 987.703 539.52L983.423 537.44C983.85 536.293 984.517 535.307 985.423 534.48C986.357 533.627 987.45 532.96 988.703 532.48C989.957 532 991.317 531.76 992.783 531.76C994.57 531.76 996.143 532.093 997.503 532.76C998.863 533.4 999.917 534.307 1000.66 535.48C1001.44 536.627 1001.82 537.973 1001.82 539.52V554H996.863V550.28L997.983 550.2C997.423 551.133 996.757 551.92 995.983 552.56C995.21 553.173 994.33 553.653 993.343 554C992.357 554.32 991.263 554.48 990.063 554.48ZM1010.67 554V532.24H1015.59V537.08L1015.19 536.36C1015.69 534.733 1016.48 533.6 1017.55 532.96C1018.64 532.32 1019.95 532 1021.47 532H1022.75V536.64H1020.87C1019.37 536.64 1018.17 537.107 1017.27 538.04C1016.36 538.947 1015.91 540.227 1015.91 541.88V554H1010.67ZM1040.11 554.48C1037.95 554.48 1036 553.987 1034.27 553C1032.56 551.987 1031.21 550.627 1030.23 548.92C1029.24 547.187 1028.75 545.24 1028.75 543.08C1028.75 540.92 1029.24 538.987 1030.23 537.28C1031.21 535.573 1032.56 534.227 1034.27 533.24C1036 532.253 1037.95 531.76 1040.11 531.76C1041.65 531.76 1043.09 532.04 1044.43 532.6C1045.76 533.133 1046.91 533.88 1047.87 534.84C1048.85 535.773 1049.56 536.893 1049.99 538.2L1045.39 540.2C1044.99 539.107 1044.31 538.227 1043.35 537.56C1042.41 536.893 1041.33 536.56 1040.11 536.56C1038.96 536.56 1037.93 536.84 1037.03 537.4C1036.15 537.96 1035.45 538.733 1034.95 539.72C1034.44 540.707 1034.19 541.84 1034.19 543.12C1034.19 544.4 1034.44 545.533 1034.95 546.52C1035.45 547.507 1036.15 548.28 1037.03 548.84C1037.93 549.4 1038.96 549.68 1040.11 549.68C1041.36 549.68 1042.45 549.347 1043.39 548.68C1044.32 548.013 1044.99 547.12 1045.39 546L1049.99 548.08C1049.56 549.307 1048.87 550.413 1047.91 551.4C1046.95 552.36 1045.8 553.12 1044.47 553.68C1043.13 554.213 1041.68 554.48 1040.11 554.48ZM1057.96 554V523.72H1063.2V536.52L1062.48 535.76C1062.99 534.453 1063.82 533.467 1064.96 532.8C1066.14 532.107 1067.5 531.76 1069.04 531.76C1070.64 531.76 1072.06 532.107 1073.28 532.8C1074.54 533.493 1075.51 534.467 1076.2 535.72C1076.9 536.947 1077.24 538.373 1077.24 540V554H1072V541.24C1072 540.28 1071.82 539.453 1071.44 538.76C1071.07 538.067 1070.55 537.533 1069.88 537.16C1069.24 536.76 1068.48 536.56 1067.6 536.56C1066.75 536.56 1065.99 536.76 1065.32 537.16C1064.66 537.533 1064.14 538.067 1063.76 538.76C1063.39 539.453 1063.2 540.28 1063.2 541.24V554H1057.96ZM1096.18 554V549.88L1104.26 541.44C1105.86 539.76 1107.09 538.427 1107.94 537.44C1108.82 536.427 1109.44 535.56 1109.78 534.84C1110.13 534.12 1110.3 533.387 1110.3 532.64C1110.3 531.387 1109.9 530.4 1109.1 529.68C1108.33 528.96 1107.33 528.6 1106.1 528.6C1104.82 528.6 1103.72 528.973 1102.78 529.72C1101.85 530.44 1101.17 531.507 1100.74 532.92L1095.98 531.44C1096.3 529.867 1096.96 528.507 1097.94 527.36C1098.93 526.187 1100.13 525.293 1101.54 524.68C1102.98 524.04 1104.5 523.72 1106.1 523.72C1108.02 523.72 1109.7 524.067 1111.14 524.76C1112.61 525.453 1113.74 526.427 1114.54 527.68C1115.37 528.933 1115.78 530.4 1115.78 532.08C1115.78 533.147 1115.58 534.2 1115.18 535.24C1114.78 536.28 1114.18 537.347 1113.38 538.44C1112.58 539.507 1111.54 540.707 1110.26 542.04L1103.26 549.4H1116.18V554H1096.18ZM1136.37 554.48C1134 554.48 1131.92 553.84 1130.13 552.56C1128.34 551.28 1126.94 549.48 1125.93 547.16C1124.94 544.84 1124.45 542.147 1124.45 539.08C1124.45 535.987 1124.94 533.293 1125.93 531C1126.92 528.707 1128.3 526.92 1130.09 525.64C1131.88 524.36 1133.96 523.72 1136.33 523.72C1138.76 523.72 1140.85 524.36 1142.61 525.64C1144.4 526.92 1145.8 528.72 1146.81 531.04C1147.82 533.333 1148.33 536.013 1148.33 539.08C1148.33 542.147 1147.82 544.84 1146.81 547.16C1145.82 549.453 1144.44 551.253 1142.65 552.56C1140.86 553.84 1138.77 554.48 1136.37 554.48ZM1136.41 549.52C1137.77 549.52 1138.93 549.107 1139.89 548.28C1140.85 547.427 1141.58 546.227 1142.09 544.68C1142.62 543.107 1142.89 541.24 1142.89 539.08C1142.89 536.92 1142.62 535.067 1142.09 533.52C1141.58 531.947 1140.84 530.747 1139.85 529.92C1138.89 529.093 1137.72 528.68 1136.33 528.68C1135 528.68 1133.85 529.093 1132.89 529.92C1131.93 530.747 1131.18 531.947 1130.65 533.52C1130.14 535.067 1129.89 536.92 1129.89 539.08C1129.89 541.213 1130.14 543.067 1130.65 544.64C1131.18 546.187 1131.93 547.387 1132.89 548.24C1133.88 549.093 1135.05 549.52 1136.41 549.52ZM1156.37 554V549.88L1164.45 541.44C1166.05 539.76 1167.28 538.427 1168.13 537.44C1169.01 536.427 1169.62 535.56 1169.97 534.84C1170.32 534.12 1170.49 533.387 1170.49 532.64C1170.49 531.387 1170.09 530.4 1169.29 529.68C1168.52 528.96 1167.52 528.6 1166.29 528.6C1165.01 528.6 1163.9 528.973 1162.97 529.72C1162.04 530.44 1161.36 531.507 1160.93 532.92L1156.17 531.44C1156.49 529.867 1157.14 528.507 1158.13 527.36C1159.12 526.187 1160.32 525.293 1161.73 524.68C1163.17 524.04 1164.69 523.72 1166.29 523.72C1168.21 523.72 1169.89 524.067 1171.33 524.76C1172.8 525.453 1173.93 526.427 1174.73 527.68C1175.56 528.933 1175.97 530.4 1175.97 532.08C1175.97 533.147 1175.77 534.2 1175.37 535.24C1174.97 536.28 1174.37 537.347 1173.57 538.44C1172.77 539.507 1171.73 540.707 1170.45 542.04L1163.45 549.4H1176.37V554H1156.37ZM1197.13 554V547.44H1183.45V542.88L1196.81 524.2H1202.49V542.88H1206.85V547.44H1202.49V554H1197.13ZM1187.45 544.84L1186.49 542.88H1197.13V528.48L1198.53 528.92L1187.45 544.84Z" fill="#00272D"/>
<path d="M857.06 596L864.92 573.65H869.3L877.16 596H873.38L871.67 590.99H862.58L860.84 596H857.06ZM863.6 587.84H870.59L866.63 576.14H867.62L863.6 587.84ZM888.106 596.36C886.486 596.36 885.046 595.99 883.786 595.25C882.546 594.49 881.556 593.47 880.816 592.19C880.096 590.91 879.736 589.46 879.736 587.84C879.736 586.24 880.096 584.8 880.816 583.52C881.536 582.24 882.526 581.24 883.786 580.52C885.046 579.78 886.486 579.41 888.106 579.41C889.206 579.41 890.236 579.61 891.196 580.01C892.156 580.39 892.986 580.92 893.686 581.6C894.406 582.28 894.936 583.07 895.276 583.97L892.306 585.35C891.966 584.51 891.416 583.84 890.656 583.34C889.916 582.82 889.066 582.56 888.106 582.56C887.186 582.56 886.356 582.79 885.616 583.25C884.896 583.69 884.326 584.32 883.906 585.14C883.486 585.94 883.276 586.85 883.276 587.87C883.276 588.89 883.486 589.81 883.906 590.63C884.326 591.43 884.896 592.06 885.616 592.52C886.356 592.98 887.186 593.21 888.106 593.21C889.086 593.21 889.936 592.96 890.656 592.46C891.396 591.94 891.946 591.25 892.306 590.39L895.276 591.8C894.956 592.66 894.436 593.44 893.716 594.14C893.016 594.82 892.186 595.36 891.226 595.76C890.266 596.16 889.226 596.36 888.106 596.36ZM907.799 596.36C906.179 596.36 904.739 595.99 903.479 595.25C902.239 594.49 901.249 593.47 900.509 592.19C899.789 590.91 899.429 589.46 899.429 587.84C899.429 586.24 899.789 584.8 900.509 583.52C901.229 582.24 902.219 581.24 903.479 580.52C904.739 579.78 906.179 579.41 907.799 579.41C908.899 579.41 909.929 579.61 910.889 580.01C911.849 580.39 912.679 580.92 913.379 581.6C914.099 582.28 914.629 583.07 914.969 583.97L911.999 585.35C911.659 584.51 911.109 583.84 910.349 583.34C909.609 582.82 908.759 582.56 907.799 582.56C906.879 582.56 906.049 582.79 905.309 583.25C904.589 583.69 904.019 584.32 903.599 585.14C903.179 585.94 902.969 586.85 902.969 587.87C902.969 588.89 903.179 589.81 903.599 590.63C904.019 591.43 904.589 592.06 905.309 592.52C906.049 592.98 906.879 593.21 907.799 593.21C908.779 593.21 909.629 592.96 910.349 592.46C911.089 591.94 911.639 591.25 911.999 590.39L914.969 591.8C914.649 592.66 914.129 593.44 913.409 594.14C912.709 594.82 911.879 595.36 910.919 595.76C909.959 596.16 908.919 596.36 907.799 596.36ZM927.403 596.36C925.783 596.36 924.343 595.99 923.083 595.25C921.843 594.49 920.873 593.47 920.173 592.19C919.473 590.89 919.123 589.44 919.123 587.84C919.123 586.2 919.473 584.75 920.173 583.49C920.893 582.23 921.853 581.24 923.053 580.52C924.253 579.78 925.613 579.41 927.133 579.41C928.353 579.41 929.443 579.62 930.403 580.04C931.363 580.46 932.173 581.04 932.833 581.78C933.493 582.5 933.993 583.33 934.333 584.27C934.693 585.21 934.873 586.21 934.873 587.27C934.873 587.53 934.863 587.8 934.843 588.08C934.823 588.36 934.783 588.62 934.723 588.86H921.793V586.16H932.803L931.183 587.39C931.383 586.41 931.313 585.54 930.973 584.78C930.653 584 930.153 583.39 929.473 582.95C928.813 582.49 928.033 582.26 927.133 582.26C926.233 582.26 925.433 582.49 924.733 582.95C924.033 583.39 923.493 584.03 923.113 584.87C922.733 585.69 922.583 586.69 922.663 587.87C922.563 588.97 922.713 589.93 923.113 590.75C923.533 591.57 924.113 592.21 924.853 592.67C925.613 593.13 926.473 593.36 927.433 593.36C928.413 593.36 929.243 593.14 929.923 592.7C930.623 592.26 931.173 591.69 931.573 590.99L934.333 592.34C934.013 593.1 933.513 593.79 932.833 594.41C932.173 595.01 931.373 595.49 930.433 595.85C929.513 596.19 928.503 596.36 927.403 596.36ZM939.681 602V579.77H942.921V583.13L942.531 582.35C943.131 581.43 943.931 580.71 944.931 580.19C945.931 579.67 947.071 579.41 948.351 579.41C949.891 579.41 951.271 579.78 952.491 580.52C953.731 581.26 954.701 582.27 955.401 583.55C956.121 584.83 956.481 586.27 956.481 587.87C956.481 589.47 956.121 590.91 955.401 592.19C954.701 593.47 953.741 594.49 952.521 595.25C951.301 595.99 949.911 596.36 948.351 596.36C947.091 596.36 945.941 596.1 944.901 595.58C943.881 595.06 943.091 594.31 942.531 593.33L943.071 592.7V602H939.681ZM948.021 593.21C948.981 593.21 949.831 592.98 950.571 592.52C951.311 592.06 951.891 591.43 952.311 590.63C952.751 589.81 952.971 588.89 952.971 587.87C952.971 586.85 952.751 585.94 952.311 585.14C951.891 584.34 951.311 583.71 950.571 583.25C949.831 582.79 948.981 582.56 948.021 582.56C947.081 582.56 946.231 582.79 945.471 583.25C944.731 583.71 944.141 584.34 943.701 585.14C943.281 585.94 943.071 586.85 943.071 587.87C943.071 588.89 943.281 589.81 943.701 590.63C944.141 591.43 944.731 592.06 945.471 592.52C946.231 592.98 947.081 593.21 948.021 593.21ZM968.006 596.18C966.306 596.18 964.986 595.7 964.046 594.74C963.106 593.78 962.636 592.43 962.636 590.69V582.83H959.786V579.77H960.236C960.996 579.77 961.586 579.55 962.006 579.11C962.426 578.67 962.636 578.07 962.636 577.31V576.05H966.026V579.77H969.716V582.83H966.026V590.54C966.026 591.1 966.116 591.58 966.296 591.98C966.476 592.36 966.766 592.66 967.166 592.88C967.566 593.08 968.086 593.18 968.726 593.18C968.886 593.18 969.066 593.17 969.266 593.15C969.466 593.13 969.656 593.11 969.836 593.09V596C969.556 596.04 969.246 596.08 968.906 596.12C968.566 596.16 968.266 596.18 968.006 596.18ZM979.358 596.36C978.258 596.36 977.288 596.17 976.448 595.79C975.628 595.39 974.988 594.85 974.528 594.17C974.068 593.47 973.838 592.65 973.838 591.71C973.838 590.83 974.028 590.04 974.408 589.34C974.808 588.64 975.418 588.05 976.238 587.57C977.058 587.09 978.088 586.75 979.328 586.55L984.968 585.62V588.29L979.988 589.16C979.088 589.32 978.428 589.61 978.008 590.03C977.588 590.43 977.378 590.95 977.378 591.59C977.378 592.21 977.608 592.72 978.068 593.12C978.548 593.5 979.158 593.69 979.898 593.69C980.818 593.69 981.618 593.49 982.298 593.09C982.998 592.69 983.538 592.16 983.918 591.5C984.298 590.82 984.488 590.07 984.488 589.25V585.08C984.488 584.28 984.188 583.63 983.588 583.13C983.008 582.61 982.228 582.35 981.248 582.35C980.348 582.35 979.558 582.59 978.878 583.07C978.218 583.53 977.728 584.13 977.408 584.87L974.588 583.46C974.888 582.66 975.378 581.96 976.058 581.36C976.738 580.74 977.528 580.26 978.428 579.92C979.348 579.58 980.318 579.41 981.338 579.41C982.618 579.41 983.748 579.65 984.728 580.13C985.728 580.61 986.498 581.28 987.038 582.14C987.598 582.98 987.878 583.96 987.878 585.08V596H984.638V593.06L985.328 593.15C984.948 593.81 984.458 594.38 983.858 594.86C983.278 595.34 982.608 595.71 981.848 595.97C981.108 596.23 980.278 596.36 979.358 596.36ZM993.341 596V579.77H996.581V582.95L996.191 582.53C996.591 581.51 997.231 580.74 998.111 580.22C998.991 579.68 1000.01 579.41 1001.17 579.41C1002.37 579.41 1003.43 579.67 1004.35 580.19C1005.27 580.71 1005.99 581.43 1006.51 582.35C1007.03 583.27 1007.29 584.33 1007.29 585.53V596H1003.93V586.43C1003.93 585.61 1003.78 584.92 1003.48 584.36C1003.18 583.78 1002.75 583.34 1002.19 583.04C1001.65 582.72 1001.03 582.56 1000.33 582.56C999.631 582.56 999.001 582.72 998.441 583.04C997.901 583.34 997.481 583.78 997.181 584.36C996.881 584.94 996.731 585.63 996.731 586.43V596H993.341ZM1020.13 596.36C1018.51 596.36 1017.07 595.99 1015.81 595.25C1014.57 594.49 1013.58 593.47 1012.84 592.19C1012.12 590.91 1011.76 589.46 1011.76 587.84C1011.76 586.24 1012.12 584.8 1012.84 583.52C1013.56 582.24 1014.55 581.24 1015.81 580.52C1017.07 579.78 1018.51 579.41 1020.13 579.41C1021.23 579.41 1022.26 579.61 1023.22 580.01C1024.18 580.39 1025.01 580.92 1025.71 581.6C1026.43 582.28 1026.96 583.07 1027.3 583.97L1024.33 585.35C1023.99 584.51 1023.44 583.84 1022.68 583.34C1021.94 582.82 1021.09 582.56 1020.13 582.56C1019.21 582.56 1018.38 582.79 1017.64 583.25C1016.92 583.69 1016.35 584.32 1015.93 585.14C1015.51 585.94 1015.3 586.85 1015.3 587.87C1015.3 588.89 1015.51 589.81 1015.93 590.63C1016.35 591.43 1016.92 592.06 1017.64 592.52C1018.38 592.98 1019.21 593.21 1020.13 593.21C1021.11 593.21 1021.96 592.96 1022.68 592.46C1023.42 591.94 1023.97 591.25 1024.33 590.39L1027.3 591.8C1026.98 592.66 1026.46 593.44 1025.74 594.14C1025.04 594.82 1024.21 595.36 1023.25 595.76C1022.29 596.16 1021.25 596.36 1020.13 596.36ZM1039.73 596.36C1038.11 596.36 1036.67 595.99 1035.41 595.25C1034.17 594.49 1033.2 593.47 1032.5 592.19C1031.8 590.89 1031.45 589.44 1031.45 587.84C1031.45 586.2 1031.8 584.75 1032.5 583.49C1033.22 582.23 1034.18 581.24 1035.38 580.52C1036.58 579.78 1037.94 579.41 1039.46 579.41C1040.68 579.41 1041.77 579.62 1042.73 580.04C1043.69 580.46 1044.5 581.04 1045.16 581.78C1045.82 582.5 1046.32 583.33 1046.66 584.27C1047.02 585.21 1047.2 586.21 1047.2 587.27C1047.2 587.53 1047.19 587.8 1047.17 588.08C1047.15 588.36 1047.11 588.62 1047.05 588.86H1034.12V586.16H1045.13L1043.51 587.39C1043.71 586.41 1043.64 585.54 1043.3 584.78C1042.98 584 1042.48 583.39 1041.8 582.95C1041.14 582.49 1040.36 582.26 1039.46 582.26C1038.56 582.26 1037.76 582.49 1037.06 582.95C1036.36 583.39 1035.82 584.03 1035.44 584.87C1035.06 585.69 1034.91 586.69 1034.99 587.87C1034.89 588.97 1035.04 589.93 1035.44 590.75C1035.86 591.57 1036.44 592.21 1037.18 592.67C1037.94 593.13 1038.8 593.36 1039.76 593.36C1040.74 593.36 1041.57 593.14 1042.25 592.7C1042.95 592.26 1043.5 591.69 1043.9 590.99L1046.66 592.34C1046.34 593.1 1045.84 593.79 1045.16 594.41C1044.5 595.01 1043.7 595.49 1042.76 595.85C1041.84 596.19 1040.83 596.36 1039.73 596.36ZM1058.76 596V579.77H1062V582.95L1061.61 582.53C1062.01 581.51 1062.65 580.74 1063.53 580.22C1064.41 579.68 1065.43 579.41 1066.59 579.41C1067.79 579.41 1068.85 579.67 1069.77 580.19C1070.69 580.71 1071.41 581.43 1071.93 582.35C1072.45 583.27 1072.71 584.33 1072.71 585.53V596H1069.35V586.43C1069.35 585.61 1069.2 584.92 1068.9 584.36C1068.6 583.78 1068.17 583.34 1067.61 583.04C1067.07 582.72 1066.45 582.56 1065.75 582.56C1065.05 582.56 1064.42 582.72 1063.86 583.04C1063.32 583.34 1062.9 583.78 1062.6 584.36C1062.3 584.94 1062.15 585.63 1062.15 586.43V596H1058.76ZM1085.66 596.36C1084.1 596.36 1082.67 595.99 1081.37 595.25C1080.09 594.51 1079.07 593.5 1078.31 592.22C1077.55 590.94 1077.17 589.49 1077.17 587.87C1077.17 586.23 1077.55 584.78 1078.31 583.52C1079.07 582.24 1080.09 581.24 1081.37 580.52C1082.65 579.78 1084.08 579.41 1085.66 579.41C1087.26 579.41 1088.69 579.78 1089.95 580.52C1091.23 581.24 1092.24 582.24 1092.98 583.52C1093.74 584.78 1094.12 586.23 1094.12 587.87C1094.12 589.51 1093.74 590.97 1092.98 592.25C1092.22 593.53 1091.2 594.54 1089.92 595.28C1088.64 596 1087.22 596.36 1085.66 596.36ZM1085.66 593.21C1086.62 593.21 1087.47 592.98 1088.21 592.52C1088.95 592.06 1089.53 591.43 1089.95 590.63C1090.39 589.81 1090.61 588.89 1090.61 587.87C1090.61 586.85 1090.39 585.94 1089.95 585.14C1089.53 584.34 1088.95 583.71 1088.21 583.25C1087.47 582.79 1086.62 582.56 1085.66 582.56C1084.72 582.56 1083.87 582.79 1083.11 583.25C1082.37 583.71 1081.78 584.34 1081.34 585.14C1080.92 585.94 1080.71 586.85 1080.71 587.87C1080.71 588.89 1080.92 589.81 1081.34 590.63C1081.78 591.43 1082.37 592.06 1083.11 592.52C1083.87 592.98 1084.72 593.21 1085.66 593.21ZM1105.66 596.18C1103.96 596.18 1102.64 595.7 1101.7 594.74C1100.76 593.78 1100.29 592.43 1100.29 590.69V582.83H1097.44V579.77H1097.89C1098.65 579.77 1099.24 579.55 1099.66 579.11C1100.08 578.67 1100.29 578.07 1100.29 577.31V576.05H1103.68V579.77H1107.37V582.83H1103.68V590.54C1103.68 591.1 1103.77 591.58 1103.95 591.98C1104.13 592.36 1104.42 592.66 1104.82 592.88C1105.22 593.08 1105.74 593.18 1106.38 593.18C1106.54 593.18 1106.72 593.17 1106.92 593.15C1107.12 593.13 1107.31 593.11 1107.49 593.09V596C1107.21 596.04 1106.9 596.08 1106.56 596.12C1106.22 596.16 1105.92 596.18 1105.66 596.18ZM1112.3 596V579.77H1115.69V596H1112.3ZM1112.3 577.55V573.65H1115.69V577.55H1112.3ZM1122.98 596V582.83H1119.98V579.77H1122.98V578.93C1122.98 577.71 1123.23 576.69 1123.73 575.87C1124.23 575.03 1124.92 574.39 1125.8 573.95C1126.7 573.51 1127.73 573.29 1128.89 573.29C1129.11 573.29 1129.36 573.31 1129.64 573.35C1129.92 573.37 1130.15 573.4 1130.33 573.44V576.38C1130.17 576.34 1129.99 576.32 1129.79 576.32C1129.59 576.3 1129.43 576.29 1129.31 576.29C1128.41 576.29 1127.69 576.5 1127.15 576.92C1126.61 577.32 1126.34 577.99 1126.34 578.93V579.77H1134.11V582.83H1126.34V596H1122.98ZM1132.52 596V579.77H1135.88V596H1132.52ZM1148.67 596.36C1147.05 596.36 1145.61 595.99 1144.35 595.25C1143.11 594.49 1142.12 593.47 1141.38 592.19C1140.66 590.91 1140.3 589.46 1140.3 587.84C1140.3 586.24 1140.66 584.8 1141.38 583.52C1142.1 582.24 1143.09 581.24 1144.35 580.52C1145.61 579.78 1147.05 579.41 1148.67 579.41C1149.77 579.41 1150.8 579.61 1151.76 580.01C1152.72 580.39 1153.55 580.92 1154.25 581.6C1154.97 582.28 1155.5 583.07 1155.84 583.97L1152.87 585.35C1152.53 584.51 1151.98 583.84 1151.22 583.34C1150.48 582.82 1149.63 582.56 1148.67 582.56C1147.75 582.56 1146.92 582.79 1146.18 583.25C1145.46 583.69 1144.89 584.32 1144.47 585.14C1144.05 585.94 1143.84 586.85 1143.84 587.87C1143.84 588.89 1144.05 589.81 1144.47 590.63C1144.89 591.43 1145.46 592.06 1146.18 592.52C1146.92 592.98 1147.75 593.21 1148.67 593.21C1149.65 593.21 1150.5 592.96 1151.22 592.46C1151.96 591.94 1152.51 591.25 1152.87 590.39L1155.84 591.8C1155.52 592.66 1155 593.44 1154.28 594.14C1153.58 594.82 1152.75 595.36 1151.79 595.76C1150.83 596.16 1149.79 596.36 1148.67 596.36ZM1165.37 596.36C1164.27 596.36 1163.3 596.17 1162.46 595.79C1161.64 595.39 1161 594.85 1160.54 594.17C1160.08 593.47 1159.85 592.65 1159.85 591.71C1159.85 590.83 1160.04 590.04 1160.42 589.34C1160.82 588.64 1161.43 588.05 1162.25 587.57C1163.07 587.09 1164.1 586.75 1165.34 586.55L1170.98 585.62V588.29L1166 589.16C1165.1 589.32 1164.44 589.61 1164.02 590.03C1163.6 590.43 1163.39 590.95 1163.39 591.59C1163.39 592.21 1163.62 592.72 1164.08 593.12C1164.56 593.5 1165.17 593.69 1165.91 593.69C1166.83 593.69 1167.63 593.49 1168.31 593.09C1169.01 592.69 1169.55 592.16 1169.93 591.5C1170.31 590.82 1170.5 590.07 1170.5 589.25V585.08C1170.5 584.28 1170.2 583.63 1169.6 583.13C1169.02 582.61 1168.24 582.35 1167.26 582.35C1166.36 582.35 1165.57 582.59 1164.89 583.07C1164.23 583.53 1163.74 584.13 1163.42 584.87L1160.6 583.46C1160.9 582.66 1161.39 581.96 1162.07 581.36C1162.75 580.74 1163.54 580.26 1164.44 579.92C1165.36 579.58 1166.33 579.41 1167.35 579.41C1168.63 579.41 1169.76 579.65 1170.74 580.13C1171.74 580.61 1172.51 581.28 1173.05 582.14C1173.61 582.98 1173.89 583.96 1173.89 585.08V596H1170.65V593.06L1171.34 593.15C1170.96 593.81 1170.47 594.38 1169.87 594.86C1169.29 595.34 1168.62 595.71 1167.86 595.97C1167.12 596.23 1166.29 596.36 1165.37 596.36ZM1186.08 596.18C1184.38 596.18 1183.06 595.7 1182.12 594.74C1181.18 593.78 1180.71 592.43 1180.71 590.69V582.83H1177.86V579.77H1178.31C1179.07 579.77 1179.66 579.55 1180.08 579.11C1180.5 578.67 1180.71 578.07 1180.71 577.31V576.05H1184.1V579.77H1187.79V582.83H1184.1V590.54C1184.1 591.1 1184.19 591.58 1184.37 591.98C1184.55 592.36 1184.84 592.66 1185.24 592.88C1185.64 593.08 1186.16 593.18 1186.8 593.18C1186.96 593.18 1187.14 593.17 1187.34 593.15C1187.54 593.13 1187.73 593.11 1187.91 593.09V596C1187.63 596.04 1187.32 596.08 1186.98 596.12C1186.64 596.16 1186.34 596.18 1186.08 596.18ZM1192.72 596V579.77H1196.11V596H1192.72ZM1192.72 577.55V573.65H1196.11V577.55H1192.72ZM1209.4 596.36C1207.84 596.36 1206.41 595.99 1205.11 595.25C1203.83 594.51 1202.81 593.5 1202.05 592.22C1201.29 590.94 1200.91 589.49 1200.91 587.87C1200.91 586.23 1201.29 584.78 1202.05 583.52C1202.81 582.24 1203.83 581.24 1205.11 580.52C1206.39 579.78 1207.82 579.41 1209.4 579.41C1211 579.41 1212.43 579.78 1213.69 580.52C1214.97 581.24 1215.98 582.24 1216.72 583.52C1217.48 584.78 1217.86 586.23 1217.86 587.87C1217.86 589.51 1217.48 590.97 1216.72 592.25C1215.96 593.53 1214.94 594.54 1213.66 595.28C1212.38 596 1210.96 596.36 1209.4 596.36ZM1209.4 593.21C1210.36 593.21 1211.21 592.98 1211.95 592.52C1212.69 592.06 1213.27 591.43 1213.69 590.63C1214.13 589.81 1214.35 588.89 1214.35 587.87C1214.35 586.85 1214.13 585.94 1213.69 585.14C1213.27 584.34 1212.69 583.71 1211.95 583.25C1211.21 582.79 1210.36 582.56 1209.4 582.56C1208.46 582.56 1207.61 582.79 1206.85 583.25C1206.11 583.71 1205.52 584.34 1205.08 585.14C1204.66 585.94 1204.45 586.85 1204.45 587.87C1204.45 588.89 1204.66 589.81 1205.08 590.63C1205.52 591.43 1206.11 592.06 1206.85 592.52C1207.61 592.98 1208.46 593.21 1209.4 593.21ZM1222.67 596V579.77H1225.91V582.95L1225.52 582.53C1225.92 581.51 1226.56 580.74 1227.44 580.22C1228.32 579.68 1229.34 579.41 1230.5 579.41C1231.7 579.41 1232.76 579.67 1233.68 580.19C1234.6 580.71 1235.32 581.43 1235.84 582.35C1236.36 583.27 1236.62 584.33 1236.62 585.53V596H1233.26V586.43C1233.26 585.61 1233.11 584.92 1232.81 584.36C1232.51 583.78 1232.08 583.34 1231.52 583.04C1230.98 582.72 1230.36 582.56 1229.66 582.56C1228.96 582.56 1228.33 582.72 1227.77 583.04C1227.23 583.34 1226.81 583.78 1226.51 584.36C1226.21 584.94 1226.06 585.63 1226.06 586.43V596H1222.67Z" fill="#00272D"/>
<line y1="-2" x2="177" y2="-2" transform="matrix(1 0 0 -1 672 537.763)" stroke="#05B570" stroke-width="4"/>
<path d="M857 539.763L847.25 544.526V535L857 539.763Z" fill="#05B570"/>
<path d="M562 996V1297.24L630 1367V1066.39L562 996Z" fill="#05B570"/>
<path d="M709 997V1297.43L641 1367V1067.21L709 997Z" fill="#05B570"/>
<circle cx="35" cy="35" r="35" transform="matrix(0 1 1 0 596 1156)" fill="white"/>
<circle cx="27.5" cy="27.5" r="27.5" transform="matrix(0 1 1 0 603 1163)" fill="#05B570"/>
<circle cx="22.5" cy="22.5" r="22.5" transform="matrix(0 1 1 0 608 1168)" fill="white"/>
<path d="M875.92 1204V1178.84H870.16V1174.2H881.36V1204H875.92ZM896.053 1204V1178.84H890.293V1174.2H901.493V1204H896.053ZM913.386 1210.24V1207.64C914.266 1207.43 914.972 1207.01 915.506 1206.4C916.066 1205.81 916.412 1205.01 916.546 1204H914.186V1198.4H919.466V1201.84C919.466 1204.19 918.946 1206.07 917.906 1207.48C916.892 1208.89 915.386 1209.81 913.386 1210.24ZM933.115 1204V1178.84H927.355V1174.2H938.555V1204H933.115ZM948.168 1204V1199.88L956.248 1191.44C957.848 1189.76 959.075 1188.43 959.928 1187.44C960.808 1186.43 961.421 1185.56 961.768 1184.84C962.115 1184.12 962.288 1183.39 962.288 1182.64C962.288 1181.39 961.888 1180.4 961.088 1179.68C960.315 1178.96 959.315 1178.6 958.088 1178.6C956.808 1178.6 955.701 1178.97 954.768 1179.72C953.835 1180.44 953.155 1181.51 952.728 1182.92L947.968 1181.44C948.288 1179.87 948.941 1178.51 949.928 1177.36C950.915 1176.19 952.115 1175.29 953.528 1174.68C954.968 1174.04 956.488 1173.72 958.088 1173.72C960.008 1173.72 961.688 1174.07 963.128 1174.76C964.595 1175.45 965.728 1176.43 966.528 1177.68C967.355 1178.93 967.768 1180.4 967.768 1182.08C967.768 1183.15 967.568 1184.2 967.168 1185.24C966.768 1186.28 966.168 1187.35 965.368 1188.44C964.568 1189.51 963.528 1190.71 962.248 1192.04L955.248 1199.4H968.168V1204H948.168ZM985.745 1204L996.025 1174.2H1003.06L1013.34 1204H1007.42L1005.3 1197.6H993.785L991.625 1204H985.745ZM995.345 1192.8H1003.74L998.785 1177.96H1000.3L995.345 1192.8ZM1020.22 1212V1182.24H1025.14V1186.56L1024.66 1185.48C1025.41 1184.31 1026.42 1183.4 1027.7 1182.76C1028.98 1182.09 1030.46 1181.76 1032.14 1181.76C1034.19 1181.76 1036.05 1182.27 1037.7 1183.28C1039.35 1184.29 1040.66 1185.65 1041.62 1187.36C1042.61 1189.07 1043.1 1190.99 1043.1 1193.12C1043.1 1195.23 1042.62 1197.15 1041.66 1198.88C1040.7 1200.61 1039.39 1201.99 1037.74 1203C1036.09 1203.99 1034.21 1204.48 1032.1 1204.48C1030.53 1204.48 1029.07 1204.17 1027.74 1203.56C1026.43 1202.92 1025.39 1202.01 1024.62 1200.84L1025.46 1199.8V1212H1020.22ZM1031.5 1199.68C1032.7 1199.68 1033.77 1199.4 1034.7 1198.84C1035.63 1198.28 1036.35 1197.51 1036.86 1196.52C1037.39 1195.53 1037.66 1194.4 1037.66 1193.12C1037.66 1191.84 1037.39 1190.72 1036.86 1189.76C1036.35 1188.77 1035.63 1188 1034.7 1187.44C1033.77 1186.85 1032.7 1186.56 1031.5 1186.56C1030.35 1186.56 1029.31 1186.84 1028.38 1187.4C1027.47 1187.96 1026.75 1188.75 1026.22 1189.76C1025.71 1190.75 1025.46 1191.87 1025.46 1193.12C1025.46 1194.4 1025.71 1195.53 1026.22 1196.52C1026.75 1197.51 1027.47 1198.28 1028.38 1198.84C1029.31 1199.4 1030.35 1199.68 1031.5 1199.68ZM1051.1 1204V1182.24H1056.02V1187.08L1055.62 1186.36C1056.12 1184.73 1056.91 1183.6 1057.98 1182.96C1059.07 1182.32 1060.38 1182 1061.9 1182H1063.18V1186.64H1061.3C1059.8 1186.64 1058.6 1187.11 1057.7 1188.04C1056.79 1188.95 1056.34 1190.23 1056.34 1191.88V1204H1051.1ZM1070.06 1204V1182.24H1075.3V1204H1070.06ZM1070.06 1179.8V1174.2H1075.3V1179.8H1070.06ZM1084.14 1204V1173.72H1089.38V1204H1084.14ZM1108.72 1204V1199.88L1116.8 1191.44C1118.4 1189.76 1119.63 1188.43 1120.48 1187.44C1121.36 1186.43 1121.98 1185.56 1122.32 1184.84C1122.67 1184.12 1122.84 1183.39 1122.84 1182.64C1122.84 1181.39 1122.44 1180.4 1121.64 1179.68C1120.87 1178.96 1119.87 1178.6 1118.64 1178.6C1117.36 1178.6 1116.26 1178.97 1115.32 1179.72C1114.39 1180.44 1113.71 1181.51 1113.28 1182.92L1108.52 1181.44C1108.84 1179.87 1109.5 1178.51 1110.48 1177.36C1111.47 1176.19 1112.67 1175.29 1114.08 1174.68C1115.52 1174.04 1117.04 1173.72 1118.64 1173.72C1120.56 1173.72 1122.24 1174.07 1123.68 1174.76C1125.15 1175.45 1126.28 1176.43 1127.08 1177.68C1127.91 1178.93 1128.32 1180.4 1128.32 1182.08C1128.32 1183.15 1128.12 1184.2 1127.72 1185.24C1127.32 1186.28 1126.72 1187.35 1125.92 1188.44C1125.12 1189.51 1124.08 1190.71 1122.8 1192.04L1115.8 1199.4H1128.72V1204H1108.72ZM1148.91 1204.48C1146.54 1204.48 1144.46 1203.84 1142.67 1202.56C1140.88 1201.28 1139.48 1199.48 1138.47 1197.16C1137.48 1194.84 1136.99 1192.15 1136.99 1189.08C1136.99 1185.99 1137.48 1183.29 1138.47 1181C1139.46 1178.71 1140.84 1176.92 1142.63 1175.64C1144.42 1174.36 1146.5 1173.72 1148.87 1173.72C1151.3 1173.72 1153.39 1174.36 1155.15 1175.64C1156.94 1176.92 1158.34 1178.72 1159.35 1181.04C1160.36 1183.33 1160.87 1186.01 1160.87 1189.08C1160.87 1192.15 1160.36 1194.84 1159.35 1197.16C1158.36 1199.45 1156.98 1201.25 1155.19 1202.56C1153.4 1203.84 1151.31 1204.48 1148.91 1204.48ZM1148.95 1199.52C1150.31 1199.52 1151.47 1199.11 1152.43 1198.28C1153.39 1197.43 1154.12 1196.23 1154.63 1194.68C1155.16 1193.11 1155.43 1191.24 1155.43 1189.08C1155.43 1186.92 1155.16 1185.07 1154.63 1183.52C1154.12 1181.95 1153.38 1180.75 1152.39 1179.92C1151.43 1179.09 1150.26 1178.68 1148.87 1178.68C1147.54 1178.68 1146.39 1179.09 1145.43 1179.92C1144.47 1180.75 1143.72 1181.95 1143.19 1183.52C1142.68 1185.07 1142.43 1186.92 1142.43 1189.08C1142.43 1191.21 1142.68 1193.07 1143.19 1194.64C1143.72 1196.19 1144.47 1197.39 1145.43 1198.24C1146.42 1199.09 1147.59 1199.52 1148.95 1199.52ZM1168.91 1204V1199.88L1176.99 1191.44C1178.59 1189.76 1179.82 1188.43 1180.67 1187.44C1181.55 1186.43 1182.16 1185.56 1182.51 1184.84C1182.86 1184.12 1183.03 1183.39 1183.03 1182.64C1183.03 1181.39 1182.63 1180.4 1181.83 1179.68C1181.06 1178.96 1180.06 1178.6 1178.83 1178.6C1177.55 1178.6 1176.44 1178.97 1175.51 1179.72C1174.58 1180.44 1173.9 1181.51 1173.47 1182.92L1168.71 1181.44C1169.03 1179.87 1169.68 1178.51 1170.67 1177.36C1171.66 1176.19 1172.86 1175.29 1174.27 1174.68C1175.71 1174.04 1177.23 1173.72 1178.83 1173.72C1180.75 1173.72 1182.43 1174.07 1183.87 1174.76C1185.34 1175.45 1186.47 1176.43 1187.27 1177.68C1188.1 1178.93 1188.51 1180.4 1188.51 1182.08C1188.51 1183.15 1188.31 1184.2 1187.91 1185.24C1187.51 1186.28 1186.91 1187.35 1186.11 1188.44C1185.31 1189.51 1184.27 1190.71 1182.99 1192.04L1175.99 1199.4H1188.91V1204H1168.91ZM1209.67 1204V1197.44H1195.99V1192.88L1209.35 1174.2H1215.03V1192.88H1219.39V1197.44H1215.03V1204H1209.67ZM1199.99 1194.84L1199.03 1192.88H1209.67V1178.48L1211.07 1178.92L1199.99 1194.84Z" fill="#00272D"/>
<path d="M918.644 1257.36C917.064 1257.36 915.594 1257.07 914.234 1256.49C912.894 1255.91 911.724 1255.11 910.724 1254.09C909.744 1253.05 908.974 1251.83 908.414 1250.43C907.854 1249.03 907.574 1247.49 907.574 1245.81C907.574 1244.15 907.844 1242.62 908.384 1241.22C908.944 1239.8 909.724 1238.58 910.724 1237.56C911.724 1236.52 912.894 1235.72 914.234 1235.16C915.574 1234.58 917.044 1234.29 918.644 1234.29C920.224 1234.29 921.634 1234.56 922.874 1235.1C924.134 1235.64 925.194 1236.35 926.054 1237.23C926.914 1238.09 927.534 1239.03 927.914 1240.05L924.734 1241.55C924.254 1240.35 923.484 1239.38 922.424 1238.64C921.384 1237.88 920.124 1237.5 918.644 1237.5C917.164 1237.5 915.854 1237.85 914.714 1238.55C913.574 1239.25 912.684 1240.22 912.044 1241.46C911.424 1242.7 911.114 1244.15 911.114 1245.81C911.114 1247.47 911.424 1248.93 912.044 1250.19C912.684 1251.43 913.574 1252.4 914.714 1253.1C915.854 1253.78 917.164 1254.12 918.644 1254.12C920.124 1254.12 921.384 1253.75 922.424 1253.01C923.484 1252.27 924.254 1251.3 924.734 1250.1L927.914 1251.6C927.534 1252.6 926.914 1253.54 926.054 1254.42C925.194 1255.3 924.134 1256.01 922.874 1256.55C921.634 1257.09 920.224 1257.36 918.644 1257.36ZM940.261 1257.36C938.701 1257.36 937.271 1256.99 935.971 1256.25C934.691 1255.51 933.671 1254.5 932.911 1253.22C932.151 1251.94 931.771 1250.49 931.771 1248.87C931.771 1247.23 932.151 1245.78 932.911 1244.52C933.671 1243.24 934.691 1242.24 935.971 1241.52C937.251 1240.78 938.681 1240.41 940.261 1240.41C941.861 1240.41 943.291 1240.78 944.551 1241.52C945.831 1242.24 946.841 1243.24 947.581 1244.52C948.341 1245.78 948.721 1247.23 948.721 1248.87C948.721 1250.51 948.341 1251.97 947.581 1253.25C946.821 1254.53 945.801 1255.54 944.521 1256.28C943.241 1257 941.821 1257.36 940.261 1257.36ZM940.261 1254.21C941.221 1254.21 942.071 1253.98 942.811 1253.52C943.551 1253.06 944.131 1252.43 944.551 1251.63C944.991 1250.81 945.211 1249.89 945.211 1248.87C945.211 1247.85 944.991 1246.94 944.551 1246.14C944.131 1245.34 943.551 1244.71 942.811 1244.25C942.071 1243.79 941.221 1243.56 940.261 1243.56C939.321 1243.56 938.471 1243.79 937.711 1244.25C936.971 1244.71 936.381 1245.34 935.941 1246.14C935.521 1246.94 935.311 1247.85 935.311 1248.87C935.311 1249.89 935.521 1250.81 935.941 1251.63C936.381 1252.43 936.971 1253.06 937.711 1253.52C938.471 1253.98 939.321 1254.21 940.261 1254.21ZM953.531 1257V1240.77H956.771V1243.95L956.381 1243.53C956.781 1242.51 957.421 1241.74 958.301 1241.22C959.181 1240.68 960.201 1240.41 961.361 1240.41C962.561 1240.41 963.621 1240.67 964.541 1241.19C965.461 1241.71 966.181 1242.43 966.701 1243.35C967.221 1244.27 967.481 1245.33 967.481 1246.53V1257H964.121V1247.43C964.121 1246.61 963.971 1245.92 963.671 1245.36C963.371 1244.78 962.941 1244.34 962.381 1244.04C961.841 1243.72 961.221 1243.56 960.521 1243.56C959.821 1243.56 959.191 1243.72 958.631 1244.04C958.091 1244.34 957.671 1244.78 957.371 1245.36C957.071 1245.94 956.921 1246.63 956.921 1247.43V1257H953.531ZM974.439 1257V1243.83H971.439V1240.77H974.439V1239.93C974.439 1238.71 974.689 1237.69 975.189 1236.87C975.689 1236.03 976.379 1235.39 977.259 1234.95C978.159 1234.51 979.189 1234.29 980.349 1234.29C980.569 1234.29 980.819 1234.31 981.099 1234.35C981.379 1234.37 981.609 1234.4 981.789 1234.44V1237.38C981.629 1237.34 981.449 1237.32 981.249 1237.32C981.049 1237.3 980.889 1237.29 980.769 1237.29C979.869 1237.29 979.149 1237.5 978.609 1237.92C978.069 1238.32 977.799 1238.99 977.799 1239.93V1240.77H981.519V1243.83H977.799V1257H974.439ZM993.184 1257.36C991.564 1257.36 990.124 1256.99 988.864 1256.25C987.624 1255.49 986.654 1254.47 985.954 1253.19C985.254 1251.89 984.904 1250.44 984.904 1248.84C984.904 1247.2 985.254 1245.75 985.954 1244.49C986.674 1243.23 987.634 1242.24 988.834 1241.52C990.034 1240.78 991.394 1240.41 992.914 1240.41C994.134 1240.41 995.224 1240.62 996.184 1241.04C997.144 1241.46 997.954 1242.04 998.614 1242.78C999.274 1243.5 999.774 1244.33 1000.11 1245.27C1000.47 1246.21 1000.65 1247.21 1000.65 1248.27C1000.65 1248.53 1000.64 1248.8 1000.62 1249.08C1000.6 1249.36 1000.56 1249.62 1000.5 1249.86H987.574V1247.16H998.584L996.964 1248.39C997.164 1247.41 997.094 1246.54 996.754 1245.78C996.434 1245 995.934 1244.39 995.254 1243.95C994.594 1243.49 993.814 1243.26 992.914 1243.26C992.014 1243.26 991.214 1243.49 990.514 1243.95C989.814 1244.39 989.274 1245.03 988.894 1245.87C988.514 1246.69 988.364 1247.69 988.444 1248.87C988.344 1249.97 988.494 1250.93 988.894 1251.75C989.314 1252.57 989.894 1253.21 990.634 1253.67C991.394 1254.13 992.254 1254.36 993.214 1254.36C994.194 1254.36 995.024 1254.14 995.704 1253.7C996.404 1253.26 996.954 1252.69 997.354 1251.99L1000.11 1253.34C999.794 1254.1 999.294 1254.79 998.614 1255.41C997.954 1256.01 997.154 1256.49 996.214 1256.85C995.294 1257.19 994.284 1257.36 993.184 1257.36ZM1005.46 1257V1240.77H1008.7V1244.04L1008.4 1243.56C1008.76 1242.5 1009.34 1241.74 1010.14 1241.28C1010.94 1240.8 1011.9 1240.56 1013.02 1240.56H1014.01V1243.65H1012.6C1011.48 1243.65 1010.57 1244 1009.87 1244.7C1009.19 1245.38 1008.85 1246.36 1008.85 1247.64V1257H1005.46ZM1025.45 1257.36C1023.83 1257.36 1022.39 1256.99 1021.13 1256.25C1019.89 1255.49 1018.92 1254.47 1018.22 1253.19C1017.52 1251.89 1017.17 1250.44 1017.17 1248.84C1017.17 1247.2 1017.52 1245.75 1018.22 1244.49C1018.94 1243.23 1019.9 1242.24 1021.1 1241.52C1022.3 1240.78 1023.66 1240.41 1025.18 1240.41C1026.4 1240.41 1027.49 1240.62 1028.45 1241.04C1029.41 1241.46 1030.22 1242.04 1030.88 1242.78C1031.54 1243.5 1032.04 1244.33 1032.38 1245.27C1032.74 1246.21 1032.92 1247.21 1032.92 1248.27C1032.92 1248.53 1032.91 1248.8 1032.89 1249.08C1032.87 1249.36 1032.83 1249.62 1032.77 1249.86H1019.84V1247.16H1030.85L1029.23 1248.39C1029.43 1247.41 1029.36 1246.54 1029.02 1245.78C1028.7 1245 1028.2 1244.39 1027.52 1243.95C1026.86 1243.49 1026.08 1243.26 1025.18 1243.26C1024.28 1243.26 1023.48 1243.49 1022.78 1243.95C1022.08 1244.39 1021.54 1245.03 1021.16 1245.87C1020.78 1246.69 1020.63 1247.69 1020.71 1248.87C1020.61 1249.97 1020.76 1250.93 1021.16 1251.75C1021.58 1252.57 1022.16 1253.21 1022.9 1253.67C1023.66 1254.13 1024.52 1254.36 1025.48 1254.36C1026.46 1254.36 1027.29 1254.14 1027.97 1253.7C1028.67 1253.26 1029.22 1252.69 1029.62 1251.99L1032.38 1253.34C1032.06 1254.1 1031.56 1254.79 1030.88 1255.41C1030.22 1256.01 1029.42 1256.49 1028.48 1256.85C1027.56 1257.19 1026.55 1257.36 1025.45 1257.36ZM1037.73 1257V1240.77H1040.97V1243.95L1040.58 1243.53C1040.98 1242.51 1041.62 1241.74 1042.5 1241.22C1043.38 1240.68 1044.4 1240.41 1045.56 1240.41C1046.76 1240.41 1047.82 1240.67 1048.74 1241.19C1049.66 1241.71 1050.38 1242.43 1050.9 1243.35C1051.42 1244.27 1051.68 1245.33 1051.68 1246.53V1257H1048.32V1247.43C1048.32 1246.61 1048.17 1245.92 1047.87 1245.36C1047.57 1244.78 1047.14 1244.34 1046.58 1244.04C1046.04 1243.72 1045.42 1243.56 1044.72 1243.56C1044.02 1243.56 1043.39 1243.72 1042.83 1244.04C1042.29 1244.34 1041.87 1244.78 1041.57 1245.36C1041.27 1245.94 1041.12 1246.63 1041.12 1247.43V1257H1037.73ZM1064.52 1257.36C1062.9 1257.36 1061.46 1256.99 1060.2 1256.25C1058.96 1255.49 1057.97 1254.47 1057.23 1253.19C1056.51 1251.91 1056.15 1250.46 1056.15 1248.84C1056.15 1247.24 1056.51 1245.8 1057.23 1244.52C1057.95 1243.24 1058.94 1242.24 1060.2 1241.52C1061.46 1240.78 1062.9 1240.41 1064.52 1240.41C1065.62 1240.41 1066.65 1240.61 1067.61 1241.01C1068.57 1241.39 1069.4 1241.92 1070.1 1242.6C1070.82 1243.28 1071.35 1244.07 1071.69 1244.97L1068.72 1246.35C1068.38 1245.51 1067.83 1244.84 1067.07 1244.34C1066.33 1243.82 1065.48 1243.56 1064.52 1243.56C1063.6 1243.56 1062.77 1243.79 1062.03 1244.25C1061.31 1244.69 1060.74 1245.32 1060.32 1246.14C1059.9 1246.94 1059.69 1247.85 1059.69 1248.87C1059.69 1249.89 1059.9 1250.81 1060.32 1251.63C1060.74 1252.43 1061.31 1253.06 1062.03 1253.52C1062.77 1253.98 1063.6 1254.21 1064.52 1254.21C1065.5 1254.21 1066.35 1253.96 1067.07 1253.46C1067.81 1252.94 1068.36 1252.25 1068.72 1251.39L1071.69 1252.8C1071.37 1253.66 1070.85 1254.44 1070.13 1255.14C1069.43 1255.82 1068.6 1256.36 1067.64 1256.76C1066.68 1257.16 1065.64 1257.36 1064.52 1257.36ZM1084.12 1257.36C1082.5 1257.36 1081.06 1256.99 1079.8 1256.25C1078.56 1255.49 1077.59 1254.47 1076.89 1253.19C1076.19 1251.89 1075.84 1250.44 1075.84 1248.84C1075.84 1247.2 1076.19 1245.75 1076.89 1244.49C1077.61 1243.23 1078.57 1242.24 1079.77 1241.52C1080.97 1240.78 1082.33 1240.41 1083.85 1240.41C1085.07 1240.41 1086.16 1240.62 1087.12 1241.04C1088.08 1241.46 1088.89 1242.04 1089.55 1242.78C1090.21 1243.5 1090.71 1244.33 1091.05 1245.27C1091.41 1246.21 1091.59 1247.21 1091.59 1248.27C1091.59 1248.53 1091.58 1248.8 1091.56 1249.08C1091.54 1249.36 1091.5 1249.62 1091.44 1249.86H1078.51V1247.16H1089.52L1087.9 1248.39C1088.1 1247.41 1088.03 1246.54 1087.69 1245.78C1087.37 1245 1086.87 1244.39 1086.19 1243.95C1085.53 1243.49 1084.75 1243.26 1083.85 1243.26C1082.95 1243.26 1082.15 1243.49 1081.45 1243.95C1080.75 1244.39 1080.21 1245.03 1079.83 1245.87C1079.45 1246.69 1079.3 1247.69 1079.38 1248.87C1079.28 1249.97 1079.43 1250.93 1079.83 1251.75C1080.25 1252.57 1080.83 1253.21 1081.57 1253.67C1082.33 1254.13 1083.19 1254.36 1084.15 1254.36C1085.13 1254.36 1085.96 1254.14 1086.64 1253.7C1087.34 1253.26 1087.89 1252.69 1088.29 1251.99L1091.05 1253.34C1090.73 1254.1 1090.23 1254.79 1089.55 1255.41C1088.89 1256.01 1088.09 1256.49 1087.15 1256.85C1086.23 1257.19 1085.22 1257.36 1084.12 1257.36ZM1110.64 1257.36C1109.08 1257.36 1107.68 1256.99 1106.44 1256.25C1105.22 1255.49 1104.25 1254.47 1103.53 1253.19C1102.83 1251.91 1102.48 1250.47 1102.48 1248.87C1102.48 1247.27 1102.84 1245.83 1103.56 1244.55C1104.28 1243.27 1105.25 1242.26 1106.47 1241.52C1107.69 1240.78 1109.07 1240.41 1110.61 1240.41C1111.91 1240.41 1113.06 1240.67 1114.06 1241.19C1115.06 1241.71 1115.85 1242.43 1116.43 1243.35L1115.92 1244.13V1234.29H1119.28V1257H1116.07V1253.7L1116.46 1254.33C1115.9 1255.31 1115.1 1256.06 1114.06 1256.58C1113.02 1257.1 1111.88 1257.36 1110.64 1257.36ZM1110.97 1254.21C1111.91 1254.21 1112.75 1253.98 1113.49 1253.52C1114.25 1253.06 1114.84 1252.43 1115.26 1251.63C1115.7 1250.81 1115.92 1249.89 1115.92 1248.87C1115.92 1247.85 1115.7 1246.94 1115.26 1246.14C1114.84 1245.34 1114.25 1244.71 1113.49 1244.25C1112.75 1243.79 1111.91 1243.56 1110.97 1243.56C1110.03 1243.56 1109.18 1243.79 1108.42 1244.25C1107.66 1244.71 1107.07 1245.34 1106.65 1246.14C1106.23 1246.94 1106.02 1247.85 1106.02 1248.87C1106.02 1249.89 1106.23 1250.81 1106.65 1251.63C1107.07 1252.43 1107.65 1253.06 1108.39 1253.52C1109.15 1253.98 1110.01 1254.21 1110.97 1254.21ZM1129.6 1257.36C1128.5 1257.36 1127.53 1257.17 1126.69 1256.79C1125.87 1256.39 1125.23 1255.85 1124.77 1255.17C1124.31 1254.47 1124.08 1253.65 1124.08 1252.71C1124.08 1251.83 1124.27 1251.04 1124.65 1250.34C1125.05 1249.64 1125.66 1249.05 1126.48 1248.57C1127.3 1248.09 1128.33 1247.75 1129.57 1247.55L1135.21 1246.62V1249.29L1130.23 1250.16C1129.33 1250.32 1128.67 1250.61 1128.25 1251.03C1127.83 1251.43 1127.62 1251.95 1127.62 1252.59C1127.62 1253.21 1127.85 1253.72 1128.31 1254.12C1128.79 1254.5 1129.4 1254.69 1130.14 1254.69C1131.06 1254.69 1131.86 1254.49 1132.54 1254.09C1133.24 1253.69 1133.78 1253.16 1134.16 1252.5C1134.54 1251.82 1134.73 1251.07 1134.73 1250.25V1246.08C1134.73 1245.28 1134.43 1244.63 1133.83 1244.13C1133.25 1243.61 1132.47 1243.35 1131.49 1243.35C1130.59 1243.35 1129.8 1243.59 1129.12 1244.07C1128.46 1244.53 1127.97 1245.13 1127.65 1245.87L1124.83 1244.46C1125.13 1243.66 1125.62 1242.96 1126.3 1242.36C1126.98 1241.74 1127.77 1241.26 1128.67 1240.92C1129.59 1240.58 1130.56 1240.41 1131.58 1240.41C1132.86 1240.41 1133.99 1240.65 1134.97 1241.13C1135.97 1241.61 1136.74 1242.28 1137.28 1243.14C1137.84 1243.98 1138.12 1244.96 1138.12 1246.08V1257H1134.88V1254.06L1135.57 1254.15C1135.19 1254.81 1134.7 1255.38 1134.1 1255.86C1133.52 1256.34 1132.85 1256.71 1132.09 1256.97C1131.35 1257.23 1130.52 1257.36 1129.6 1257.36ZM1150.31 1257.18C1148.61 1257.18 1147.29 1256.7 1146.35 1255.74C1145.41 1254.78 1144.94 1253.43 1144.94 1251.69V1243.83H1142.09V1240.77H1142.54C1143.3 1240.77 1143.89 1240.55 1144.31 1240.11C1144.73 1239.67 1144.94 1239.07 1144.94 1238.31V1237.05H1148.33V1240.77H1152.02V1243.83H1148.33V1251.54C1148.33 1252.1 1148.42 1252.58 1148.6 1252.98C1148.78 1253.36 1149.07 1253.66 1149.47 1253.88C1149.87 1254.08 1150.39 1254.18 1151.03 1254.18C1151.19 1254.18 1151.37 1254.17 1151.57 1254.15C1151.77 1254.13 1151.96 1254.11 1152.14 1254.09V1257C1151.86 1257.04 1151.55 1257.08 1151.21 1257.12C1150.87 1257.16 1150.57 1257.18 1150.31 1257.18ZM1164.28 1257.36C1162.66 1257.36 1161.22 1256.99 1159.96 1256.25C1158.72 1255.49 1157.75 1254.47 1157.05 1253.19C1156.35 1251.89 1156 1250.44 1156 1248.84C1156 1247.2 1156.35 1245.75 1157.05 1244.49C1157.77 1243.23 1158.73 1242.24 1159.93 1241.52C1161.13 1240.78 1162.49 1240.41 1164.01 1240.41C1165.23 1240.41 1166.32 1240.62 1167.28 1241.04C1168.24 1241.46 1169.05 1242.04 1169.71 1242.78C1170.37 1243.5 1170.87 1244.33 1171.21 1245.27C1171.57 1246.21 1171.75 1247.21 1171.75 1248.27C1171.75 1248.53 1171.74 1248.8 1171.72 1249.08C1171.7 1249.36 1171.66 1249.62 1171.6 1249.86H1158.67V1247.16H1169.68L1168.06 1248.39C1168.26 1247.41 1168.19 1246.54 1167.85 1245.78C1167.53 1245 1167.03 1244.39 1166.35 1243.95C1165.69 1243.49 1164.91 1243.26 1164.01 1243.26C1163.11 1243.26 1162.31 1243.49 1161.61 1243.95C1160.91 1244.39 1160.37 1245.03 1159.99 1245.87C1159.61 1246.69 1159.46 1247.69 1159.54 1248.87C1159.44 1249.97 1159.59 1250.93 1159.99 1251.75C1160.41 1252.57 1160.99 1253.21 1161.73 1253.67C1162.49 1254.13 1163.35 1254.36 1164.31 1254.36C1165.29 1254.36 1166.12 1254.14 1166.8 1253.7C1167.5 1253.26 1168.05 1252.69 1168.45 1251.99L1171.21 1253.34C1170.89 1254.1 1170.39 1254.79 1169.71 1255.41C1169.05 1256.01 1168.25 1256.49 1167.31 1256.85C1166.39 1257.19 1165.38 1257.36 1164.28 1257.36Z" fill="#00272D"/>
<line y1="-2" x2="177" y2="-2" transform="matrix(1 0 0 -1 672 1185.76)" stroke="#05B570" stroke-width="4"/>
<path d="M857 1187.76L847.25 1192.53V1183L857 1187.76Z" fill="#05B570"/>
</svg>
