<svg width="1603" height="583" viewBox="0 0 1603 583" fill="none" xmlns="http://www.w3.org/2000/svg">
<rect x="13" width="1590" height="583" fill="white"/>
<path d="M36 226H337.239L407 294H106.395L36 226Z" fill="#00272D"/>
<path d="M37 373H337.427L407 305H107.205L37 373Z" fill="#00272D"/>
<circle cx="231" cy="295" r="35" fill="white"/>
<circle cx="230.5" cy="294.5" r="27.5" fill="#00272D"/>
<circle cx="230.5" cy="294.5" r="22.5" fill="white"/>
<path d="M284.84 469V464.88L292.92 456.44C294.52 454.76 295.747 453.427 296.6 452.44C297.48 451.427 298.093 450.56 298.44 449.84C298.787 449.12 298.96 448.387 298.96 447.64C298.96 446.387 298.56 445.4 297.76 444.68C296.987 443.96 295.987 443.6 294.76 443.6C293.48 443.6 292.373 443.973 291.44 444.72C290.507 445.44 289.827 446.507 289.4 447.92L284.64 446.44C284.96 444.867 285.613 443.507 286.6 442.36C287.587 441.187 288.787 440.293 290.2 439.68C291.64 439.04 293.16 438.72 294.76 438.72C296.68 438.72 298.36 439.067 299.8 439.76C301.267 440.453 302.4 441.427 303.2 442.68C304.027 443.933 304.44 445.4 304.44 447.08C304.44 448.147 304.24 449.2 303.84 450.24C303.44 451.28 302.84 452.347 302.04 453.44C301.24 454.507 300.2 455.707 298.92 457.04L291.92 464.4H304.84V469H284.84ZM322.747 469.48C321.174 469.48 319.667 469.187 318.227 468.6C316.814 468.013 315.587 467.187 314.547 466.12C313.534 465.027 312.841 463.733 312.467 462.24L317.187 460.56C317.641 461.92 318.374 462.933 319.387 463.6C320.401 464.24 321.521 464.56 322.747 464.56C323.761 464.56 324.654 464.347 325.427 463.92C326.227 463.467 326.841 462.853 327.267 462.08C327.694 461.28 327.907 460.36 327.907 459.32C327.907 458.28 327.681 457.373 327.227 456.6C326.801 455.827 326.201 455.227 325.427 454.8C324.654 454.347 323.761 454.12 322.747 454.12C321.707 454.12 320.761 454.347 319.907 454.8C319.081 455.253 318.481 455.907 318.107 456.76L313.667 455.76L316.027 439.2H332.267V443.8H318.187L320.227 441.44L318.547 453.92L316.987 452.64C317.734 451.547 318.641 450.747 319.707 450.24C320.801 449.733 322.121 449.48 323.667 449.48C325.641 449.48 327.347 449.907 328.787 450.76C330.254 451.613 331.387 452.773 332.187 454.24C332.987 455.707 333.387 457.4 333.387 459.32C333.387 461.24 332.921 462.973 331.987 464.52C331.054 466.067 329.787 467.28 328.187 468.16C326.587 469.04 324.774 469.48 322.747 469.48ZM353.466 469V439.2H358.666L369.826 454.36H367.346L378.266 439.2H383.466V469H377.986V445.4L380.106 445.92L368.786 461H368.146L357.106 445.92L358.906 445.4V469H353.466ZM399.329 469.48C397.809 469.48 396.489 469.227 395.369 468.72C394.249 468.213 393.382 467.493 392.769 466.56C392.156 465.6 391.849 464.493 391.849 463.24C391.849 462.04 392.116 460.973 392.649 460.04C393.182 459.08 394.009 458.28 395.129 457.64C396.249 457 397.662 456.547 399.369 456.28L406.489 455.12V459.12L400.369 460.16C399.329 460.347 398.556 460.68 398.049 461.16C397.542 461.64 397.289 462.267 397.289 463.04C397.289 463.787 397.569 464.387 398.129 464.84C398.716 465.267 399.436 465.48 400.289 465.48C401.382 465.48 402.342 465.253 403.169 464.8C404.022 464.32 404.676 463.667 405.129 462.84C405.609 462.013 405.849 461.107 405.849 460.12V454.52C405.849 453.587 405.476 452.813 404.729 452.2C404.009 451.56 403.049 451.24 401.849 451.24C400.729 451.24 399.729 451.547 398.849 452.16C397.996 452.747 397.369 453.533 396.969 454.52L392.689 452.44C393.116 451.293 393.782 450.307 394.689 449.48C395.622 448.627 396.716 447.96 397.969 447.48C399.222 447 400.582 446.76 402.049 446.76C403.836 446.76 405.409 447.093 406.769 447.76C408.129 448.4 409.182 449.307 409.929 450.48C410.702 451.627 411.089 452.973 411.089 454.52V469H406.129V465.28L407.249 465.2C406.689 466.133 406.022 466.92 405.249 467.56C404.476 468.173 403.596 468.653 402.609 469C401.622 469.32 400.529 469.48 399.329 469.48ZM419.932 469V447.24H424.852V452.08L424.452 451.36C424.959 449.733 425.746 448.6 426.812 447.96C427.906 447.32 429.212 447 430.732 447H432.012V451.64H430.132C428.639 451.64 427.439 452.107 426.532 453.04C425.626 453.947 425.172 455.227 425.172 456.88V469H419.932ZM449.373 469.48C447.213 469.48 445.266 468.987 443.533 468C441.826 466.987 440.48 465.627 439.493 463.92C438.506 462.187 438.013 460.24 438.013 458.08C438.013 455.92 438.506 453.987 439.493 452.28C440.48 450.573 441.826 449.227 443.533 448.24C445.266 447.253 447.213 446.76 449.373 446.76C450.92 446.76 452.36 447.04 453.693 447.6C455.026 448.133 456.173 448.88 457.133 449.84C458.12 450.773 458.826 451.893 459.253 453.2L454.653 455.2C454.253 454.107 453.573 453.227 452.613 452.56C451.68 451.893 450.6 451.56 449.373 451.56C448.226 451.56 447.2 451.84 446.293 452.4C445.413 452.96 444.72 453.733 444.213 454.72C443.706 455.707 443.453 456.84 443.453 458.12C443.453 459.4 443.706 460.533 444.213 461.52C444.72 462.507 445.413 463.28 446.293 463.84C447.2 464.4 448.226 464.68 449.373 464.68C450.626 464.68 451.72 464.347 452.653 463.68C453.586 463.013 454.253 462.12 454.653 461L459.253 463.08C458.826 464.307 458.133 465.413 457.173 466.4C456.213 467.36 455.066 468.12 453.733 468.68C452.4 469.213 450.946 469.48 449.373 469.48ZM467.229 469V438.72H472.469V451.52L471.749 450.76C472.256 449.453 473.082 448.467 474.229 447.8C475.402 447.107 476.762 446.76 478.309 446.76C479.909 446.76 481.322 447.107 482.549 447.8C483.802 448.493 484.776 449.467 485.469 450.72C486.162 451.947 486.509 453.373 486.509 455V469H481.269V456.24C481.269 455.28 481.082 454.453 480.709 453.76C480.336 453.067 479.816 452.533 479.149 452.16C478.509 451.76 477.749 451.56 476.869 451.56C476.016 451.56 475.256 451.76 474.589 452.16C473.922 452.533 473.402 453.067 473.029 453.76C472.656 454.453 472.469 455.28 472.469 456.24V469H467.229ZM505.449 469V464.88L513.529 456.44C515.129 454.76 516.356 453.427 517.209 452.44C518.089 451.427 518.703 450.56 519.049 449.84C519.396 449.12 519.569 448.387 519.569 447.64C519.569 446.387 519.169 445.4 518.369 444.68C517.596 443.96 516.596 443.6 515.369 443.6C514.089 443.6 512.983 443.973 512.049 444.72C511.116 445.44 510.436 446.507 510.009 447.92L505.249 446.44C505.569 444.867 506.223 443.507 507.209 442.36C508.196 441.187 509.396 440.293 510.809 439.68C512.249 439.04 513.769 438.72 515.369 438.72C517.289 438.72 518.969 439.067 520.409 439.76C521.876 440.453 523.009 441.427 523.809 442.68C524.636 443.933 525.049 445.4 525.049 447.08C525.049 448.147 524.849 449.2 524.449 450.24C524.049 451.28 523.449 452.347 522.649 453.44C521.849 454.507 520.809 455.707 519.529 457.04L512.529 464.4H525.449V469H505.449ZM545.637 469.48C543.263 469.48 541.183 468.84 539.397 467.56C537.61 466.28 536.21 464.48 535.197 462.16C534.21 459.84 533.717 457.147 533.717 454.08C533.717 450.987 534.21 448.293 535.197 446C536.183 443.707 537.57 441.92 539.357 440.64C541.143 439.36 543.223 438.72 545.597 438.72C548.023 438.72 550.117 439.36 551.877 440.64C553.663 441.92 555.063 443.72 556.077 446.04C557.09 448.333 557.597 451.013 557.597 454.08C557.597 457.147 557.09 459.84 556.077 462.16C555.09 464.453 553.703 466.253 551.917 467.56C550.13 468.84 548.037 469.48 545.637 469.48ZM545.677 464.52C547.037 464.52 548.197 464.107 549.157 463.28C550.117 462.427 550.85 461.227 551.357 459.68C551.89 458.107 552.157 456.24 552.157 454.08C552.157 451.92 551.89 450.067 551.357 448.52C550.85 446.947 550.103 445.747 549.117 444.92C548.157 444.093 546.983 443.68 545.597 443.68C544.263 443.68 543.117 444.093 542.157 444.92C541.197 445.747 540.45 446.947 539.917 448.52C539.41 450.067 539.157 451.92 539.157 454.08C539.157 456.213 539.41 458.067 539.917 459.64C540.45 461.187 541.197 462.387 542.157 463.24C543.143 464.093 544.317 464.52 545.677 464.52ZM565.637 469V464.88L573.717 456.44C575.317 454.76 576.544 453.427 577.397 452.44C578.277 451.427 578.89 450.56 579.237 449.84C579.584 449.12 579.757 448.387 579.757 447.64C579.757 446.387 579.357 445.4 578.557 444.68C577.784 443.96 576.784 443.6 575.557 443.6C574.277 443.6 573.17 443.973 572.237 444.72C571.304 445.44 570.624 446.507 570.197 447.92L565.437 446.44C565.757 444.867 566.41 443.507 567.397 442.36C568.384 441.187 569.584 440.293 570.997 439.68C572.437 439.04 573.957 438.72 575.557 438.72C577.477 438.72 579.157 439.067 580.597 439.76C582.064 440.453 583.197 441.427 583.997 442.68C584.824 443.933 585.237 445.4 585.237 447.08C585.237 448.147 585.037 449.2 584.637 450.24C584.237 451.28 583.637 452.347 582.837 453.44C582.037 454.507 580.997 455.707 579.717 457.04L572.717 464.4H585.637V469H565.637ZM606.393 469V462.44H592.713V457.88L606.073 439.2H611.753V457.88H616.113V462.44H611.753V469H606.393ZM596.713 459.84L595.753 457.88H606.393V443.48L607.793 443.92L596.713 459.84Z" fill="#00272D"/>
<path d="M32.9135 564V541.65H36.4535V560.85H46.1135V564H32.9135ZM55.1154 564.36C54.0154 564.36 53.0454 564.17 52.2054 563.79C51.3854 563.39 50.7454 562.85 50.2854 562.17C49.8254 561.47 49.5954 560.65 49.5954 559.71C49.5954 558.83 49.7854 558.04 50.1654 557.34C50.5654 556.64 51.1754 556.05 51.9954 555.57C52.8154 555.09 53.8454 554.75 55.0854 554.55L60.7254 553.62V556.29L55.7454 557.16C54.8454 557.32 54.1854 557.61 53.7654 558.03C53.3454 558.43 53.1354 558.95 53.1354 559.59C53.1354 560.21 53.3654 560.72 53.8254 561.12C54.3054 561.5 54.9154 561.69 55.6554 561.69C56.5754 561.69 57.3754 561.49 58.0554 561.09C58.7554 560.69 59.2954 560.16 59.6754 559.5C60.0554 558.82 60.2454 558.07 60.2454 557.25V553.08C60.2454 552.28 59.9454 551.63 59.3454 551.13C58.7654 550.61 57.9854 550.35 57.0054 550.35C56.1054 550.35 55.3154 550.59 54.6354 551.07C53.9754 551.53 53.4854 552.13 53.1654 552.87L50.3454 551.46C50.6454 550.66 51.1354 549.96 51.8154 549.36C52.4954 548.74 53.2854 548.26 54.1854 547.92C55.1054 547.58 56.0754 547.41 57.0954 547.41C58.3754 547.41 59.5054 547.65 60.4854 548.13C61.4854 548.61 62.2554 549.28 62.7954 550.14C63.3554 550.98 63.6354 551.96 63.6354 553.08V564H60.3954V561.06L61.0854 561.15C60.7054 561.81 60.2154 562.38 59.6154 562.86C59.0354 563.34 58.3654 563.71 57.6054 563.97C56.8654 564.23 56.0354 564.36 55.1154 564.36ZM75.0991 564.36C73.4391 564.36 71.9791 563.95 70.7191 563.13C69.4791 562.31 68.6091 561.21 68.1091 559.83L70.7191 558.6C71.1591 559.52 71.7591 560.25 72.5191 560.79C73.2991 561.33 74.1591 561.6 75.0991 561.6C75.8991 561.6 76.5491 561.42 77.0491 561.06C77.5491 560.7 77.7991 560.21 77.7991 559.59C77.7991 559.19 77.6891 558.87 77.4691 558.63C77.2491 558.37 76.9691 558.16 76.6291 558C76.3091 557.84 75.9791 557.72 75.6391 557.64L73.0891 556.92C71.6891 556.52 70.6391 555.92 69.9391 555.12C69.2591 554.3 68.9191 553.35 68.9191 552.27C68.9191 551.29 69.1691 550.44 69.6691 549.72C70.1691 548.98 70.8591 548.41 71.7391 548.01C72.6191 547.61 73.6091 547.41 74.7091 547.41C76.1891 547.41 77.5091 547.78 78.6691 548.52C79.8291 549.24 80.6491 550.25 81.1291 551.55L78.5191 552.78C78.1991 552 77.6891 551.38 76.9891 550.92C76.3091 550.46 75.5391 550.23 74.6791 550.23C73.9391 550.23 73.3491 550.41 72.9091 550.77C72.4691 551.11 72.2491 551.56 72.2491 552.12C72.2491 552.5 72.3491 552.82 72.5491 553.08C72.7491 553.32 73.0091 553.52 73.3291 553.68C73.6491 553.82 73.9791 553.94 74.3191 554.04L76.9591 554.82C78.2991 555.2 79.3291 555.8 80.0491 556.62C80.7691 557.42 81.1291 558.38 81.1291 559.5C81.1291 560.46 80.8691 561.31 80.3491 562.05C79.8491 562.77 79.1491 563.34 78.2491 563.76C77.3491 564.16 76.2991 564.36 75.0991 564.36ZM92.9707 564.18C91.2707 564.18 89.9507 563.7 89.0107 562.74C88.0707 561.78 87.6007 560.43 87.6007 558.69V550.83H84.7507V547.77H85.2007C85.9607 547.77 86.5507 547.55 86.9707 547.11C87.3907 546.67 87.6007 546.07 87.6007 545.31V544.05H90.9907V547.77H94.6807V550.83H90.9907V558.54C90.9907 559.1 91.0807 559.58 91.2607 559.98C91.4407 560.36 91.7307 560.66 92.1307 560.88C92.5307 561.08 93.0507 561.18 93.6907 561.18C93.8507 561.18 94.0307 561.17 94.2307 561.15C94.4307 561.13 94.6207 561.11 94.8007 561.09V564C94.5207 564.04 94.2107 564.08 93.8707 564.12C93.5307 564.16 93.2307 564.18 92.9707 564.18ZM113.853 564.36C112.293 564.36 110.893 563.99 109.653 563.25C108.433 562.49 107.463 561.47 106.743 560.19C106.043 558.91 105.693 557.47 105.693 555.87C105.693 554.27 106.053 552.83 106.773 551.55C107.493 550.27 108.463 549.26 109.683 548.52C110.903 547.78 112.283 547.41 113.823 547.41C115.123 547.41 116.273 547.67 117.273 548.19C118.273 548.71 119.063 549.43 119.643 550.35L119.133 551.13V541.29H122.493V564H119.283V560.7L119.673 561.33C119.113 562.31 118.313 563.06 117.273 563.58C116.233 564.1 115.093 564.36 113.853 564.36ZM114.183 561.21C115.123 561.21 115.963 560.98 116.703 560.52C117.463 560.06 118.053 559.43 118.473 558.63C118.913 557.81 119.133 556.89 119.133 555.87C119.133 554.85 118.913 553.94 118.473 553.14C118.053 552.34 117.463 551.71 116.703 551.25C115.963 550.79 115.123 550.56 114.183 550.56C113.243 550.56 112.393 550.79 111.633 551.25C110.873 551.71 110.283 552.34 109.863 553.14C109.443 553.94 109.233 554.85 109.233 555.87C109.233 556.89 109.443 557.81 109.863 558.63C110.283 559.43 110.863 560.06 111.603 560.52C112.363 560.98 113.223 561.21 114.183 561.21ZM132.811 564.36C131.711 564.36 130.741 564.17 129.901 563.79C129.081 563.39 128.441 562.85 127.981 562.17C127.521 561.47 127.291 560.65 127.291 559.71C127.291 558.83 127.481 558.04 127.861 557.34C128.261 556.64 128.871 556.05 129.691 555.57C130.511 555.09 131.541 554.75 132.781 554.55L138.421 553.62V556.29L133.441 557.16C132.541 557.32 131.881 557.61 131.461 558.03C131.041 558.43 130.831 558.95 130.831 559.59C130.831 560.21 131.061 560.72 131.521 561.12C132.001 561.5 132.611 561.69 133.351 561.69C134.271 561.69 135.071 561.49 135.751 561.09C136.451 560.69 136.991 560.16 137.371 559.5C137.751 558.82 137.941 558.07 137.941 557.25V553.08C137.941 552.28 137.641 551.63 137.041 551.13C136.461 550.61 135.681 550.35 134.701 550.35C133.801 550.35 133.011 550.59 132.331 551.07C131.671 551.53 131.181 552.13 130.861 552.87L128.041 551.46C128.341 550.66 128.831 549.96 129.511 549.36C130.191 548.74 130.981 548.26 131.881 547.92C132.801 547.58 133.771 547.41 134.791 547.41C136.071 547.41 137.201 547.65 138.181 548.13C139.181 548.61 139.951 549.28 140.491 550.14C141.051 550.98 141.331 551.96 141.331 553.08V564H138.091V561.06L138.781 561.15C138.401 561.81 137.911 562.38 137.311 562.86C136.731 563.34 136.061 563.71 135.301 563.97C134.561 564.23 133.731 564.36 132.811 564.36ZM153.521 564.18C151.821 564.18 150.501 563.7 149.561 562.74C148.621 561.78 148.151 560.43 148.151 558.69V550.83H145.301V547.77H145.751C146.511 547.77 147.101 547.55 147.521 547.11C147.941 546.67 148.151 546.07 148.151 545.31V544.05H151.541V547.77H155.231V550.83H151.541V558.54C151.541 559.1 151.631 559.58 151.811 559.98C151.991 560.36 152.281 560.66 152.681 560.88C153.081 561.08 153.601 561.18 154.241 561.18C154.401 561.18 154.581 561.17 154.781 561.15C154.981 561.13 155.171 561.11 155.351 561.09V564C155.071 564.04 154.761 564.08 154.421 564.12C154.081 564.16 153.781 564.18 153.521 564.18ZM167.487 564.36C165.867 564.36 164.427 563.99 163.167 563.25C161.927 562.49 160.957 561.47 160.257 560.19C159.557 558.89 159.207 557.44 159.207 555.84C159.207 554.2 159.557 552.75 160.257 551.49C160.977 550.23 161.937 549.24 163.137 548.52C164.337 547.78 165.697 547.41 167.217 547.41C168.437 547.41 169.527 547.62 170.487 548.04C171.447 548.46 172.257 549.04 172.917 549.78C173.577 550.5 174.077 551.33 174.417 552.27C174.777 553.21 174.957 554.21 174.957 555.27C174.957 555.53 174.947 555.8 174.927 556.08C174.907 556.36 174.867 556.62 174.807 556.86H161.877V554.16H172.887L171.267 555.39C171.467 554.41 171.397 553.54 171.057 552.78C170.737 552 170.237 551.39 169.557 550.95C168.897 550.49 168.117 550.26 167.217 550.26C166.317 550.26 165.517 550.49 164.817 550.95C164.117 551.39 163.577 552.03 163.197 552.87C162.817 553.69 162.667 554.69 162.747 555.87C162.647 556.97 162.797 557.93 163.197 558.75C163.617 559.57 164.197 560.21 164.937 560.67C165.697 561.13 166.557 561.36 167.517 561.36C168.497 561.36 169.327 561.14 170.007 560.7C170.707 560.26 171.257 559.69 171.657 558.99L174.417 560.34C174.097 561.1 173.597 561.79 172.917 562.41C172.257 563.01 171.457 563.49 170.517 563.85C169.597 564.19 168.587 564.36 167.487 564.36ZM193.529 564.18C191.829 564.18 190.509 563.7 189.569 562.74C188.629 561.78 188.159 560.43 188.159 558.69V550.83H185.309V547.77H185.759C186.519 547.77 187.109 547.55 187.529 547.11C187.949 546.67 188.159 546.07 188.159 545.31V544.05H191.549V547.77H195.239V550.83H191.549V558.54C191.549 559.1 191.639 559.58 191.819 559.98C191.999 560.36 192.289 560.66 192.689 560.88C193.089 561.08 193.609 561.18 194.249 561.18C194.409 561.18 194.589 561.17 194.789 561.15C194.989 561.13 195.179 561.11 195.359 561.09V564C195.079 564.04 194.769 564.08 194.429 564.12C194.089 564.16 193.789 564.18 193.529 564.18ZM207.705 564.36C206.145 564.36 204.715 563.99 203.415 563.25C202.135 562.51 201.115 561.5 200.355 560.22C199.595 558.94 199.215 557.49 199.215 555.87C199.215 554.23 199.595 552.78 200.355 551.52C201.115 550.24 202.135 549.24 203.415 548.52C204.695 547.78 206.125 547.41 207.705 547.41C209.305 547.41 210.735 547.78 211.995 548.52C213.275 549.24 214.285 550.24 215.025 551.52C215.785 552.78 216.165 554.23 216.165 555.87C216.165 557.51 215.785 558.97 215.025 560.25C214.265 561.53 213.245 562.54 211.965 563.28C210.685 564 209.265 564.36 207.705 564.36ZM207.705 561.21C208.665 561.21 209.515 560.98 210.255 560.52C210.995 560.06 211.575 559.43 211.995 558.63C212.435 557.81 212.655 556.89 212.655 555.87C212.655 554.85 212.435 553.94 211.995 553.14C211.575 552.34 210.995 551.71 210.255 551.25C209.515 550.79 208.665 550.56 207.705 550.56C206.765 550.56 205.915 550.79 205.155 551.25C204.415 551.71 203.825 552.34 203.385 553.14C202.965 553.94 202.755 554.85 202.755 555.87C202.755 556.89 202.965 557.81 203.385 558.63C203.825 559.43 204.415 560.06 205.155 560.52C205.915 560.98 206.765 561.21 207.705 561.21ZM233.718 564.36C232.058 564.36 230.598 563.95 229.338 563.13C228.098 562.31 227.228 561.21 226.728 559.83L229.338 558.6C229.778 559.52 230.378 560.25 231.138 560.79C231.918 561.33 232.778 561.6 233.718 561.6C234.518 561.6 235.168 561.42 235.668 561.06C236.168 560.7 236.418 560.21 236.418 559.59C236.418 559.19 236.308 558.87 236.088 558.63C235.868 558.37 235.588 558.16 235.248 558C234.928 557.84 234.598 557.72 234.258 557.64L231.708 556.92C230.308 556.52 229.258 555.92 228.558 555.12C227.878 554.3 227.538 553.35 227.538 552.27C227.538 551.29 227.788 550.44 228.288 549.72C228.788 548.98 229.478 548.41 230.358 548.01C231.238 547.61 232.228 547.41 233.328 547.41C234.808 547.41 236.128 547.78 237.288 548.52C238.448 549.24 239.268 550.25 239.748 551.55L237.138 552.78C236.818 552 236.308 551.38 235.608 550.92C234.928 550.46 234.158 550.23 233.298 550.23C232.558 550.23 231.968 550.41 231.528 550.77C231.088 551.11 230.868 551.56 230.868 552.12C230.868 552.5 230.968 552.82 231.168 553.08C231.368 553.32 231.628 553.52 231.948 553.68C232.268 553.82 232.598 553.94 232.938 554.04L235.578 554.82C236.918 555.2 237.948 555.8 238.668 556.62C239.388 557.42 239.748 558.38 239.748 559.5C239.748 560.46 239.488 561.31 238.968 562.05C238.468 562.77 237.768 563.34 236.868 563.76C235.968 564.16 234.918 564.36 233.718 564.36ZM250.36 564.36C249.14 564.36 248.07 564.09 247.15 563.55C246.23 562.99 245.51 562.22 244.99 561.24C244.49 560.24 244.24 559.09 244.24 557.79V547.77H247.63V557.49C247.63 558.23 247.78 558.88 248.08 559.44C248.38 560 248.8 560.44 249.34 560.76C249.88 561.06 250.5 561.21 251.2 561.21C251.92 561.21 252.55 561.05 253.09 560.73C253.63 560.41 254.05 559.96 254.35 559.38C254.67 558.8 254.83 558.12 254.83 557.34V547.77H258.19V564H254.98V560.82L255.34 561.24C254.96 562.24 254.33 563.01 253.45 563.55C252.57 564.09 251.54 564.36 250.36 564.36ZM272.318 564.36C271.058 564.36 269.908 564.1 268.868 563.58C267.848 563.06 267.058 562.31 266.498 561.33L266.888 560.7V564H263.648V541.29H267.038V551.13L266.498 550.35C267.098 549.43 267.898 548.71 268.898 548.19C269.898 547.67 271.038 547.41 272.318 547.41C273.858 547.41 275.238 547.78 276.458 548.52C277.698 549.26 278.668 550.27 279.368 551.55C280.088 552.83 280.448 554.27 280.448 555.87C280.448 557.47 280.088 558.91 279.368 560.19C278.668 561.47 277.708 562.49 276.488 563.25C275.268 563.99 273.878 564.36 272.318 564.36ZM271.988 561.21C272.948 561.21 273.798 560.98 274.538 560.52C275.278 560.06 275.858 559.43 276.278 558.63C276.718 557.81 276.938 556.89 276.938 555.87C276.938 554.85 276.718 553.94 276.278 553.14C275.858 552.34 275.278 551.71 274.538 551.25C273.798 550.79 272.948 550.56 271.988 550.56C271.048 550.56 270.198 550.79 269.438 551.25C268.698 551.71 268.108 552.34 267.668 553.14C267.248 553.94 267.038 554.85 267.038 555.87C267.038 556.89 267.248 557.81 267.668 558.63C268.108 559.43 268.698 560.06 269.438 560.52C270.198 560.98 271.048 561.21 271.988 561.21ZM285.246 564V547.77H288.486V551.28L288.066 550.74C288.406 549.64 289.026 548.81 289.926 548.25C290.826 547.69 291.856 547.41 293.016 547.41C294.316 547.41 295.466 547.76 296.466 548.46C297.486 549.14 298.166 550.05 298.506 551.19L297.546 551.28C298.026 549.98 298.756 549.01 299.736 548.37C300.736 547.73 301.876 547.41 303.156 547.41C304.276 547.41 305.286 547.67 306.186 548.19C307.106 548.71 307.836 549.43 308.376 550.35C308.916 551.27 309.186 552.32 309.186 553.5V564H305.796V554.43C305.796 553.61 305.646 552.92 305.346 552.36C305.066 551.78 304.666 551.34 304.146 551.04C303.646 550.72 303.056 550.56 302.376 550.56C301.696 550.56 301.096 550.72 300.576 551.04C300.056 551.34 299.646 551.78 299.346 552.36C299.046 552.94 298.896 553.63 298.896 554.43V564H295.536V554.43C295.536 553.61 295.386 552.92 295.086 552.36C294.806 551.78 294.406 551.34 293.886 551.04C293.386 550.72 292.786 550.56 292.086 550.56C291.406 550.56 290.806 550.72 290.286 551.04C289.766 551.34 289.356 551.78 289.056 552.36C288.776 552.94 288.636 553.63 288.636 554.43V564H285.246ZM314.314 564V547.77H317.704V564H314.314ZM314.314 545.55V541.65H317.704V545.55H314.314ZM330.188 564.18C328.488 564.18 327.168 563.7 326.228 562.74C325.288 561.78 324.818 560.43 324.818 558.69V550.83H321.968V547.77H322.418C323.178 547.77 323.768 547.55 324.188 547.11C324.608 546.67 324.818 546.07 324.818 545.31V544.05H328.208V547.77H331.898V550.83H328.208V558.54C328.208 559.1 328.298 559.58 328.478 559.98C328.658 560.36 328.948 560.66 329.348 560.88C329.748 561.08 330.268 561.18 330.908 561.18C331.068 561.18 331.248 561.17 331.448 561.15C331.648 561.13 331.838 561.11 332.018 561.09V564C331.738 564.04 331.428 564.08 331.088 564.12C330.748 564.16 330.448 564.18 330.188 564.18ZM343.57 570V547.77H346.81V551.13L346.42 550.35C347.02 549.43 347.82 548.71 348.82 548.19C349.82 547.67 350.96 547.41 352.24 547.41C353.78 547.41 355.16 547.78 356.38 548.52C357.62 549.26 358.59 550.27 359.29 551.55C360.01 552.83 360.37 554.27 360.37 555.87C360.37 557.47 360.01 558.91 359.29 560.19C358.59 561.47 357.63 562.49 356.41 563.25C355.19 563.99 353.8 564.36 352.24 564.36C350.98 564.36 349.83 564.1 348.79 563.58C347.77 563.06 346.98 562.31 346.42 561.33L346.96 560.7V570H343.57ZM351.91 561.21C352.87 561.21 353.72 560.98 354.46 560.52C355.2 560.06 355.78 559.43 356.2 558.63C356.64 557.81 356.86 556.89 356.86 555.87C356.86 554.85 356.64 553.94 356.2 553.14C355.78 552.34 355.2 551.71 354.46 551.25C353.72 550.79 352.87 550.56 351.91 550.56C350.97 550.56 350.12 550.79 349.36 551.25C348.62 551.71 348.03 552.34 347.59 553.14C347.17 553.94 346.96 554.85 346.96 555.87C346.96 556.89 347.17 557.81 347.59 558.63C348.03 559.43 348.62 560.06 349.36 560.52C350.12 560.98 350.97 561.21 351.91 561.21ZM370.028 564.36C368.928 564.36 367.958 564.17 367.118 563.79C366.298 563.39 365.658 562.85 365.198 562.17C364.738 561.47 364.508 560.65 364.508 559.71C364.508 558.83 364.698 558.04 365.078 557.34C365.478 556.64 366.088 556.05 366.908 555.57C367.728 555.09 368.758 554.75 369.998 554.55L375.638 553.62V556.29L370.658 557.16C369.758 557.32 369.098 557.61 368.678 558.03C368.258 558.43 368.048 558.95 368.048 559.59C368.048 560.21 368.278 560.72 368.738 561.12C369.218 561.5 369.828 561.69 370.568 561.69C371.488 561.69 372.288 561.49 372.968 561.09C373.668 560.69 374.208 560.16 374.588 559.5C374.968 558.82 375.158 558.07 375.158 557.25V553.08C375.158 552.28 374.858 551.63 374.258 551.13C373.678 550.61 372.898 550.35 371.918 550.35C371.018 550.35 370.228 550.59 369.548 551.07C368.888 551.53 368.398 552.13 368.078 552.87L365.258 551.46C365.558 550.66 366.048 549.96 366.728 549.36C367.408 548.74 368.198 548.26 369.098 547.92C370.018 547.58 370.988 547.41 372.007 547.41C373.288 547.41 374.418 547.65 375.398 548.13C376.398 548.61 377.168 549.28 377.708 550.14C378.268 550.98 378.548 551.96 378.548 553.08V564H375.308V561.06L375.998 561.15C375.618 561.81 375.128 562.38 374.528 562.86C373.948 563.34 373.278 563.71 372.518 563.97C371.778 564.23 370.948 564.36 370.028 564.36ZM384.011 570V547.77H387.251V551.13L386.861 550.35C387.461 549.43 388.261 548.71 389.261 548.19C390.261 547.67 391.401 547.41 392.681 547.41C394.221 547.41 395.601 547.78 396.821 548.52C398.061 549.26 399.031 550.27 399.731 551.55C400.451 552.83 400.811 554.27 400.811 555.87C400.811 557.47 400.451 558.91 399.731 560.19C399.031 561.47 398.071 562.49 396.851 563.25C395.631 563.99 394.241 564.36 392.681 564.36C391.421 564.36 390.271 564.1 389.231 563.58C388.211 563.06 387.421 562.31 386.861 561.33L387.401 560.7V570H384.011ZM392.351 561.21C393.311 561.21 394.161 560.98 394.901 560.52C395.641 560.06 396.221 559.43 396.641 558.63C397.081 557.81 397.301 556.89 397.301 555.87C397.301 554.85 397.081 553.94 396.641 553.14C396.221 552.34 395.641 551.71 394.901 551.25C394.161 550.79 393.311 550.56 392.351 550.56C391.411 550.56 390.561 550.79 389.801 551.25C389.061 551.71 388.471 552.34 388.031 553.14C387.611 553.94 387.401 554.85 387.401 555.87C387.401 556.89 387.611 557.81 388.031 558.63C388.471 559.43 389.061 560.06 389.801 560.52C390.561 560.98 391.411 561.21 392.351 561.21ZM413.229 564.36C411.609 564.36 410.169 563.99 408.909 563.25C407.669 562.49 406.699 561.47 405.999 560.19C405.299 558.89 404.949 557.44 404.949 555.84C404.949 554.2 405.299 552.75 405.999 551.49C406.719 550.23 407.679 549.24 408.879 548.52C410.079 547.78 411.439 547.41 412.959 547.41C414.179 547.41 415.269 547.62 416.229 548.04C417.189 548.46 417.999 549.04 418.659 549.78C419.319 550.5 419.819 551.33 420.159 552.27C420.519 553.21 420.699 554.21 420.699 555.27C420.699 555.53 420.689 555.8 420.669 556.08C420.649 556.36 420.609 556.62 420.549 556.86H407.619V554.16H418.629L417.009 555.39C417.209 554.41 417.139 553.54 416.799 552.78C416.479 552 415.979 551.39 415.299 550.95C414.639 550.49 413.859 550.26 412.959 550.26C412.059 550.26 411.259 550.49 410.559 550.95C409.859 551.39 409.319 552.03 408.939 552.87C408.559 553.69 408.409 554.69 408.489 555.87C408.389 556.97 408.539 557.93 408.939 558.75C409.359 559.57 409.939 560.21 410.679 560.67C411.439 561.13 412.299 561.36 413.259 561.36C414.239 561.36 415.069 561.14 415.749 560.7C416.449 560.26 416.999 559.69 417.399 558.99L420.159 560.34C419.839 561.1 419.339 561.79 418.659 562.41C417.999 563.01 417.199 563.49 416.259 563.85C415.339 564.19 414.329 564.36 413.229 564.36ZM425.507 564V547.77H428.747V551.04L428.447 550.56C428.807 549.5 429.387 548.74 430.187 548.28C430.987 547.8 431.947 547.56 433.067 547.56H434.057V550.65H432.647C431.527 550.65 430.617 551 429.917 551.7C429.237 552.38 428.897 553.36 428.897 554.64V564H425.507Z" fill="#00272D"/>
<line x1="233" y1="339" x2="233" y2="516" stroke="#00272D" stroke-width="4"/>
<path d="M233 524L237.763 514.25H228.237L233 524Z" fill="#00272D"/>
<path d="M683 226H984.239L1054 294H753.395L683 226Z" fill="#00272D"/>
<path d="M684 373H984.427L1054 305H754.205L684 373Z" fill="#00272D"/>
<circle cx="878" cy="295" r="35" fill="white"/>
<circle cx="877.5" cy="294.5" r="27.5" fill="#00272D"/>
<circle cx="877.5" cy="294.5" r="22.5" fill="white"/>
<path d="M944.16 469.48C941.787 469.48 939.707 468.84 937.92 467.56C936.133 466.28 934.733 464.48 933.72 462.16C932.733 459.84 932.24 457.147 932.24 454.08C932.24 450.987 932.733 448.293 933.72 446C934.707 443.707 936.093 441.92 937.88 440.64C939.667 439.36 941.747 438.72 944.12 438.72C946.547 438.72 948.64 439.36 950.4 440.64C952.187 441.92 953.587 443.72 954.6 446.04C955.613 448.333 956.12 451.013 956.12 454.08C956.12 457.147 955.613 459.84 954.6 462.16C953.613 464.453 952.227 466.253 950.44 467.56C948.653 468.84 946.56 469.48 944.16 469.48ZM944.2 464.52C945.56 464.52 946.72 464.107 947.68 463.28C948.64 462.427 949.373 461.227 949.88 459.68C950.413 458.107 950.68 456.24 950.68 454.08C950.68 451.92 950.413 450.067 949.88 448.52C949.373 446.947 948.627 445.747 947.64 444.92C946.68 444.093 945.507 443.68 944.12 443.68C942.787 443.68 941.64 444.093 940.68 444.92C939.72 445.747 938.973 446.947 938.44 448.52C937.933 450.067 937.68 451.92 937.68 454.08C937.68 456.213 937.933 458.067 938.44 459.64C938.973 461.187 939.72 462.387 940.68 463.24C941.667 464.093 942.84 464.52 944.2 464.52ZM974.2 469.48C972.627 469.48 971.12 469.187 969.68 468.6C968.267 468.013 967.04 467.187 966 466.12C964.987 465.027 964.294 463.733 963.92 462.24L968.64 460.56C969.094 461.92 969.827 462.933 970.84 463.6C971.854 464.24 972.974 464.56 974.2 464.56C975.214 464.56 976.107 464.347 976.88 463.92C977.68 463.467 978.294 462.853 978.72 462.08C979.147 461.28 979.36 460.36 979.36 459.32C979.36 458.28 979.134 457.373 978.68 456.6C978.254 455.827 977.654 455.227 976.88 454.8C976.107 454.347 975.214 454.12 974.2 454.12C973.16 454.12 972.214 454.347 971.36 454.8C970.534 455.253 969.934 455.907 969.56 456.76L965.12 455.76L967.48 439.2H983.72V443.8H969.64L971.68 441.44L970 453.92L968.44 452.64C969.187 451.547 970.094 450.747 971.16 450.24C972.254 449.733 973.574 449.48 975.12 449.48C977.094 449.48 978.8 449.907 980.24 450.76C981.707 451.613 982.84 452.773 983.64 454.24C984.44 455.707 984.84 457.4 984.84 459.32C984.84 461.24 984.374 462.973 983.44 464.52C982.507 466.067 981.24 467.28 979.64 468.16C978.04 469.04 976.227 469.48 974.2 469.48ZM1002.48 469L1012.76 439.2H1019.8L1030.08 469H1024.16L1022.04 462.6H1010.52L1008.36 469H1002.48ZM1012.08 457.8H1020.48L1015.52 442.96H1017.04L1012.08 457.8ZM1036.96 477V447.24H1041.88V451.56L1041.4 450.48C1042.14 449.307 1043.16 448.4 1044.44 447.76C1045.72 447.093 1047.2 446.76 1048.88 446.76C1050.93 446.76 1052.78 447.267 1054.44 448.28C1056.09 449.293 1057.4 450.653 1058.36 452.36C1059.34 454.067 1059.84 455.987 1059.84 458.12C1059.84 460.227 1059.36 462.147 1058.4 463.88C1057.44 465.613 1056.13 466.987 1054.48 468C1052.82 468.987 1050.94 469.48 1048.84 469.48C1047.26 469.48 1045.81 469.173 1044.48 468.56C1043.17 467.92 1042.13 467.013 1041.36 465.84L1042.2 464.8V477H1036.96ZM1048.24 464.68C1049.44 464.68 1050.5 464.4 1051.44 463.84C1052.37 463.28 1053.09 462.507 1053.6 461.52C1054.13 460.533 1054.4 459.4 1054.4 458.12C1054.4 456.84 1054.13 455.72 1053.6 454.76C1053.09 453.773 1052.37 453 1051.44 452.44C1050.5 451.853 1049.44 451.56 1048.24 451.56C1047.09 451.56 1046.05 451.84 1045.12 452.4C1044.21 452.96 1043.49 453.747 1042.96 454.76C1042.45 455.747 1042.2 456.867 1042.2 458.12C1042.2 459.4 1042.45 460.533 1042.96 461.52C1043.49 462.507 1044.21 463.28 1045.12 463.84C1046.05 464.4 1047.09 464.68 1048.24 464.68ZM1067.83 469V447.24H1072.75V452.08L1072.35 451.36C1072.86 449.733 1073.64 448.6 1074.71 447.96C1075.8 447.32 1077.11 447 1078.63 447H1079.91V451.64H1078.03C1076.54 451.64 1075.34 452.107 1074.43 453.04C1073.52 453.947 1073.07 455.227 1073.07 456.88V469H1067.83ZM1086.79 469V447.24H1092.03V469H1086.79ZM1086.79 444.8V439.2H1092.03V444.8H1086.79ZM1100.87 469V438.72H1106.11V469H1100.87ZM1125.46 469V464.88L1133.54 456.44C1135.14 454.76 1136.36 453.427 1137.22 452.44C1138.1 451.427 1138.71 450.56 1139.06 449.84C1139.4 449.12 1139.58 448.387 1139.58 447.64C1139.58 446.387 1139.18 445.4 1138.38 444.68C1137.6 443.96 1136.6 443.6 1135.38 443.6C1134.1 443.6 1132.99 443.973 1132.06 444.72C1131.12 445.44 1130.44 446.507 1130.02 447.92L1125.26 446.44C1125.58 444.867 1126.23 443.507 1127.22 442.36C1128.2 441.187 1129.4 440.293 1130.82 439.68C1132.26 439.04 1133.78 438.72 1135.38 438.72C1137.3 438.72 1138.98 439.067 1140.42 439.76C1141.88 440.453 1143.02 441.427 1143.82 442.68C1144.64 443.933 1145.06 445.4 1145.06 447.08C1145.06 448.147 1144.86 449.2 1144.46 450.24C1144.06 451.28 1143.46 452.347 1142.66 453.44C1141.86 454.507 1140.82 455.707 1139.54 457.04L1132.54 464.4H1145.46V469H1125.46ZM1165.64 469.48C1163.27 469.48 1161.19 468.84 1159.4 467.56C1157.62 466.28 1156.22 464.48 1155.2 462.16C1154.22 459.84 1153.72 457.147 1153.72 454.08C1153.72 450.987 1154.22 448.293 1155.2 446C1156.19 443.707 1157.58 441.92 1159.36 440.64C1161.15 439.36 1163.23 438.72 1165.6 438.72C1168.03 438.72 1170.12 439.36 1171.88 440.64C1173.67 441.92 1175.07 443.72 1176.08 446.04C1177.1 448.333 1177.6 451.013 1177.6 454.08C1177.6 457.147 1177.1 459.84 1176.08 462.16C1175.1 464.453 1173.71 466.253 1171.92 467.56C1170.14 468.84 1168.04 469.48 1165.64 469.48ZM1165.68 464.52C1167.04 464.52 1168.2 464.107 1169.16 463.28C1170.12 462.427 1170.86 461.227 1171.36 459.68C1171.9 458.107 1172.16 456.24 1172.16 454.08C1172.16 451.92 1171.9 450.067 1171.36 448.52C1170.86 446.947 1170.11 445.747 1169.12 444.92C1168.16 444.093 1166.99 443.68 1165.6 443.68C1164.27 443.68 1163.12 444.093 1162.16 444.92C1161.2 445.747 1160.46 446.947 1159.92 448.52C1159.42 450.067 1159.16 451.92 1159.16 454.08C1159.16 456.213 1159.42 458.067 1159.92 459.64C1160.46 461.187 1161.2 462.387 1162.16 463.24C1163.15 464.093 1164.32 464.52 1165.68 464.52ZM1185.64 469V464.88L1193.72 456.44C1195.32 454.76 1196.55 453.427 1197.4 452.44C1198.28 451.427 1198.9 450.56 1199.24 449.84C1199.59 449.12 1199.76 448.387 1199.76 447.64C1199.76 446.387 1199.36 445.4 1198.56 444.68C1197.79 443.96 1196.79 443.6 1195.56 443.6C1194.28 443.6 1193.18 443.973 1192.24 444.72C1191.31 445.44 1190.63 446.507 1190.2 447.92L1185.44 446.44C1185.76 444.867 1186.42 443.507 1187.4 442.36C1188.39 441.187 1189.59 440.293 1191 439.68C1192.44 439.04 1193.96 438.72 1195.56 438.72C1197.48 438.72 1199.16 439.067 1200.6 439.76C1202.07 440.453 1203.2 441.427 1204 442.68C1204.83 443.933 1205.24 445.4 1205.24 447.08C1205.24 448.147 1205.04 449.2 1204.64 450.24C1204.24 451.28 1203.64 452.347 1202.84 453.44C1202.04 454.507 1201 455.707 1199.72 457.04L1192.72 464.4H1205.64V469H1185.64ZM1226.4 469V462.44H1212.72V457.88L1226.08 439.2H1231.76V457.88H1236.12V462.44H1231.76V469H1226.4ZM1216.72 459.84L1215.76 457.88H1226.4V443.48L1227.8 443.92L1216.72 459.84Z" fill="#00272D"/>
<path d="M731.726 564.36C730.146 564.36 728.676 564.07 727.316 563.49C725.976 562.91 724.806 562.11 723.806 561.09C722.826 560.05 722.056 558.83 721.496 557.43C720.936 556.03 720.656 554.49 720.656 552.81C720.656 551.15 720.926 549.62 721.466 548.22C722.026 546.8 722.806 545.58 723.806 544.56C724.806 543.52 725.976 542.72 727.316 542.16C728.656 541.58 730.126 541.29 731.726 541.29C733.306 541.29 734.716 541.56 735.956 542.1C737.216 542.64 738.276 543.35 739.136 544.23C739.996 545.09 740.616 546.03 740.996 547.05L737.816 548.55C737.336 547.35 736.566 546.38 735.506 545.64C734.466 544.88 733.206 544.5 731.726 544.5C730.246 544.5 728.936 544.85 727.796 545.55C726.656 546.25 725.766 547.22 725.126 548.46C724.506 549.7 724.196 551.15 724.196 552.81C724.196 554.47 724.506 555.93 725.126 557.19C725.766 558.43 726.656 559.4 727.796 560.1C728.936 560.78 730.246 561.12 731.726 561.12C733.206 561.12 734.466 560.75 735.506 560.01C736.566 559.27 737.336 558.3 737.816 557.1L740.996 558.6C740.616 559.6 739.996 560.54 739.136 561.42C738.276 562.3 737.216 563.01 735.956 563.55C734.716 564.09 733.306 564.36 731.726 564.36ZM750.373 564.36C749.273 564.36 748.303 564.17 747.463 563.79C746.643 563.39 746.003 562.85 745.543 562.17C745.083 561.47 744.853 560.65 744.853 559.71C744.853 558.83 745.043 558.04 745.423 557.34C745.823 556.64 746.433 556.05 747.253 555.57C748.073 555.09 749.103 554.75 750.343 554.55L755.983 553.62V556.29L751.003 557.16C750.103 557.32 749.443 557.61 749.023 558.03C748.603 558.43 748.393 558.95 748.393 559.59C748.393 560.21 748.623 560.72 749.083 561.12C749.563 561.5 750.173 561.69 750.913 561.69C751.833 561.69 752.633 561.49 753.313 561.09C754.013 560.69 754.553 560.16 754.933 559.5C755.313 558.82 755.503 558.07 755.503 557.25V553.08C755.503 552.28 755.203 551.63 754.603 551.13C754.023 550.61 753.243 550.35 752.263 550.35C751.363 550.35 750.573 550.59 749.893 551.07C749.233 551.53 748.743 552.13 748.423 552.87L745.603 551.46C745.903 550.66 746.393 549.96 747.073 549.36C747.753 548.74 748.543 548.26 749.443 547.92C750.363 547.58 751.333 547.41 752.353 547.41C753.633 547.41 754.763 547.65 755.743 548.13C756.743 548.61 757.513 549.28 758.053 550.14C758.613 550.98 758.893 551.96 758.893 553.08V564H755.653V561.06L756.343 561.15C755.963 561.81 755.473 562.38 754.873 562.86C754.293 563.34 753.623 563.71 752.863 563.97C752.123 564.23 751.293 564.36 750.373 564.36ZM764.357 564V547.77H767.597V551.28L767.177 550.74C767.517 549.64 768.137 548.81 769.037 548.25C769.937 547.69 770.967 547.41 772.127 547.41C773.427 547.41 774.577 547.76 775.577 548.46C776.597 549.14 777.277 550.05 777.617 551.19L776.657 551.28C777.137 549.98 777.867 549.01 778.847 548.37C779.847 547.73 780.987 547.41 782.267 547.41C783.387 547.41 784.397 547.67 785.297 548.19C786.217 548.71 786.947 549.43 787.487 550.35C788.027 551.27 788.297 552.32 788.297 553.5V564H784.907V554.43C784.907 553.61 784.757 552.92 784.457 552.36C784.177 551.78 783.777 551.34 783.257 551.04C782.757 550.72 782.167 550.56 781.487 550.56C780.807 550.56 780.207 550.72 779.687 551.04C779.167 551.34 778.757 551.78 778.457 552.36C778.157 552.94 778.007 553.63 778.007 554.43V564H774.647V554.43C774.647 553.61 774.497 552.92 774.197 552.36C773.917 551.78 773.517 551.34 772.997 551.04C772.497 550.72 771.897 550.56 771.197 550.56C770.517 550.56 769.917 550.72 769.397 551.04C768.877 551.34 768.467 551.78 768.167 552.36C767.887 552.94 767.747 553.63 767.747 554.43V564H764.357ZM801.045 564.36C799.425 564.36 797.985 563.99 796.725 563.25C795.485 562.49 794.515 561.47 793.815 560.19C793.115 558.89 792.765 557.44 792.765 555.84C792.765 554.2 793.115 552.75 793.815 551.49C794.535 550.23 795.495 549.24 796.695 548.52C797.895 547.78 799.255 547.41 800.775 547.41C801.995 547.41 803.085 547.62 804.045 548.04C805.005 548.46 805.815 549.04 806.475 549.78C807.135 550.5 807.635 551.33 807.975 552.27C808.335 553.21 808.515 554.21 808.515 555.27C808.515 555.53 808.505 555.8 808.485 556.08C808.465 556.36 808.425 556.62 808.365 556.86H795.435V554.16H806.445L804.825 555.39C805.025 554.41 804.955 553.54 804.615 552.78C804.295 552 803.795 551.39 803.115 550.95C802.455 550.49 801.675 550.26 800.775 550.26C799.875 550.26 799.075 550.49 798.375 550.95C797.675 551.39 797.135 552.03 796.755 552.87C796.375 553.69 796.225 554.69 796.305 555.87C796.205 556.97 796.355 557.93 796.755 558.75C797.175 559.57 797.755 560.21 798.495 560.67C799.255 561.13 800.115 561.36 801.075 561.36C802.055 561.36 802.885 561.14 803.565 560.7C804.265 560.26 804.815 559.69 805.215 558.99L807.975 560.34C807.655 561.1 807.155 561.79 806.475 562.41C805.815 563.01 805.015 563.49 804.075 563.85C803.155 564.19 802.145 564.36 801.045 564.36ZM813.324 564V547.77H816.564V551.04L816.264 550.56C816.624 549.5 817.204 548.74 818.004 548.28C818.804 547.8 819.764 547.56 820.884 547.56H821.874V550.65H820.464C819.344 550.65 818.434 551 817.734 551.7C817.054 552.38 816.714 553.36 816.714 554.64V564H813.324ZM830.553 564.36C829.453 564.36 828.483 564.17 827.643 563.79C826.823 563.39 826.183 562.85 825.723 562.17C825.263 561.47 825.033 560.65 825.033 559.71C825.033 558.83 825.223 558.04 825.603 557.34C826.003 556.64 826.613 556.05 827.433 555.57C828.253 555.09 829.283 554.75 830.523 554.55L836.163 553.62V556.29L831.183 557.16C830.283 557.32 829.623 557.61 829.203 558.03C828.783 558.43 828.573 558.95 828.573 559.59C828.573 560.21 828.803 560.72 829.263 561.12C829.743 561.5 830.353 561.69 831.093 561.69C832.013 561.69 832.813 561.49 833.493 561.09C834.193 560.69 834.733 560.16 835.113 559.5C835.493 558.82 835.683 558.07 835.683 557.25V553.08C835.683 552.28 835.383 551.63 834.783 551.13C834.203 550.61 833.423 550.35 832.443 550.35C831.543 550.35 830.753 550.59 830.073 551.07C829.413 551.53 828.923 552.13 828.603 552.87L825.783 551.46C826.083 550.66 826.573 549.96 827.253 549.36C827.933 548.74 828.723 548.26 829.623 547.92C830.543 547.58 831.513 547.41 832.533 547.41C833.813 547.41 834.943 547.65 835.923 548.13C836.923 548.61 837.693 549.28 838.233 550.14C838.793 550.98 839.073 551.96 839.073 553.08V564H835.833V561.06L836.523 561.15C836.143 561.81 835.653 562.38 835.053 562.86C834.473 563.34 833.803 563.71 833.043 563.97C832.303 564.23 831.473 564.36 830.553 564.36ZM851.281 564V547.77H854.521V551.04L854.221 550.56C854.581 549.5 855.161 548.74 855.961 548.28C856.761 547.8 857.721 547.56 858.841 547.56H859.831V550.65H858.421C857.301 550.65 856.391 551 855.691 551.7C855.011 552.38 854.671 553.36 854.671 554.64V564H851.281ZM871.27 564.36C869.65 564.36 868.21 563.99 866.95 563.25C865.71 562.49 864.74 561.47 864.04 560.19C863.34 558.89 862.99 557.44 862.99 555.84C862.99 554.2 863.34 552.75 864.04 551.49C864.76 550.23 865.72 549.24 866.92 548.52C868.12 547.78 869.48 547.41 871 547.41C872.22 547.41 873.31 547.62 874.27 548.04C875.23 548.46 876.04 549.04 876.7 549.78C877.36 550.5 877.86 551.33 878.2 552.27C878.56 553.21 878.74 554.21 878.74 555.27C878.74 555.53 878.73 555.8 878.71 556.08C878.69 556.36 878.65 556.62 878.59 556.86H865.66V554.16H876.67L875.05 555.39C875.25 554.41 875.18 553.54 874.84 552.78C874.52 552 874.02 551.39 873.34 550.95C872.68 550.49 871.9 550.26 871 550.26C870.1 550.26 869.3 550.49 868.6 550.95C867.9 551.39 867.36 552.03 866.98 552.87C866.6 553.69 866.45 554.69 866.53 555.87C866.43 556.97 866.58 557.93 866.98 558.75C867.4 559.57 867.98 560.21 868.72 560.67C869.48 561.13 870.34 561.36 871.3 561.36C872.28 561.36 873.11 561.14 873.79 560.7C874.49 560.26 875.04 559.69 875.44 558.99L878.2 560.34C877.88 561.1 877.38 561.79 876.7 562.41C876.04 563.01 875.24 563.49 874.3 563.85C873.38 564.19 872.37 564.36 871.27 564.36ZM888.262 564.36C887.162 564.36 886.192 564.17 885.352 563.79C884.532 563.39 883.892 562.85 883.432 562.17C882.972 561.47 882.742 560.65 882.742 559.71C882.742 558.83 882.932 558.04 883.312 557.34C883.712 556.64 884.322 556.05 885.142 555.57C885.962 555.09 886.992 554.75 888.232 554.55L893.872 553.62V556.29L888.892 557.16C887.992 557.32 887.332 557.61 886.912 558.03C886.492 558.43 886.282 558.95 886.282 559.59C886.282 560.21 886.512 560.72 886.972 561.12C887.452 561.5 888.062 561.69 888.802 561.69C889.722 561.69 890.522 561.49 891.202 561.09C891.902 560.69 892.442 560.16 892.822 559.5C893.202 558.82 893.392 558.07 893.392 557.25V553.08C893.392 552.28 893.092 551.63 892.492 551.13C891.912 550.61 891.132 550.35 890.152 550.35C889.252 550.35 888.462 550.59 887.782 551.07C887.122 551.53 886.632 552.13 886.312 552.87L883.492 551.46C883.792 550.66 884.282 549.96 884.962 549.36C885.642 548.74 886.432 548.26 887.332 547.92C888.252 547.58 889.222 547.41 890.242 547.41C891.522 547.41 892.652 547.65 893.632 548.13C894.632 548.61 895.402 549.28 895.942 550.14C896.502 550.98 896.782 551.96 896.782 553.08V564H893.542V561.06L894.232 561.15C893.852 561.81 893.362 562.38 892.762 562.86C892.182 563.34 891.512 563.71 890.752 563.97C890.012 564.23 889.182 564.36 888.262 564.36ZM909.746 564.36C908.186 564.36 906.786 563.99 905.546 563.25C904.326 562.49 903.356 561.47 902.636 560.19C901.936 558.91 901.586 557.47 901.586 555.87C901.586 554.27 901.946 552.83 902.666 551.55C903.386 550.27 904.356 549.26 905.576 548.52C906.796 547.78 908.176 547.41 909.716 547.41C911.016 547.41 912.166 547.67 913.166 548.19C914.166 548.71 914.956 549.43 915.536 550.35L915.026 551.13V541.29H918.386V564H915.176V560.7L915.566 561.33C915.006 562.31 914.206 563.06 913.166 563.58C912.126 564.1 910.986 564.36 909.746 564.36ZM910.076 561.21C911.016 561.21 911.856 560.98 912.596 560.52C913.356 560.06 913.946 559.43 914.366 558.63C914.806 557.81 915.026 556.89 915.026 555.87C915.026 554.85 914.806 553.94 914.366 553.14C913.946 552.34 913.356 551.71 912.596 551.25C911.856 550.79 911.016 550.56 910.076 550.56C909.136 550.56 908.286 550.79 907.526 551.25C906.766 551.71 906.176 552.34 905.756 553.14C905.336 553.94 905.126 554.85 905.126 555.87C905.126 556.89 905.336 557.81 905.756 558.63C906.176 559.43 906.756 560.06 907.496 560.52C908.256 560.98 909.116 561.21 910.076 561.21ZM925.283 570.63C924.883 570.63 924.483 570.59 924.083 570.51C923.703 570.45 923.353 570.35 923.033 570.21V567.3C923.273 567.36 923.563 567.41 923.903 567.45C924.243 567.51 924.573 567.54 924.893 567.54C925.833 567.54 926.523 567.33 926.963 566.91C927.423 566.51 927.833 565.88 928.193 565.02L929.273 562.56L929.213 565.41L922.193 547.77H925.823L931.013 561.3H929.783L934.943 547.77H938.603L931.433 565.77C931.053 566.73 930.573 567.57 929.993 568.29C929.433 569.03 928.763 569.6 927.983 570C927.223 570.42 926.323 570.63 925.283 570.63ZM949.167 570V547.77H952.408V551.13L952.018 550.35C952.618 549.43 953.418 548.71 954.418 548.19C955.418 547.67 956.558 547.41 957.838 547.41C959.378 547.41 960.758 547.78 961.978 548.52C963.218 549.26 964.188 550.27 964.888 551.55C965.608 552.83 965.968 554.27 965.968 555.87C965.968 557.47 965.608 558.91 964.888 560.19C964.188 561.47 963.228 562.49 962.008 563.25C960.788 563.99 959.398 564.36 957.838 564.36C956.578 564.36 955.428 564.1 954.388 563.58C953.368 563.06 952.578 562.31 952.018 561.33L952.558 560.7V570H949.167ZM957.508 561.21C958.468 561.21 959.318 560.98 960.058 560.52C960.798 560.06 961.378 559.43 961.798 558.63C962.238 557.81 962.458 556.89 962.458 555.87C962.458 554.85 962.238 553.94 961.798 553.14C961.378 552.34 960.798 551.71 960.058 551.25C959.318 550.79 958.468 550.56 957.508 550.56C956.568 550.56 955.718 550.79 954.958 551.25C954.218 551.71 953.628 552.34 953.188 553.14C952.768 553.94 952.558 554.85 952.558 555.87C952.558 556.89 952.768 557.81 953.188 558.63C953.628 559.43 954.218 560.06 954.958 560.52C955.718 560.98 956.568 561.21 957.508 561.21ZM975.625 564.36C974.525 564.36 973.555 564.17 972.715 563.79C971.895 563.39 971.255 562.85 970.795 562.17C970.335 561.47 970.105 560.65 970.105 559.71C970.105 558.83 970.295 558.04 970.675 557.34C971.075 556.64 971.685 556.05 972.505 555.57C973.325 555.09 974.355 554.75 975.595 554.55L981.235 553.62V556.29L976.255 557.16C975.355 557.32 974.695 557.61 974.275 558.03C973.855 558.43 973.645 558.95 973.645 559.59C973.645 560.21 973.875 560.72 974.335 561.12C974.815 561.5 975.425 561.69 976.165 561.69C977.085 561.69 977.885 561.49 978.565 561.09C979.265 560.69 979.805 560.16 980.185 559.5C980.565 558.82 980.755 558.07 980.755 557.25V553.08C980.755 552.28 980.455 551.63 979.855 551.13C979.275 550.61 978.495 550.35 977.515 550.35C976.615 550.35 975.825 550.59 975.145 551.07C974.485 551.53 973.995 552.13 973.675 552.87L970.855 551.46C971.155 550.66 971.645 549.96 972.325 549.36C973.005 548.74 973.795 548.26 974.695 547.92C975.615 547.58 976.585 547.41 977.605 547.41C978.885 547.41 980.015 547.65 980.995 548.13C981.995 548.61 982.765 549.28 983.305 550.14C983.865 550.98 984.145 551.96 984.145 553.08V564H980.905V561.06L981.595 561.15C981.215 561.81 980.725 562.38 980.125 562.86C979.545 563.34 978.875 563.71 978.115 563.97C977.375 564.23 976.545 564.36 975.625 564.36ZM989.609 570V547.77H992.849V551.13L992.459 550.35C993.059 549.43 993.859 548.71 994.859 548.19C995.859 547.67 996.999 547.41 998.279 547.41C999.819 547.41 1001.2 547.78 1002.42 548.52C1003.66 549.26 1004.63 550.27 1005.33 551.55C1006.05 552.83 1006.41 554.27 1006.41 555.87C1006.41 557.47 1006.05 558.91 1005.33 560.19C1004.63 561.47 1003.67 562.49 1002.45 563.25C1001.23 563.99 999.839 564.36 998.279 564.36C997.019 564.36 995.869 564.1 994.829 563.58C993.809 563.06 993.019 562.31 992.459 561.33L992.999 560.7V570H989.609ZM997.949 561.21C998.909 561.21 999.759 560.98 1000.5 560.52C1001.24 560.06 1001.82 559.43 1002.24 558.63C1002.68 557.81 1002.9 556.89 1002.9 555.87C1002.9 554.85 1002.68 553.94 1002.24 553.14C1001.82 552.34 1001.24 551.71 1000.5 551.25C999.759 550.79 998.909 550.56 997.949 550.56C997.009 550.56 996.159 550.79 995.399 551.25C994.659 551.71 994.069 552.34 993.629 553.14C993.209 553.94 992.999 554.85 992.999 555.87C992.999 556.89 993.209 557.81 993.629 558.63C994.069 559.43 994.659 560.06 995.399 560.52C996.159 560.98 997.009 561.21 997.949 561.21ZM1018.83 564.36C1017.21 564.36 1015.77 563.99 1014.51 563.25C1013.27 562.49 1012.3 561.47 1011.6 560.19C1010.9 558.89 1010.55 557.44 1010.55 555.84C1010.55 554.2 1010.9 552.75 1011.6 551.49C1012.32 550.23 1013.28 549.24 1014.48 548.52C1015.68 547.78 1017.04 547.41 1018.56 547.41C1019.78 547.41 1020.87 547.62 1021.83 548.04C1022.79 548.46 1023.6 549.04 1024.26 549.78C1024.92 550.5 1025.42 551.33 1025.76 552.27C1026.12 553.21 1026.3 554.21 1026.3 555.27C1026.3 555.53 1026.29 555.8 1026.27 556.08C1026.25 556.36 1026.21 556.62 1026.15 556.86H1013.22V554.16H1024.23L1022.61 555.39C1022.81 554.41 1022.74 553.54 1022.4 552.78C1022.08 552 1021.58 551.39 1020.9 550.95C1020.24 550.49 1019.46 550.26 1018.56 550.26C1017.66 550.26 1016.86 550.49 1016.16 550.95C1015.46 551.39 1014.92 552.03 1014.54 552.87C1014.16 553.69 1014.01 554.69 1014.09 555.87C1013.99 556.97 1014.14 557.93 1014.54 558.75C1014.96 559.57 1015.54 560.21 1016.28 560.67C1017.04 561.13 1017.9 561.36 1018.86 561.36C1019.84 561.36 1020.67 561.14 1021.35 560.7C1022.05 560.26 1022.6 559.69 1023 558.99L1025.76 560.34C1025.44 561.1 1024.94 561.79 1024.26 562.41C1023.6 563.01 1022.8 563.49 1021.86 563.85C1020.94 564.19 1019.93 564.36 1018.83 564.36ZM1031.1 564V547.77H1034.35V551.04L1034.05 550.56C1034.41 549.5 1034.99 548.74 1035.79 548.28C1036.59 547.8 1037.55 547.56 1038.67 547.56H1039.66V550.65H1038.25C1037.13 550.65 1036.22 551 1035.52 551.7C1034.84 552.38 1034.5 553.36 1034.5 554.64V564H1031.1Z" fill="#00272D"/>
<line x1="880" y1="339" x2="880" y2="516" stroke="#00272D" stroke-width="4"/>
<path d="M880 524L884.763 514.25H875.237L880 524Z" fill="#00272D"/>
<path d="M359 373H660.239L730 305H429.395L359 373Z" fill="#05B570"/>
<path d="M360 226H660.427L730 294H430.205L360 226Z" fill="#05B570"/>
<circle cx="35" cy="35" r="35" transform="matrix(1 0 0 -1 519 339)" fill="white"/>
<circle cx="27.5" cy="27.5" r="27.5" transform="matrix(1 0 0 -1 526 332)" fill="#05B570"/>
<circle cx="22.5" cy="22.5" r="22.5" transform="matrix(1 0 0 -1 531 327)" fill="white"/>
<path d="M590.84 162V157.88L598.92 149.44C600.52 147.76 601.747 146.427 602.6 145.44C603.48 144.427 604.093 143.56 604.44 142.84C604.787 142.12 604.96 141.387 604.96 140.64C604.96 139.387 604.56 138.4 603.76 137.68C602.987 136.96 601.987 136.6 600.76 136.6C599.48 136.6 598.373 136.973 597.44 137.72C596.507 138.44 595.827 139.507 595.4 140.92L590.64 139.44C590.96 137.867 591.613 136.507 592.6 135.36C593.587 134.187 594.787 133.293 596.2 132.68C597.64 132.04 599.16 131.72 600.76 131.72C602.68 131.72 604.36 132.067 605.8 132.76C607.267 133.453 608.4 134.427 609.2 135.68C610.027 136.933 610.44 138.4 610.44 140.08C610.44 141.147 610.24 142.2 609.84 143.24C609.44 144.28 608.84 145.347 608.04 146.44C607.24 147.507 606.2 148.707 604.92 150.04L597.92 157.4H610.84V162H590.84ZM619.747 162L632.147 136.8H618.107V132.2H637.867V136.8L625.747 162H619.747ZM657.2 162V132.2H662.4L673.56 147.36H671.08L682 132.2H687.2V162H681.72V138.4L683.84 138.92L672.52 154H671.88L660.84 138.92L662.64 138.4V162H657.2ZM703.063 162.48C701.543 162.48 700.223 162.227 699.103 161.72C697.983 161.213 697.117 160.493 696.503 159.56C695.89 158.6 695.583 157.493 695.583 156.24C695.583 155.04 695.85 153.973 696.383 153.04C696.917 152.08 697.743 151.28 698.863 150.64C699.983 150 701.397 149.547 703.103 149.28L710.223 148.12V152.12L704.103 153.16C703.063 153.347 702.29 153.68 701.783 154.16C701.277 154.64 701.023 155.267 701.023 156.04C701.023 156.787 701.303 157.387 701.863 157.84C702.45 158.267 703.17 158.48 704.023 158.48C705.117 158.48 706.077 158.253 706.903 157.8C707.757 157.32 708.41 156.667 708.863 155.84C709.343 155.013 709.583 154.107 709.583 153.12V147.52C709.583 146.587 709.21 145.813 708.463 145.2C707.743 144.56 706.783 144.24 705.583 144.24C704.463 144.24 703.463 144.547 702.583 145.16C701.73 145.747 701.103 146.533 700.703 147.52L696.423 145.44C696.85 144.293 697.517 143.307 698.423 142.48C699.357 141.627 700.45 140.96 701.703 140.48C702.957 140 704.317 139.76 705.783 139.76C707.57 139.76 709.143 140.093 710.503 140.76C711.863 141.4 712.917 142.307 713.663 143.48C714.437 144.627 714.823 145.973 714.823 147.52V162H709.863V158.28L710.983 158.2C710.423 159.133 709.757 159.92 708.983 160.56C708.21 161.173 707.33 161.653 706.343 162C705.357 162.32 704.263 162.48 703.063 162.48ZM723.667 162V140.24H728.587V145.08L728.187 144.36C728.693 142.733 729.48 141.6 730.547 140.96C731.64 140.32 732.947 140 734.467 140H735.747V144.64H733.867C732.373 144.64 731.173 145.107 730.267 146.04C729.36 146.947 728.907 148.227 728.907 149.88V162H723.667ZM753.108 162.48C750.948 162.48 749.001 161.987 747.268 161C745.561 159.987 744.214 158.627 743.228 156.92C742.241 155.187 741.748 153.24 741.748 151.08C741.748 148.92 742.241 146.987 743.228 145.28C744.214 143.573 745.561 142.227 747.268 141.24C749.001 140.253 750.948 139.76 753.108 139.76C754.654 139.76 756.094 140.04 757.428 140.6C758.761 141.133 759.908 141.88 760.868 142.84C761.854 143.773 762.561 144.893 762.988 146.2L758.388 148.2C757.988 147.107 757.308 146.227 756.348 145.56C755.414 144.893 754.334 144.56 753.108 144.56C751.961 144.56 750.934 144.84 750.028 145.4C749.148 145.96 748.454 146.733 747.948 147.72C747.441 148.707 747.188 149.84 747.188 151.12C747.188 152.4 747.441 153.533 747.948 154.52C748.454 155.507 749.148 156.28 750.028 156.84C750.934 157.4 751.961 157.68 753.108 157.68C754.361 157.68 755.454 157.347 756.388 156.68C757.321 156.013 757.988 155.12 758.388 154L762.988 156.08C762.561 157.307 761.868 158.413 760.908 159.4C759.948 160.36 758.801 161.12 757.468 161.68C756.134 162.213 754.681 162.48 753.108 162.48ZM770.963 162V131.72H776.203V144.52L775.483 143.76C775.99 142.453 776.817 141.467 777.963 140.8C779.137 140.107 780.497 139.76 782.043 139.76C783.643 139.76 785.057 140.107 786.283 140.8C787.537 141.493 788.51 142.467 789.203 143.72C789.897 144.947 790.243 146.373 790.243 148V162H785.003V149.24C785.003 148.28 784.817 147.453 784.443 146.76C784.07 146.067 783.55 145.533 782.883 145.16C782.243 144.76 781.483 144.56 780.603 144.56C779.75 144.56 778.99 144.76 778.323 145.16C777.657 145.533 777.137 146.067 776.763 146.76C776.39 147.453 776.203 148.28 776.203 149.24V162H770.963ZM809.184 162V157.88L817.264 149.44C818.864 147.76 820.09 146.427 820.944 145.44C821.824 144.427 822.437 143.56 822.784 142.84C823.13 142.12 823.304 141.387 823.304 140.64C823.304 139.387 822.904 138.4 822.104 137.68C821.33 136.96 820.33 136.6 819.104 136.6C817.824 136.6 816.717 136.973 815.784 137.72C814.85 138.44 814.17 139.507 813.744 140.92L808.984 139.44C809.304 137.867 809.957 136.507 810.944 135.36C811.93 134.187 813.13 133.293 814.544 132.68C815.984 132.04 817.504 131.72 819.104 131.72C821.024 131.72 822.704 132.067 824.144 132.76C825.61 133.453 826.744 134.427 827.544 135.68C828.37 136.933 828.784 138.4 828.784 140.08C828.784 141.147 828.584 142.2 828.184 143.24C827.784 144.28 827.184 145.347 826.384 146.44C825.584 147.507 824.544 148.707 823.264 150.04L816.264 157.4H829.184V162H809.184ZM849.371 162.48C846.998 162.48 844.918 161.84 843.131 160.56C841.344 159.28 839.944 157.48 838.931 155.16C837.944 152.84 837.451 150.147 837.451 147.08C837.451 143.987 837.944 141.293 838.931 139C839.918 136.707 841.304 134.92 843.091 133.64C844.878 132.36 846.958 131.72 849.331 131.72C851.758 131.72 853.851 132.36 855.611 133.64C857.398 134.92 858.798 136.72 859.811 139.04C860.824 141.333 861.331 144.013 861.331 147.08C861.331 150.147 860.824 152.84 859.811 155.16C858.824 157.453 857.438 159.253 855.651 160.56C853.864 161.84 851.771 162.48 849.371 162.48ZM849.411 157.52C850.771 157.52 851.931 157.107 852.891 156.28C853.851 155.427 854.584 154.227 855.091 152.68C855.624 151.107 855.891 149.24 855.891 147.08C855.891 144.92 855.624 143.067 855.091 141.52C854.584 139.947 853.838 138.747 852.851 137.92C851.891 137.093 850.718 136.68 849.331 136.68C847.998 136.68 846.851 137.093 845.891 137.92C844.931 138.747 844.184 139.947 843.651 141.52C843.144 143.067 842.891 144.92 842.891 147.08C842.891 149.213 843.144 151.067 843.651 152.64C844.184 154.187 844.931 155.387 845.891 156.24C846.878 157.093 848.051 157.52 849.411 157.52ZM869.371 162V157.88L877.451 149.44C879.051 147.76 880.278 146.427 881.131 145.44C882.011 144.427 882.625 143.56 882.971 142.84C883.318 142.12 883.491 141.387 883.491 140.64C883.491 139.387 883.091 138.4 882.291 137.68C881.518 136.96 880.518 136.6 879.291 136.6C878.011 136.6 876.905 136.973 875.971 137.72C875.038 138.44 874.358 139.507 873.931 140.92L869.171 139.44C869.491 137.867 870.145 136.507 871.131 135.36C872.118 134.187 873.318 133.293 874.731 132.68C876.171 132.04 877.691 131.72 879.291 131.72C881.211 131.72 882.891 132.067 884.331 132.76C885.798 133.453 886.931 134.427 887.731 135.68C888.558 136.933 888.971 138.4 888.971 140.08C888.971 141.147 888.771 142.2 888.371 143.24C887.971 144.28 887.371 145.347 886.571 146.44C885.771 147.507 884.731 148.707 883.451 150.04L876.451 157.4H889.371V162H869.371ZM910.128 162V155.44H896.448V150.88L909.808 132.2H915.488V150.88H919.848V155.44H915.488V162H910.128ZM900.448 152.84L899.488 150.88H910.128V136.48L911.528 136.92L900.448 152.84Z" fill="#00272D"/>
<path d="M365.06 47L372.92 24.65H377.3L385.16 47H381.38L379.67 41.99H370.58L368.84 47H365.06ZM371.6 38.84H378.59L374.63 27.14H375.62L371.6 38.84ZM396.106 47.36C394.486 47.36 393.046 46.99 391.786 46.25C390.546 45.49 389.556 44.47 388.816 43.19C388.096 41.91 387.736 40.46 387.736 38.84C387.736 37.24 388.096 35.8 388.816 34.52C389.536 33.24 390.526 32.24 391.786 31.52C393.046 30.78 394.486 30.41 396.106 30.41C397.206 30.41 398.236 30.61 399.196 31.01C400.156 31.39 400.986 31.92 401.686 32.6C402.406 33.28 402.936 34.07 403.276 34.97L400.306 36.35C399.966 35.51 399.416 34.84 398.656 34.34C397.916 33.82 397.066 33.56 396.106 33.56C395.186 33.56 394.356 33.79 393.616 34.25C392.896 34.69 392.326 35.32 391.906 36.14C391.486 36.94 391.276 37.85 391.276 38.87C391.276 39.89 391.486 40.81 391.906 41.63C392.326 42.43 392.896 43.06 393.616 43.52C394.356 43.98 395.186 44.21 396.106 44.21C397.086 44.21 397.936 43.96 398.656 43.46C399.396 42.94 399.946 42.25 400.306 41.39L403.276 42.8C402.956 43.66 402.436 44.44 401.716 45.14C401.016 45.82 400.186 46.36 399.226 46.76C398.266 47.16 397.226 47.36 396.106 47.36ZM415.799 47.36C414.179 47.36 412.739 46.99 411.479 46.25C410.239 45.49 409.249 44.47 408.509 43.19C407.789 41.91 407.429 40.46 407.429 38.84C407.429 37.24 407.789 35.8 408.509 34.52C409.229 33.24 410.219 32.24 411.479 31.52C412.739 30.78 414.179 30.41 415.799 30.41C416.899 30.41 417.929 30.61 418.889 31.01C419.849 31.39 420.679 31.92 421.379 32.6C422.099 33.28 422.629 34.07 422.969 34.97L419.999 36.35C419.659 35.51 419.109 34.84 418.349 34.34C417.609 33.82 416.759 33.56 415.799 33.56C414.879 33.56 414.049 33.79 413.309 34.25C412.589 34.69 412.019 35.32 411.599 36.14C411.179 36.94 410.969 37.85 410.969 38.87C410.969 39.89 411.179 40.81 411.599 41.63C412.019 42.43 412.589 43.06 413.309 43.52C414.049 43.98 414.879 44.21 415.799 44.21C416.779 44.21 417.629 43.96 418.349 43.46C419.089 42.94 419.639 42.25 419.999 41.39L422.969 42.8C422.649 43.66 422.129 44.44 421.409 45.14C420.709 45.82 419.879 46.36 418.919 46.76C417.959 47.16 416.919 47.36 415.799 47.36ZM435.403 47.36C433.783 47.36 432.343 46.99 431.083 46.25C429.843 45.49 428.873 44.47 428.173 43.19C427.473 41.89 427.123 40.44 427.123 38.84C427.123 37.2 427.473 35.75 428.173 34.49C428.893 33.23 429.853 32.24 431.053 31.52C432.253 30.78 433.613 30.41 435.133 30.41C436.353 30.41 437.443 30.62 438.403 31.04C439.363 31.46 440.173 32.04 440.833 32.78C441.493 33.5 441.993 34.33 442.333 35.27C442.693 36.21 442.873 37.21 442.873 38.27C442.873 38.53 442.863 38.8 442.843 39.08C442.823 39.36 442.783 39.62 442.723 39.86H429.793V37.16H440.803L439.183 38.39C439.383 37.41 439.313 36.54 438.973 35.78C438.653 35 438.153 34.39 437.473 33.95C436.813 33.49 436.033 33.26 435.133 33.26C434.233 33.26 433.433 33.49 432.733 33.95C432.033 34.39 431.493 35.03 431.113 35.87C430.733 36.69 430.583 37.69 430.663 38.87C430.563 39.97 430.713 40.93 431.113 41.75C431.533 42.57 432.113 43.21 432.853 43.67C433.613 44.13 434.473 44.36 435.433 44.36C436.413 44.36 437.243 44.14 437.923 43.7C438.623 43.26 439.173 42.69 439.573 41.99L442.333 43.34C442.013 44.1 441.513 44.79 440.833 45.41C440.173 46.01 439.373 46.49 438.433 46.85C437.513 47.19 436.503 47.36 435.403 47.36ZM447.681 53V30.77H450.921V34.13L450.531 33.35C451.131 32.43 451.931 31.71 452.931 31.19C453.931 30.67 455.071 30.41 456.351 30.41C457.891 30.41 459.271 30.78 460.491 31.52C461.731 32.26 462.701 33.27 463.401 34.55C464.121 35.83 464.481 37.27 464.481 38.87C464.481 40.47 464.121 41.91 463.401 43.19C462.701 44.47 461.741 45.49 460.521 46.25C459.301 46.99 457.911 47.36 456.351 47.36C455.091 47.36 453.941 47.1 452.901 46.58C451.881 46.06 451.091 45.31 450.531 44.33L451.071 43.7V53H447.681ZM456.021 44.21C456.981 44.21 457.831 43.98 458.571 43.52C459.311 43.06 459.891 42.43 460.311 41.63C460.751 40.81 460.971 39.89 460.971 38.87C460.971 37.85 460.751 36.94 460.311 36.14C459.891 35.34 459.311 34.71 458.571 34.25C457.831 33.79 456.981 33.56 456.021 33.56C455.081 33.56 454.231 33.79 453.471 34.25C452.731 34.71 452.141 35.34 451.701 36.14C451.281 36.94 451.071 37.85 451.071 38.87C451.071 39.89 451.281 40.81 451.701 41.63C452.141 42.43 452.731 43.06 453.471 43.52C454.231 43.98 455.081 44.21 456.021 44.21ZM476.006 47.18C474.306 47.18 472.986 46.7 472.046 45.74C471.106 44.78 470.636 43.43 470.636 41.69V33.83H467.786V30.77H468.236C468.996 30.77 469.586 30.55 470.006 30.11C470.426 29.67 470.636 29.07 470.636 28.31V27.05H474.026V30.77H477.716V33.83H474.026V41.54C474.026 42.1 474.116 42.58 474.296 42.98C474.476 43.36 474.766 43.66 475.166 43.88C475.566 44.08 476.086 44.18 476.726 44.18C476.886 44.18 477.066 44.17 477.266 44.15C477.466 44.13 477.656 44.11 477.836 44.09V47C477.556 47.04 477.246 47.08 476.906 47.12C476.566 47.16 476.266 47.18 476.006 47.18ZM487.358 47.36C486.258 47.36 485.288 47.17 484.448 46.79C483.628 46.39 482.988 45.85 482.528 45.17C482.068 44.47 481.838 43.65 481.838 42.71C481.838 41.83 482.028 41.04 482.408 40.34C482.808 39.64 483.418 39.05 484.238 38.57C485.058 38.09 486.088 37.75 487.328 37.55L492.968 36.62V39.29L487.988 40.16C487.088 40.32 486.428 40.61 486.008 41.03C485.588 41.43 485.378 41.95 485.378 42.59C485.378 43.21 485.608 43.72 486.068 44.12C486.548 44.5 487.158 44.69 487.898 44.69C488.818 44.69 489.618 44.49 490.298 44.09C490.998 43.69 491.538 43.16 491.918 42.5C492.298 41.82 492.488 41.07 492.488 40.25V36.08C492.488 35.28 492.188 34.63 491.588 34.13C491.008 33.61 490.228 33.35 489.248 33.35C488.348 33.35 487.558 33.59 486.878 34.07C486.218 34.53 485.728 35.13 485.408 35.87L482.588 34.46C482.888 33.66 483.378 32.96 484.058 32.36C484.738 31.74 485.528 31.26 486.428 30.92C487.348 30.58 488.318 30.41 489.338 30.41C490.618 30.41 491.748 30.65 492.728 31.13C493.728 31.61 494.498 32.28 495.038 33.14C495.598 33.98 495.878 34.96 495.878 36.08V47H492.638V44.06L493.328 44.15C492.948 44.81 492.458 45.38 491.858 45.86C491.278 46.34 490.608 46.71 489.848 46.97C489.108 47.23 488.278 47.36 487.358 47.36ZM501.341 47V30.77H504.581V33.95L504.191 33.53C504.591 32.51 505.231 31.74 506.111 31.22C506.991 30.68 508.011 30.41 509.171 30.41C510.371 30.41 511.431 30.67 512.351 31.19C513.271 31.71 513.991 32.43 514.511 33.35C515.031 34.27 515.291 35.33 515.291 36.53V47H511.931V37.43C511.931 36.61 511.781 35.92 511.481 35.36C511.181 34.78 510.751 34.34 510.191 34.04C509.651 33.72 509.031 33.56 508.331 33.56C507.631 33.56 507.001 33.72 506.441 34.04C505.901 34.34 505.481 34.78 505.181 35.36C504.881 35.94 504.731 36.63 504.731 37.43V47H501.341ZM528.129 47.36C526.509 47.36 525.069 46.99 523.809 46.25C522.569 45.49 521.579 44.47 520.839 43.19C520.119 41.91 519.759 40.46 519.759 38.84C519.759 37.24 520.119 35.8 520.839 34.52C521.559 33.24 522.549 32.24 523.809 31.52C525.069 30.78 526.509 30.41 528.129 30.41C529.229 30.41 530.259 30.61 531.219 31.01C532.179 31.39 533.009 31.92 533.709 32.6C534.429 33.28 534.959 34.07 535.299 34.97L532.329 36.35C531.989 35.51 531.439 34.84 530.679 34.34C529.939 33.82 529.089 33.56 528.129 33.56C527.209 33.56 526.379 33.79 525.639 34.25C524.919 34.69 524.349 35.32 523.929 36.14C523.509 36.94 523.299 37.85 523.299 38.87C523.299 39.89 523.509 40.81 523.929 41.63C524.349 42.43 524.919 43.06 525.639 43.52C526.379 43.98 527.209 44.21 528.129 44.21C529.109 44.21 529.959 43.96 530.679 43.46C531.419 42.94 531.969 42.25 532.329 41.39L535.299 42.8C534.979 43.66 534.459 44.44 533.739 45.14C533.039 45.82 532.209 46.36 531.249 46.76C530.289 47.16 529.249 47.36 528.129 47.36ZM547.733 47.36C546.113 47.36 544.673 46.99 543.413 46.25C542.173 45.49 541.203 44.47 540.503 43.19C539.803 41.89 539.453 40.44 539.453 38.84C539.453 37.2 539.803 35.75 540.503 34.49C541.223 33.23 542.183 32.24 543.383 31.52C544.583 30.78 545.943 30.41 547.463 30.41C548.683 30.41 549.773 30.62 550.733 31.04C551.693 31.46 552.503 32.04 553.163 32.78C553.823 33.5 554.323 34.33 554.663 35.27C555.023 36.21 555.203 37.21 555.203 38.27C555.203 38.53 555.193 38.8 555.173 39.08C555.153 39.36 555.113 39.62 555.053 39.86H542.123V37.16H553.133L551.513 38.39C551.713 37.41 551.643 36.54 551.303 35.78C550.983 35 550.483 34.39 549.803 33.95C549.143 33.49 548.363 33.26 547.463 33.26C546.563 33.26 545.763 33.49 545.063 33.95C544.363 34.39 543.823 35.03 543.443 35.87C543.063 36.69 542.913 37.69 542.993 38.87C542.893 39.97 543.043 40.93 543.443 41.75C543.863 42.57 544.443 43.21 545.183 43.67C545.943 44.13 546.803 44.36 547.763 44.36C548.743 44.36 549.573 44.14 550.253 43.7C550.953 43.26 551.503 42.69 551.903 41.99L554.663 43.34C554.343 44.1 553.843 44.79 553.163 45.41C552.503 46.01 551.703 46.49 550.763 46.85C549.843 47.19 548.833 47.36 547.733 47.36ZM566.755 47V30.77H569.995V33.95L569.605 33.53C570.005 32.51 570.645 31.74 571.525 31.22C572.405 30.68 573.425 30.41 574.585 30.41C575.785 30.41 576.845 30.67 577.765 31.19C578.685 31.71 579.405 32.43 579.925 33.35C580.445 34.27 580.705 35.33 580.705 36.53V47H577.345V37.43C577.345 36.61 577.195 35.92 576.895 35.36C576.595 34.78 576.165 34.34 575.605 34.04C575.065 33.72 574.445 33.56 573.745 33.56C573.045 33.56 572.415 33.72 571.855 34.04C571.315 34.34 570.895 34.78 570.595 35.36C570.295 35.94 570.145 36.63 570.145 37.43V47H566.755ZM593.664 47.36C592.104 47.36 590.674 46.99 589.374 46.25C588.094 45.51 587.074 44.5 586.314 43.22C585.554 41.94 585.174 40.49 585.174 38.87C585.174 37.23 585.554 35.78 586.314 34.52C587.074 33.24 588.094 32.24 589.374 31.52C590.654 30.78 592.084 30.41 593.664 30.41C595.264 30.41 596.694 30.78 597.954 31.52C599.234 32.24 600.244 33.24 600.984 34.52C601.744 35.78 602.124 37.23 602.124 38.87C602.124 40.51 601.744 41.97 600.984 43.25C600.224 44.53 599.204 45.54 597.924 46.28C596.644 47 595.224 47.36 593.664 47.36ZM593.664 44.21C594.624 44.21 595.474 43.98 596.214 43.52C596.954 43.06 597.534 42.43 597.954 41.63C598.394 40.81 598.614 39.89 598.614 38.87C598.614 37.85 598.394 36.94 597.954 36.14C597.534 35.34 596.954 34.71 596.214 34.25C595.474 33.79 594.624 33.56 593.664 33.56C592.724 33.56 591.874 33.79 591.114 34.25C590.374 34.71 589.784 35.34 589.344 36.14C588.924 36.94 588.714 37.85 588.714 38.87C588.714 39.89 588.924 40.81 589.344 41.63C589.784 42.43 590.374 43.06 591.114 43.52C591.874 43.98 592.724 44.21 593.664 44.21ZM613.66 47.18C611.96 47.18 610.64 46.7 609.7 45.74C608.76 44.78 608.29 43.43 608.29 41.69V33.83H605.44V30.77H605.89C606.65 30.77 607.24 30.55 607.66 30.11C608.08 29.67 608.29 29.07 608.29 28.31V27.05H611.68V30.77H615.37V33.83H611.68V41.54C611.68 42.1 611.77 42.58 611.95 42.98C612.13 43.36 612.42 43.66 612.82 43.88C613.22 44.08 613.74 44.18 614.38 44.18C614.54 44.18 614.72 44.17 614.92 44.15C615.12 44.13 615.31 44.11 615.49 44.09V47C615.21 47.04 614.9 47.08 614.56 47.12C614.22 47.16 613.92 47.18 613.66 47.18ZM620.298 47V30.77H623.688V47H620.298ZM620.298 28.55V24.65H623.688V28.55H620.298ZM630.982 47V33.83H627.982V30.77H630.982V29.93C630.982 28.71 631.232 27.69 631.732 26.87C632.232 26.03 632.922 25.39 633.802 24.95C634.702 24.51 635.732 24.29 636.892 24.29C637.112 24.29 637.362 24.31 637.642 24.35C637.922 24.37 638.152 24.4 638.332 24.44V27.38C638.172 27.34 637.992 27.32 637.792 27.32C637.592 27.3 637.432 27.29 637.312 27.29C636.412 27.29 635.692 27.5 635.152 27.92C634.612 28.32 634.342 28.99 634.342 29.93V30.77H642.112V33.83H634.342V47H630.982ZM640.522 47V30.77H643.882V47H640.522ZM656.672 47.36C655.052 47.36 653.612 46.99 652.352 46.25C651.112 45.49 650.122 44.47 649.382 43.19C648.662 41.91 648.302 40.46 648.302 38.84C648.302 37.24 648.662 35.8 649.382 34.52C650.102 33.24 651.092 32.24 652.352 31.52C653.612 30.78 655.052 30.41 656.672 30.41C657.772 30.41 658.802 30.61 659.762 31.01C660.722 31.39 661.552 31.92 662.252 32.6C662.972 33.28 663.502 34.07 663.842 34.97L660.872 36.35C660.532 35.51 659.982 34.84 659.222 34.34C658.482 33.82 657.632 33.56 656.672 33.56C655.752 33.56 654.922 33.79 654.182 34.25C653.462 34.69 652.892 35.32 652.472 36.14C652.052 36.94 651.842 37.85 651.842 38.87C651.842 39.89 652.052 40.81 652.472 41.63C652.892 42.43 653.462 43.06 654.182 43.52C654.922 43.98 655.752 44.21 656.672 44.21C657.652 44.21 658.502 43.96 659.222 43.46C659.962 42.94 660.512 42.25 660.872 41.39L663.842 42.8C663.522 43.66 663.002 44.44 662.282 45.14C661.582 45.82 660.752 46.36 659.792 46.76C658.832 47.16 657.792 47.36 656.672 47.36ZM673.369 47.36C672.269 47.36 671.299 47.17 670.459 46.79C669.639 46.39 668.999 45.85 668.539 45.17C668.079 44.47 667.849 43.65 667.849 42.71C667.849 41.83 668.039 41.04 668.419 40.34C668.819 39.64 669.429 39.05 670.249 38.57C671.069 38.09 672.099 37.75 673.339 37.55L678.979 36.62V39.29L673.999 40.16C673.099 40.32 672.439 40.61 672.019 41.03C671.599 41.43 671.389 41.95 671.389 42.59C671.389 43.21 671.619 43.72 672.079 44.12C672.559 44.5 673.169 44.69 673.909 44.69C674.829 44.69 675.629 44.49 676.309 44.09C677.009 43.69 677.549 43.16 677.929 42.5C678.309 41.82 678.499 41.07 678.499 40.25V36.08C678.499 35.28 678.199 34.63 677.599 34.13C677.019 33.61 676.239 33.35 675.259 33.35C674.359 33.35 673.569 33.59 672.889 34.07C672.229 34.53 671.739 35.13 671.419 35.87L668.599 34.46C668.899 33.66 669.389 32.96 670.069 32.36C670.749 31.74 671.539 31.26 672.439 30.92C673.359 30.58 674.329 30.41 675.349 30.41C676.629 30.41 677.759 30.65 678.739 31.13C679.739 31.61 680.509 32.28 681.049 33.14C681.609 33.98 681.889 34.96 681.889 36.08V47H678.649V44.06L679.339 44.15C678.959 44.81 678.469 45.38 677.869 45.86C677.289 46.34 676.619 46.71 675.859 46.97C675.119 47.23 674.289 47.36 673.369 47.36ZM694.08 47.18C692.38 47.18 691.06 46.7 690.12 45.74C689.18 44.78 688.71 43.43 688.71 41.69V33.83H685.86V30.77H686.31C687.07 30.77 687.66 30.55 688.08 30.11C688.5 29.67 688.71 29.07 688.71 28.31V27.05H692.1V30.77H695.79V33.83H692.1V41.54C692.1 42.1 692.19 42.58 692.37 42.98C692.55 43.36 692.84 43.66 693.24 43.88C693.64 44.08 694.16 44.18 694.8 44.18C694.96 44.18 695.14 44.17 695.34 44.15C695.54 44.13 695.73 44.11 695.91 44.09V47C695.63 47.04 695.32 47.08 694.98 47.12C694.64 47.16 694.34 47.18 694.08 47.18ZM700.718 47V30.77H704.108V47H700.718ZM700.718 28.55V24.65H704.108V28.55H700.718ZM717.402 47.36C715.842 47.36 714.412 46.99 713.112 46.25C711.832 45.51 710.812 44.5 710.052 43.22C709.292 41.94 708.912 40.49 708.912 38.87C708.912 37.23 709.292 35.78 710.052 34.52C710.812 33.24 711.832 32.24 713.112 31.52C714.392 30.78 715.822 30.41 717.402 30.41C719.002 30.41 720.432 30.78 721.692 31.52C722.972 32.24 723.982 33.24 724.722 34.52C725.482 35.78 725.862 37.23 725.862 38.87C725.862 40.51 725.482 41.97 724.722 43.25C723.962 44.53 722.942 45.54 721.662 46.28C720.382 47 718.962 47.36 717.402 47.36ZM717.402 44.21C718.362 44.21 719.212 43.98 719.952 43.52C720.692 43.06 721.272 42.43 721.692 41.63C722.132 40.81 722.352 39.89 722.352 38.87C722.352 37.85 722.132 36.94 721.692 36.14C721.272 35.34 720.692 34.71 719.952 34.25C719.212 33.79 718.362 33.56 717.402 33.56C716.462 33.56 715.612 33.79 714.852 34.25C714.112 34.71 713.522 35.34 713.082 36.14C712.662 36.94 712.452 37.85 712.452 38.87C712.452 39.89 712.662 40.81 713.082 41.63C713.522 42.43 714.112 43.06 714.852 43.52C715.612 43.98 716.462 44.21 717.402 44.21ZM730.671 47V30.77H733.911V33.95L733.521 33.53C733.921 32.51 734.561 31.74 735.441 31.22C736.321 30.68 737.341 30.41 738.501 30.41C739.701 30.41 740.761 30.67 741.681 31.19C742.601 31.71 743.321 32.43 743.841 33.35C744.361 34.27 744.621 35.33 744.621 36.53V47H741.261V37.43C741.261 36.61 741.111 35.92 740.811 35.36C740.511 34.78 740.081 34.34 739.521 34.04C738.981 33.72 738.361 33.56 737.661 33.56C736.961 33.56 736.331 33.72 735.771 34.04C735.231 34.34 734.811 34.78 734.511 35.36C734.211 35.94 734.061 36.63 734.061 37.43V47H730.671Z" fill="#00272D"/>
<line y1="-2" x2="177" y2="-2" transform="matrix(0 -1 -1 0 548.763 263)" stroke="#05B570" stroke-width="4"/>
<path d="M550.763 78L555.526 87.75H546L550.763 78Z" fill="#05B570"/>
<path d="M1009 373H1310.24L1380 305H1079.39L1009 373Z" fill="#05B570"/>
<path d="M1010 226H1310.43L1380 294H1080.21L1010 226Z" fill="#05B570"/>
<circle cx="35" cy="35" r="35" transform="matrix(1 0 0 -1 1169 339)" fill="white"/>
<circle cx="27.5" cy="27.5" r="27.5" transform="matrix(1 0 0 -1 1176 332)" fill="#05B570"/>
<circle cx="22.5" cy="22.5" r="22.5" transform="matrix(1 0 0 -1 1181 327)" fill="white"/>
<path d="M1245.92 162V136.84H1240.16V132.2H1251.36V162H1245.92ZM1266.05 162V136.84H1260.29V132.2H1271.49V162H1266.05ZM1283.39 168.24V165.64C1284.27 165.427 1284.97 165.013 1285.51 164.4C1286.07 163.813 1286.41 163.013 1286.55 162H1284.19V156.4H1289.47V159.84C1289.47 162.187 1288.95 164.067 1287.91 165.48C1286.89 166.893 1285.39 167.813 1283.39 168.24ZM1303.12 162V136.84H1297.36V132.2H1308.56V162H1303.12ZM1318.17 162V157.88L1326.25 149.44C1327.85 147.76 1329.07 146.427 1329.93 145.44C1330.81 144.427 1331.42 143.56 1331.77 142.84C1332.11 142.12 1332.29 141.387 1332.29 140.64C1332.29 139.387 1331.89 138.4 1331.09 137.68C1330.31 136.96 1329.31 136.6 1328.09 136.6C1326.81 136.6 1325.7 136.973 1324.77 137.72C1323.83 138.44 1323.15 139.507 1322.73 140.92L1317.97 139.44C1318.29 137.867 1318.94 136.507 1319.93 135.36C1320.91 134.187 1322.11 133.293 1323.53 132.68C1324.97 132.04 1326.49 131.72 1328.09 131.72C1330.01 131.72 1331.69 132.067 1333.13 132.76C1334.59 133.453 1335.73 134.427 1336.53 135.68C1337.35 136.933 1337.77 138.4 1337.77 140.08C1337.77 141.147 1337.57 142.2 1337.17 143.24C1336.77 144.28 1336.17 145.347 1335.37 146.44C1334.57 147.507 1333.53 148.707 1332.25 150.04L1325.25 157.4H1338.17V162H1318.17ZM1355.74 162L1366.02 132.2H1373.06L1383.34 162H1377.42L1375.3 155.6H1363.78L1361.62 162H1355.74ZM1365.34 150.8H1373.74L1368.78 135.96H1370.3L1365.34 150.8ZM1390.22 170V140.24H1395.14V144.56L1394.66 143.48C1395.41 142.307 1396.42 141.4 1397.7 140.76C1398.98 140.093 1400.46 139.76 1402.14 139.76C1404.19 139.76 1406.05 140.267 1407.7 141.28C1409.35 142.293 1410.66 143.653 1411.62 145.36C1412.61 147.067 1413.1 148.987 1413.1 151.12C1413.1 153.227 1412.62 155.147 1411.66 156.88C1410.7 158.613 1409.39 159.987 1407.74 161C1406.09 161.987 1404.21 162.48 1402.1 162.48C1400.53 162.48 1399.07 162.173 1397.74 161.56C1396.43 160.92 1395.39 160.013 1394.62 158.84L1395.46 157.8V170H1390.22ZM1401.5 157.68C1402.7 157.68 1403.77 157.4 1404.7 156.84C1405.63 156.28 1406.35 155.507 1406.86 154.52C1407.39 153.533 1407.66 152.4 1407.66 151.12C1407.66 149.84 1407.39 148.72 1406.86 147.76C1406.35 146.773 1405.63 146 1404.7 145.44C1403.77 144.853 1402.7 144.56 1401.5 144.56C1400.35 144.56 1399.31 144.84 1398.38 145.4C1397.47 145.96 1396.75 146.747 1396.22 147.76C1395.71 148.747 1395.46 149.867 1395.46 151.12C1395.46 152.4 1395.71 153.533 1396.22 154.52C1396.75 155.507 1397.47 156.28 1398.38 156.84C1399.31 157.4 1400.35 157.68 1401.5 157.68ZM1421.1 162V140.24H1426.02V145.08L1425.62 144.36C1426.12 142.733 1426.91 141.6 1427.98 140.96C1429.07 140.32 1430.38 140 1431.9 140H1433.18V144.64H1431.3C1429.8 144.64 1428.6 145.107 1427.7 146.04C1426.79 146.947 1426.34 148.227 1426.34 149.88V162H1421.1ZM1440.06 162V140.24H1445.3V162H1440.06ZM1440.06 137.8V132.2H1445.3V137.8H1440.06ZM1454.14 162V131.72H1459.38V162H1454.14ZM1478.72 162V157.88L1486.8 149.44C1488.4 147.76 1489.63 146.427 1490.48 145.44C1491.36 144.427 1491.98 143.56 1492.32 142.84C1492.67 142.12 1492.84 141.387 1492.84 140.64C1492.84 139.387 1492.44 138.4 1491.64 137.68C1490.87 136.96 1489.87 136.6 1488.64 136.6C1487.36 136.6 1486.26 136.973 1485.32 137.72C1484.39 138.44 1483.71 139.507 1483.28 140.92L1478.52 139.44C1478.84 137.867 1479.5 136.507 1480.48 135.36C1481.47 134.187 1482.67 133.293 1484.08 132.68C1485.52 132.04 1487.04 131.72 1488.64 131.72C1490.56 131.72 1492.24 132.067 1493.68 132.76C1495.15 133.453 1496.28 134.427 1497.08 135.68C1497.91 136.933 1498.32 138.4 1498.32 140.08C1498.32 141.147 1498.12 142.2 1497.72 143.24C1497.32 144.28 1496.72 145.347 1495.92 146.44C1495.12 147.507 1494.08 148.707 1492.8 150.04L1485.8 157.4H1498.72V162H1478.72ZM1518.91 162.48C1516.54 162.48 1514.46 161.84 1512.67 160.56C1510.88 159.28 1509.48 157.48 1508.47 155.16C1507.48 152.84 1506.99 150.147 1506.99 147.08C1506.99 143.987 1507.48 141.293 1508.47 139C1509.46 136.707 1510.84 134.92 1512.63 133.64C1514.42 132.36 1516.5 131.72 1518.87 131.72C1521.3 131.72 1523.39 132.36 1525.15 133.64C1526.94 134.92 1528.34 136.72 1529.35 139.04C1530.36 141.333 1530.87 144.013 1530.87 147.08C1530.87 150.147 1530.36 152.84 1529.35 155.16C1528.36 157.453 1526.98 159.253 1525.19 160.56C1523.4 161.84 1521.31 162.48 1518.91 162.48ZM1518.95 157.52C1520.31 157.52 1521.47 157.107 1522.43 156.28C1523.39 155.427 1524.12 154.227 1524.63 152.68C1525.16 151.107 1525.43 149.24 1525.43 147.08C1525.43 144.92 1525.16 143.067 1524.63 141.52C1524.12 139.947 1523.38 138.747 1522.39 137.92C1521.43 137.093 1520.26 136.68 1518.87 136.68C1517.54 136.68 1516.39 137.093 1515.43 137.92C1514.47 138.747 1513.72 139.947 1513.19 141.52C1512.68 143.067 1512.43 144.92 1512.43 147.08C1512.43 149.213 1512.68 151.067 1513.19 152.64C1513.72 154.187 1514.47 155.387 1515.43 156.24C1516.42 157.093 1517.59 157.52 1518.95 157.52ZM1538.91 162V157.88L1546.99 149.44C1548.59 147.76 1549.82 146.427 1550.67 145.44C1551.55 144.427 1552.16 143.56 1552.51 142.84C1552.86 142.12 1553.03 141.387 1553.03 140.64C1553.03 139.387 1552.63 138.4 1551.83 137.68C1551.06 136.96 1550.06 136.6 1548.83 136.6C1547.55 136.6 1546.44 136.973 1545.51 137.72C1544.58 138.44 1543.9 139.507 1543.47 140.92L1538.71 139.44C1539.03 137.867 1539.68 136.507 1540.67 135.36C1541.66 134.187 1542.86 133.293 1544.27 132.68C1545.71 132.04 1547.23 131.72 1548.83 131.72C1550.75 131.72 1552.43 132.067 1553.87 132.76C1555.34 133.453 1556.47 134.427 1557.27 135.68C1558.1 136.933 1558.51 138.4 1558.51 140.08C1558.51 141.147 1558.31 142.2 1557.91 143.24C1557.51 144.28 1556.91 145.347 1556.11 146.44C1555.31 147.507 1554.27 148.707 1552.99 150.04L1545.99 157.4H1558.91V162H1538.91ZM1579.67 162V155.44H1565.99V150.88L1579.35 132.2H1585.03V150.88H1589.39V155.44H1585.03V162H1579.67ZM1569.99 152.84L1569.03 150.88H1579.67V136.48L1581.07 136.92L1569.99 152.84Z" fill="#00272D"/>
<path d="M1084.64 47.36C1083.06 47.36 1081.59 47.07 1080.23 46.49C1078.89 45.91 1077.72 45.11 1076.72 44.09C1075.74 43.05 1074.97 41.83 1074.41 40.43C1073.85 39.03 1073.57 37.49 1073.57 35.81C1073.57 34.15 1073.84 32.62 1074.38 31.22C1074.94 29.8 1075.72 28.58 1076.72 27.56C1077.72 26.52 1078.89 25.72 1080.23 25.16C1081.57 24.58 1083.04 24.29 1084.64 24.29C1086.22 24.29 1087.63 24.56 1088.87 25.1C1090.13 25.64 1091.19 26.35 1092.05 27.23C1092.91 28.09 1093.53 29.03 1093.91 30.05L1090.73 31.55C1090.25 30.35 1089.48 29.38 1088.42 28.64C1087.38 27.88 1086.12 27.5 1084.64 27.5C1083.16 27.5 1081.85 27.85 1080.71 28.55C1079.57 29.25 1078.68 30.22 1078.04 31.46C1077.42 32.7 1077.11 34.15 1077.11 35.81C1077.11 37.47 1077.42 38.93 1078.04 40.19C1078.68 41.43 1079.57 42.4 1080.71 43.1C1081.85 43.78 1083.16 44.12 1084.64 44.12C1086.12 44.12 1087.38 43.75 1088.42 43.01C1089.48 42.27 1090.25 41.3 1090.73 40.1L1093.91 41.6C1093.53 42.6 1092.91 43.54 1092.05 44.42C1091.19 45.3 1090.13 46.01 1088.87 46.55C1087.63 47.09 1086.22 47.36 1084.64 47.36ZM1106.26 47.36C1104.7 47.36 1103.27 46.99 1101.97 46.25C1100.69 45.51 1099.67 44.5 1098.91 43.22C1098.15 41.94 1097.77 40.49 1097.77 38.87C1097.77 37.23 1098.15 35.78 1098.91 34.52C1099.67 33.24 1100.69 32.24 1101.97 31.52C1103.25 30.78 1104.68 30.41 1106.26 30.41C1107.86 30.41 1109.29 30.78 1110.55 31.52C1111.83 32.24 1112.84 33.24 1113.58 34.52C1114.34 35.78 1114.72 37.23 1114.72 38.87C1114.72 40.51 1114.34 41.97 1113.58 43.25C1112.82 44.53 1111.8 45.54 1110.52 46.28C1109.24 47 1107.82 47.36 1106.26 47.36ZM1106.26 44.21C1107.22 44.21 1108.07 43.98 1108.81 43.52C1109.55 43.06 1110.13 42.43 1110.55 41.63C1110.99 40.81 1111.21 39.89 1111.21 38.87C1111.21 37.85 1110.99 36.94 1110.55 36.14C1110.13 35.34 1109.55 34.71 1108.81 34.25C1108.07 33.79 1107.22 33.56 1106.26 33.56C1105.32 33.56 1104.47 33.79 1103.71 34.25C1102.97 34.71 1102.38 35.34 1101.94 36.14C1101.52 36.94 1101.31 37.85 1101.31 38.87C1101.31 39.89 1101.52 40.81 1101.94 41.63C1102.38 42.43 1102.97 43.06 1103.71 43.52C1104.47 43.98 1105.32 44.21 1106.26 44.21ZM1119.53 47V30.77H1122.77V33.95L1122.38 33.53C1122.78 32.51 1123.42 31.74 1124.3 31.22C1125.18 30.68 1126.2 30.41 1127.36 30.41C1128.56 30.41 1129.62 30.67 1130.54 31.19C1131.46 31.71 1132.18 32.43 1132.7 33.35C1133.22 34.27 1133.48 35.33 1133.48 36.53V47H1130.12V37.43C1130.12 36.61 1129.97 35.92 1129.67 35.36C1129.37 34.78 1128.94 34.34 1128.38 34.04C1127.84 33.72 1127.22 33.56 1126.52 33.56C1125.82 33.56 1125.19 33.72 1124.63 34.04C1124.09 34.34 1123.67 34.78 1123.37 35.36C1123.07 35.94 1122.92 36.63 1122.92 37.43V47H1119.53ZM1140.44 47V33.83H1137.44V30.77H1140.44V29.93C1140.44 28.71 1140.69 27.69 1141.19 26.87C1141.69 26.03 1142.38 25.39 1143.26 24.95C1144.16 24.51 1145.19 24.29 1146.35 24.29C1146.57 24.29 1146.82 24.31 1147.1 24.35C1147.38 24.37 1147.61 24.4 1147.79 24.44V27.38C1147.63 27.34 1147.45 27.32 1147.25 27.32C1147.05 27.3 1146.89 27.29 1146.77 27.29C1145.87 27.29 1145.15 27.5 1144.61 27.92C1144.07 28.32 1143.8 28.99 1143.8 29.93V30.77H1147.52V33.83H1143.8V47H1140.44ZM1159.18 47.36C1157.56 47.36 1156.12 46.99 1154.86 46.25C1153.62 45.49 1152.65 44.47 1151.95 43.19C1151.25 41.89 1150.9 40.44 1150.9 38.84C1150.9 37.2 1151.25 35.75 1151.95 34.49C1152.67 33.23 1153.63 32.24 1154.83 31.52C1156.03 30.78 1157.39 30.41 1158.91 30.41C1160.13 30.41 1161.22 30.62 1162.18 31.04C1163.14 31.46 1163.95 32.04 1164.61 32.78C1165.27 33.5 1165.77 34.33 1166.11 35.27C1166.47 36.21 1166.65 37.21 1166.65 38.27C1166.65 38.53 1166.64 38.8 1166.62 39.08C1166.6 39.36 1166.56 39.62 1166.5 39.86H1153.57V37.16H1164.58L1162.96 38.39C1163.16 37.41 1163.09 36.54 1162.75 35.78C1162.43 35 1161.93 34.39 1161.25 33.95C1160.59 33.49 1159.81 33.26 1158.91 33.26C1158.01 33.26 1157.21 33.49 1156.51 33.95C1155.81 34.39 1155.27 35.03 1154.89 35.87C1154.51 36.69 1154.36 37.69 1154.44 38.87C1154.34 39.97 1154.49 40.93 1154.89 41.75C1155.31 42.57 1155.89 43.21 1156.63 43.67C1157.39 44.13 1158.25 44.36 1159.21 44.36C1160.19 44.36 1161.02 44.14 1161.7 43.7C1162.4 43.26 1162.95 42.69 1163.35 41.99L1166.11 43.34C1165.79 44.1 1165.29 44.79 1164.61 45.41C1163.95 46.01 1163.15 46.49 1162.21 46.85C1161.29 47.19 1160.28 47.36 1159.18 47.36ZM1171.46 47V30.77H1174.7V34.04L1174.4 33.56C1174.76 32.5 1175.34 31.74 1176.14 31.28C1176.94 30.8 1177.9 30.56 1179.02 30.56H1180.01V33.65H1178.6C1177.48 33.65 1176.57 34 1175.87 34.7C1175.19 35.38 1174.85 36.36 1174.85 37.64V47H1171.46ZM1191.45 47.36C1189.83 47.36 1188.39 46.99 1187.13 46.25C1185.89 45.49 1184.92 44.47 1184.22 43.19C1183.52 41.89 1183.17 40.44 1183.17 38.84C1183.17 37.2 1183.52 35.75 1184.22 34.49C1184.94 33.23 1185.9 32.24 1187.1 31.52C1188.3 30.78 1189.66 30.41 1191.18 30.41C1192.4 30.41 1193.49 30.62 1194.45 31.04C1195.41 31.46 1196.22 32.04 1196.88 32.78C1197.54 33.5 1198.04 34.33 1198.38 35.27C1198.74 36.21 1198.92 37.21 1198.92 38.27C1198.92 38.53 1198.91 38.8 1198.89 39.08C1198.87 39.36 1198.83 39.62 1198.77 39.86H1185.84V37.16H1196.85L1195.23 38.39C1195.43 37.41 1195.36 36.54 1195.02 35.78C1194.7 35 1194.2 34.39 1193.52 33.95C1192.86 33.49 1192.08 33.26 1191.18 33.26C1190.28 33.26 1189.48 33.49 1188.78 33.95C1188.08 34.39 1187.54 35.03 1187.16 35.87C1186.78 36.69 1186.63 37.69 1186.71 38.87C1186.61 39.97 1186.76 40.93 1187.16 41.75C1187.58 42.57 1188.16 43.21 1188.9 43.67C1189.66 44.13 1190.52 44.36 1191.48 44.36C1192.46 44.36 1193.29 44.14 1193.97 43.7C1194.67 43.26 1195.22 42.69 1195.62 41.99L1198.38 43.34C1198.06 44.1 1197.56 44.79 1196.88 45.41C1196.22 46.01 1195.42 46.49 1194.48 46.85C1193.56 47.19 1192.55 47.36 1191.45 47.36ZM1203.73 47V30.77H1206.97V33.95L1206.58 33.53C1206.98 32.51 1207.62 31.74 1208.5 31.22C1209.38 30.68 1210.4 30.41 1211.56 30.41C1212.76 30.41 1213.82 30.67 1214.74 31.19C1215.66 31.71 1216.38 32.43 1216.9 33.35C1217.42 34.27 1217.68 35.33 1217.68 36.53V47H1214.32V37.43C1214.32 36.61 1214.17 35.92 1213.87 35.36C1213.57 34.78 1213.14 34.34 1212.58 34.04C1212.04 33.72 1211.42 33.56 1210.72 33.56C1210.02 33.56 1209.39 33.72 1208.83 34.04C1208.29 34.34 1207.87 34.78 1207.57 35.36C1207.27 35.94 1207.12 36.63 1207.12 37.43V47H1203.73ZM1230.52 47.36C1228.9 47.36 1227.46 46.99 1226.2 46.25C1224.96 45.49 1223.97 44.47 1223.23 43.19C1222.51 41.91 1222.15 40.46 1222.15 38.84C1222.15 37.24 1222.51 35.8 1223.23 34.52C1223.95 33.24 1224.94 32.24 1226.2 31.52C1227.46 30.78 1228.9 30.41 1230.52 30.41C1231.62 30.41 1232.65 30.61 1233.61 31.01C1234.57 31.39 1235.4 31.92 1236.1 32.6C1236.82 33.28 1237.35 34.07 1237.69 34.97L1234.72 36.35C1234.38 35.51 1233.83 34.84 1233.07 34.34C1232.33 33.82 1231.48 33.56 1230.52 33.56C1229.6 33.56 1228.77 33.79 1228.03 34.25C1227.31 34.69 1226.74 35.32 1226.32 36.14C1225.9 36.94 1225.69 37.85 1225.69 38.87C1225.69 39.89 1225.9 40.81 1226.32 41.63C1226.74 42.43 1227.31 43.06 1228.03 43.52C1228.77 43.98 1229.6 44.21 1230.52 44.21C1231.5 44.21 1232.35 43.96 1233.07 43.46C1233.81 42.94 1234.36 42.25 1234.72 41.39L1237.69 42.8C1237.37 43.66 1236.85 44.44 1236.13 45.14C1235.43 45.82 1234.6 46.36 1233.64 46.76C1232.68 47.16 1231.64 47.36 1230.52 47.36ZM1250.12 47.36C1248.5 47.36 1247.06 46.99 1245.8 46.25C1244.56 45.49 1243.59 44.47 1242.89 43.19C1242.19 41.89 1241.84 40.44 1241.84 38.84C1241.84 37.2 1242.19 35.75 1242.89 34.49C1243.61 33.23 1244.57 32.24 1245.77 31.52C1246.97 30.78 1248.33 30.41 1249.85 30.41C1251.07 30.41 1252.16 30.62 1253.12 31.04C1254.08 31.46 1254.89 32.04 1255.55 32.78C1256.21 33.5 1256.71 34.33 1257.05 35.27C1257.41 36.21 1257.59 37.21 1257.59 38.27C1257.59 38.53 1257.58 38.8 1257.56 39.08C1257.54 39.36 1257.5 39.62 1257.44 39.86H1244.51V37.16H1255.52L1253.9 38.39C1254.1 37.41 1254.03 36.54 1253.69 35.78C1253.37 35 1252.87 34.39 1252.19 33.95C1251.53 33.49 1250.75 33.26 1249.85 33.26C1248.95 33.26 1248.15 33.49 1247.45 33.95C1246.75 34.39 1246.21 35.03 1245.83 35.87C1245.45 36.69 1245.3 37.69 1245.38 38.87C1245.28 39.97 1245.43 40.93 1245.83 41.75C1246.25 42.57 1246.83 43.21 1247.57 43.67C1248.33 44.13 1249.19 44.36 1250.15 44.36C1251.13 44.36 1251.96 44.14 1252.64 43.7C1253.34 43.26 1253.89 42.69 1254.29 41.99L1257.05 43.34C1256.73 44.1 1256.23 44.79 1255.55 45.41C1254.89 46.01 1254.09 46.49 1253.15 46.85C1252.23 47.19 1251.22 47.36 1250.12 47.36ZM1276.64 47.36C1275.08 47.36 1273.68 46.99 1272.44 46.25C1271.22 45.49 1270.25 44.47 1269.53 43.19C1268.83 41.91 1268.48 40.47 1268.48 38.87C1268.48 37.27 1268.84 35.83 1269.56 34.55C1270.28 33.27 1271.25 32.26 1272.47 31.52C1273.69 30.78 1275.07 30.41 1276.61 30.41C1277.91 30.41 1279.06 30.67 1280.06 31.19C1281.06 31.71 1281.85 32.43 1282.43 33.35L1281.92 34.13V24.29H1285.28V47H1282.07V43.7L1282.46 44.33C1281.9 45.31 1281.1 46.06 1280.06 46.58C1279.02 47.1 1277.88 47.36 1276.64 47.36ZM1276.97 44.21C1277.91 44.21 1278.75 43.98 1279.49 43.52C1280.25 43.06 1280.84 42.43 1281.26 41.63C1281.7 40.81 1281.92 39.89 1281.92 38.87C1281.92 37.85 1281.7 36.94 1281.26 36.14C1280.84 35.34 1280.25 34.71 1279.49 34.25C1278.75 33.79 1277.91 33.56 1276.97 33.56C1276.03 33.56 1275.18 33.79 1274.42 34.25C1273.66 34.71 1273.07 35.34 1272.65 36.14C1272.23 36.94 1272.02 37.85 1272.02 38.87C1272.02 39.89 1272.23 40.81 1272.65 41.63C1273.07 42.43 1273.65 43.06 1274.39 43.52C1275.15 43.98 1276.01 44.21 1276.97 44.21ZM1295.6 47.36C1294.5 47.36 1293.53 47.17 1292.69 46.79C1291.87 46.39 1291.23 45.85 1290.77 45.17C1290.31 44.47 1290.08 43.65 1290.08 42.71C1290.08 41.83 1290.27 41.04 1290.65 40.34C1291.05 39.64 1291.66 39.05 1292.48 38.57C1293.3 38.09 1294.33 37.75 1295.57 37.55L1301.21 36.62V39.29L1296.23 40.16C1295.33 40.32 1294.67 40.61 1294.25 41.03C1293.83 41.43 1293.62 41.95 1293.62 42.59C1293.62 43.21 1293.85 43.72 1294.31 44.12C1294.79 44.5 1295.4 44.69 1296.14 44.69C1297.06 44.69 1297.86 44.49 1298.54 44.09C1299.24 43.69 1299.78 43.16 1300.16 42.5C1300.54 41.82 1300.73 41.07 1300.73 40.25V36.08C1300.73 35.28 1300.43 34.63 1299.83 34.13C1299.25 33.61 1298.47 33.35 1297.49 33.35C1296.59 33.35 1295.8 33.59 1295.12 34.07C1294.46 34.53 1293.97 35.13 1293.65 35.87L1290.83 34.46C1291.13 33.66 1291.62 32.96 1292.3 32.36C1292.98 31.74 1293.77 31.26 1294.67 30.92C1295.59 30.58 1296.56 30.41 1297.58 30.41C1298.86 30.41 1299.99 30.65 1300.97 31.13C1301.97 31.61 1302.74 32.28 1303.28 33.14C1303.84 33.98 1304.12 34.96 1304.12 36.08V47H1300.88V44.06L1301.57 44.15C1301.19 44.81 1300.7 45.38 1300.1 45.86C1299.52 46.34 1298.85 46.71 1298.09 46.97C1297.35 47.23 1296.52 47.36 1295.6 47.36ZM1316.31 47.18C1314.61 47.18 1313.29 46.7 1312.35 45.74C1311.41 44.78 1310.94 43.43 1310.94 41.69V33.83H1308.09V30.77H1308.54C1309.3 30.77 1309.89 30.55 1310.31 30.11C1310.73 29.67 1310.94 29.07 1310.94 28.31V27.05H1314.33V30.77H1318.02V33.83H1314.33V41.54C1314.33 42.1 1314.42 42.58 1314.6 42.98C1314.78 43.36 1315.07 43.66 1315.47 43.88C1315.87 44.08 1316.39 44.18 1317.03 44.18C1317.19 44.18 1317.37 44.17 1317.57 44.15C1317.77 44.13 1317.96 44.11 1318.14 44.09V47C1317.86 47.04 1317.55 47.08 1317.21 47.12C1316.87 47.16 1316.57 47.18 1316.31 47.18ZM1330.28 47.36C1328.66 47.36 1327.22 46.99 1325.96 46.25C1324.72 45.49 1323.75 44.47 1323.05 43.19C1322.35 41.89 1322 40.44 1322 38.84C1322 37.2 1322.35 35.75 1323.05 34.49C1323.77 33.23 1324.73 32.24 1325.93 31.52C1327.13 30.78 1328.49 30.41 1330.01 30.41C1331.23 30.41 1332.32 30.62 1333.28 31.04C1334.24 31.46 1335.05 32.04 1335.71 32.78C1336.37 33.5 1336.87 34.33 1337.21 35.27C1337.57 36.21 1337.75 37.21 1337.75 38.27C1337.75 38.53 1337.74 38.8 1337.72 39.08C1337.7 39.36 1337.66 39.62 1337.6 39.86H1324.67V37.16H1335.68L1334.06 38.39C1334.26 37.41 1334.19 36.54 1333.85 35.78C1333.53 35 1333.03 34.39 1332.35 33.95C1331.69 33.49 1330.91 33.26 1330.01 33.26C1329.11 33.26 1328.31 33.49 1327.61 33.95C1326.91 34.39 1326.37 35.03 1325.99 35.87C1325.61 36.69 1325.46 37.69 1325.54 38.87C1325.44 39.97 1325.59 40.93 1325.99 41.75C1326.41 42.57 1326.99 43.21 1327.73 43.67C1328.49 44.13 1329.35 44.36 1330.31 44.36C1331.29 44.36 1332.12 44.14 1332.8 43.7C1333.5 43.26 1334.05 42.69 1334.45 41.99L1337.21 43.34C1336.89 44.1 1336.39 44.79 1335.71 45.41C1335.05 46.01 1334.25 46.49 1333.31 46.85C1332.39 47.19 1331.38 47.36 1330.28 47.36Z" fill="#00272D"/>
<line y1="-2" x2="177" y2="-2" transform="matrix(0 -1 -1 0 1198.76 263)" stroke="#05B570" stroke-width="4"/>
<path d="M1200.76 78L1205.53 87.75H1196L1200.76 78Z" fill="#05B570"/>
</svg>
